%TF.GenerationSoftware,KiCad,Pcbnew,(6.0.2)*%
%TF.CreationDate,2022-07-01T18:11:32+02:00*%
%TF.ProjectId,Easy C3 Dev Board,45617379-2043-4332-9044-657620426f61,rev?*%
%TF.SameCoordinates,Original*%
%TF.FileFunction,Copper,L3,Inr*%
%TF.FilePolarity,Positive*%
%FSLAX46Y46*%
G04 Gerber Fmt 4.6, Leading zero omitted, Abs format (unit mm)*
G04 Created by KiCad (PCBNEW (6.0.2)) date 2022-07-01 18:11:32*
%MOMM*%
%LPD*%
G01*
G04 APERTURE LIST*
%TA.AperFunction,ComponentPad*%
%ADD10R,1.725000X1.725000*%
%TD*%
%TA.AperFunction,ComponentPad*%
%ADD11C,1.725000*%
%TD*%
%TA.AperFunction,ComponentPad*%
%ADD12C,0.650000*%
%TD*%
%TA.AperFunction,ComponentPad*%
%ADD13C,1.815000*%
%TD*%
%TA.AperFunction,ViaPad*%
%ADD14C,0.800000*%
%TD*%
%TA.AperFunction,Conductor*%
%ADD15C,0.200000*%
%TD*%
G04 APERTURE END LIST*
D10*
%TO.N,VDD5*%
%TO.C,J3*%
X147320000Y-60960000D03*
D11*
%TO.N,GND*%
X147320000Y-63500000D03*
%TO.N,VDD33*%
X147320000Y-66040000D03*
%TO.N,GPIO0*%
X147320000Y-68580000D03*
%TO.N,GPIO1*%
X147320000Y-71120000D03*
%TO.N,GPIO2*%
X147320000Y-73660000D03*
%TO.N,GPIO3*%
X147320000Y-76200000D03*
%TO.N,GPIO10*%
X147320000Y-78740000D03*
%TO.N,GPIO20*%
X147320000Y-81280000D03*
%TO.N,GPIO21*%
X147320000Y-83820000D03*
%TO.N,GPIO18*%
X147320000Y-86360000D03*
%TO.N,GPIO19*%
X147320000Y-88900000D03*
%TD*%
D10*
%TO.N,VDD5*%
%TO.C,J2*%
X167640000Y-60960000D03*
D11*
%TO.N,GND*%
X167640000Y-63500000D03*
%TO.N,VDD33*%
X167640000Y-66040000D03*
%TO.N,CHIP_EN*%
X167640000Y-68580000D03*
%TO.N,GPIO4*%
X167640000Y-71120000D03*
%TO.N,GPIO5*%
X167640000Y-73660000D03*
%TO.N,GPIO6*%
X167640000Y-76200000D03*
%TO.N,GPIO7*%
X167640000Y-78740000D03*
%TO.N,GPIO8*%
X167640000Y-81280000D03*
%TO.N,GPIO9*%
X167640000Y-83820000D03*
%TO.N,GND*%
X167640000Y-86360000D03*
X167640000Y-88900000D03*
%TD*%
D12*
%TO.N,GND*%
%TO.C,J1*%
X154680000Y-56433000D03*
%TO.N,unconnected-(J1-PadB2)*%
X155080000Y-55733000D03*
%TO.N,unconnected-(J1-PadB3)*%
X155880000Y-55733000D03*
%TO.N,VUSB*%
X156280000Y-56433000D03*
%TO.N,unconnected-(J1-PadB5)*%
X156680000Y-55733000D03*
%TO.N,DP*%
X157080000Y-56433000D03*
%TO.N,DN*%
X157880000Y-56433000D03*
%TO.N,unconnected-(J1-PadB8)*%
X158280000Y-55733000D03*
%TO.N,VUSB*%
X158680000Y-56433000D03*
%TO.N,unconnected-(J1-PadB10)*%
X159080000Y-55733000D03*
%TO.N,unconnected-(J1-PadB11)*%
X159880000Y-55733000D03*
%TO.N,GND*%
X160280000Y-56433000D03*
D13*
X161610000Y-55833000D03*
X161970000Y-51443000D03*
X152990000Y-51443000D03*
X153350000Y-55833000D03*
%TD*%
D14*
%TO.N,GPIO1*%
X151026334Y-53392866D03*
%TO.N,VDD33*%
X150774400Y-56159400D03*
%TO.N,GPIO8*%
X149733000Y-56337200D03*
X154389620Y-66429420D03*
X159359600Y-66429420D03*
%TO.N,VDD33_RAW*%
X158978600Y-64897000D03*
%TO.N,/DTR#*%
X158544679Y-67219300D03*
%TO.N,VDD33_RAW*%
X164257652Y-69418200D03*
X162433000Y-74244200D03*
%TO.N,GPIO21*%
X159809959Y-64214858D03*
X149047200Y-77876400D03*
X149275800Y-79527400D03*
%TO.N,GPIO0*%
X149860000Y-54051200D03*
X145952437Y-54375172D03*
%TO.N,Net-(Q3-Pad1)*%
X151561800Y-67360800D03*
%TO.N,/RTS#*%
X158964500Y-68605400D03*
%TO.N,Net-(Q3-Pad1)*%
X164134800Y-70459600D03*
%TO.N,/DTR#*%
X163072473Y-69417500D03*
%TO.N,GPIO20*%
X160225066Y-62371500D03*
%TO.N,GPIO21*%
X158964500Y-62509400D03*
%TO.N,GND*%
X161504500Y-63093600D03*
%TO.N,GPIO2*%
X161402500Y-77719860D03*
%TO.N,CHIP_EN*%
X159978516Y-76956816D03*
%TO.N,GPIO0*%
X159492497Y-77800529D03*
%TO.N,CHIP_EN*%
X148971000Y-72466200D03*
%TO.N,GPIO3*%
X149047200Y-70764400D03*
X161264600Y-73710800D03*
%TO.N,CHIP_EN*%
X161963093Y-76111107D03*
%TO.N,GPIO1*%
X160451800Y-78054989D03*
%TO.N,SPIQ*%
X153492200Y-72874685D03*
%TO.N,Net-(IC1-Pad2)*%
X166686013Y-53714629D03*
X158724600Y-78359000D03*
%TO.N,SPICS0*%
X156670811Y-79730600D03*
%TO.N,VDD33_RAW*%
X157077732Y-78282800D03*
X158722534Y-79372934D03*
%TO.N,SPICLK*%
X155371800Y-82263502D03*
X152933615Y-70844116D03*
%TO.N,SPID*%
X152140934Y-82176921D03*
X152399701Y-72225185D03*
%TO.N,SPIQ*%
X154025600Y-78714600D03*
%TO.N,GPIO18*%
X153238925Y-74554348D03*
%TO.N,GPIO19*%
X153910325Y-75225748D03*
%TO.N,RXD*%
X159167688Y-59911595D03*
X149152086Y-60066423D03*
X153758385Y-77311603D03*
%TO.N,/DTR#*%
X151773789Y-66021874D03*
%TO.N,/RTS#*%
X151790400Y-68376800D03*
%TO.N,TXD*%
X150723600Y-62008498D03*
X154292863Y-76526818D03*
%TO.N,XTAL_N*%
X159461200Y-89012500D03*
X154941888Y-77328500D03*
%TO.N,XTAL_P*%
X161798000Y-84074000D03*
X155718980Y-76782899D03*
%TO.N,SPICS0*%
X154710201Y-71106739D03*
%TO.N,SPIWP*%
X152086734Y-78246502D03*
X154465118Y-70189412D03*
%TO.N,GND*%
X149860000Y-73660000D03*
X165116980Y-76708000D03*
%TO.N,SPIHD*%
X162052000Y-78994000D03*
%TO.N,GND*%
X157480000Y-73660000D03*
X157480000Y-75692000D03*
X157480000Y-71628000D03*
X155448000Y-73660000D03*
X159512000Y-73660000D03*
%TO.N,SPIHD*%
X155350716Y-69846963D03*
%TO.N,Net-(IC2-Pad1)*%
X150001500Y-84582000D03*
X155295255Y-84480745D03*
%TO.N,Net-(IC2-Pad2)*%
X152146000Y-86614000D03*
X153113266Y-84884734D03*
%TO.N,Net-(IC2-Pad7)*%
X164592000Y-80518000D03*
X158989498Y-86106000D03*
%TO.N,VDD_SPI*%
X157988000Y-84328000D03*
X156300170Y-69856576D03*
%TO.N,GPIO21*%
X153162000Y-61609500D03*
%TO.N,VDD33_RAW*%
X154080500Y-59675498D03*
%TO.N,GPIO10*%
X157734000Y-69850000D03*
%TO.N,GPIO9*%
X158727098Y-69849237D03*
X164846000Y-72898000D03*
%TO.N,GPIO8*%
X159676074Y-69880846D03*
%TO.N,GPIO7*%
X160633291Y-70201461D03*
%TO.N,GPIO6*%
X160274000Y-71120000D03*
%TO.N,GPIO5*%
X161798000Y-70866000D03*
%TO.N,VUSB*%
X152146000Y-49784000D03*
X155702000Y-58928000D03*
%TO.N,DP*%
X158153151Y-58708499D03*
X157226000Y-64770000D03*
%TO.N,DN*%
X156210000Y-64770000D03*
%TO.N,VDD5*%
X157007962Y-61746596D03*
%TO.N,VDD33_RAW*%
X164846000Y-60452000D03*
X166370000Y-54610000D03*
%TO.N,GND*%
X160528000Y-59577500D03*
%TO.N,DN*%
X149546734Y-50994734D03*
%TO.N,DP*%
X149606000Y-49784000D03*
%TO.N,DN*%
X157221911Y-58523173D03*
%TO.N,GND*%
X161544000Y-81788000D03*
%TD*%
D15*
%TO.N,GPIO21*%
X159715590Y-64120489D02*
X159809959Y-64214858D01*
X150622000Y-65354200D02*
X151855711Y-64120489D01*
X150622000Y-70358000D02*
X150622000Y-65354200D01*
X151855711Y-64120489D02*
X159715590Y-64120489D01*
X150622000Y-76301600D02*
X150622000Y-70358000D01*
X149047200Y-77876400D02*
X150622000Y-76301600D01*
X149275800Y-81864200D02*
X149275800Y-79527400D01*
X147320000Y-83820000D02*
X149275800Y-81864200D01*
%TO.N,GND*%
X161016189Y-70737111D02*
X161016189Y-72232011D01*
X161504500Y-63093600D02*
X161282802Y-63315298D01*
X161016189Y-72232011D02*
X168382189Y-72232011D01*
X161282802Y-63315298D02*
X161282802Y-70470498D01*
X161282802Y-70470498D02*
X161016189Y-70737111D01*
X158084011Y-72232011D02*
X161016189Y-72232011D01*
X168783000Y-71831200D02*
X168783000Y-64643000D01*
X168783000Y-64643000D02*
X167640000Y-63500000D01*
X168382189Y-72232011D02*
X168783000Y-71831200D01*
X157480000Y-71628000D02*
X158084011Y-72232011D01*
%TO.N,GPIO10*%
X157175200Y-69189600D02*
X157734000Y-69748400D01*
X157734000Y-69748400D02*
X157734000Y-69850000D01*
X152755600Y-69189600D02*
X157175200Y-69189600D01*
X151087703Y-70857497D02*
X152755600Y-69189600D01*
X151087703Y-78477497D02*
X151087703Y-70857497D01*
X150825200Y-78740000D02*
X151087703Y-78477497D01*
X147320000Y-78740000D02*
X150825200Y-78740000D01*
%TO.N,GPIO20*%
X146207989Y-80167989D02*
X147320000Y-81280000D01*
X146207989Y-62935611D02*
X146207989Y-80167989D01*
X146913600Y-62230000D02*
X146207989Y-62935611D01*
X150026554Y-62230000D02*
X146913600Y-62230000D01*
X150955465Y-63158911D02*
X150026554Y-62230000D01*
X159233537Y-63158911D02*
X150955465Y-63158911D01*
X160020948Y-62371500D02*
X159233537Y-63158911D01*
X160225066Y-62371500D02*
X160020948Y-62371500D01*
%TO.N,GPIO21*%
X158851207Y-62396107D02*
X158964500Y-62509400D01*
X153948607Y-62396107D02*
X158851207Y-62396107D01*
%TO.N,GND*%
X161518600Y-63107700D02*
X161504500Y-63093600D01*
%TO.N,SPIQ*%
X153356385Y-73010500D02*
X153492200Y-72874685D01*
X152933400Y-73010500D02*
X153356385Y-73010500D01*
%TO.N,XTAL_P*%
X160095663Y-84074000D02*
X161798000Y-84074000D01*
X155718980Y-79697317D02*
X160095663Y-84074000D01*
X155718980Y-76782899D02*
X155718980Y-79697317D01*
%TO.N,SPICS0*%
X156428221Y-79488010D02*
X156670811Y-79730600D01*
X156428221Y-75114557D02*
X156428221Y-79488010D01*
X156438600Y-75104178D02*
X156428221Y-75114557D01*
X156097511Y-74763089D02*
X156438600Y-75104178D01*
X156097511Y-72494049D02*
X156097511Y-74763089D01*
X154710201Y-71106739D02*
X156097511Y-72494049D01*
%TO.N,SPICLK*%
X154808870Y-82826432D02*
X155371800Y-82263502D01*
X151609632Y-82826432D02*
X154808870Y-82826432D01*
X151437223Y-72269115D02*
X151437223Y-82654023D01*
X151437223Y-82654023D02*
X151609632Y-82826432D01*
X152862222Y-70844116D02*
X151437223Y-72269115D01*
X152933615Y-70844116D02*
X152862222Y-70844116D01*
%TO.N,SPID*%
X152140934Y-82174066D02*
X152140934Y-82176921D01*
X152736245Y-81578755D02*
X152140934Y-82174066D01*
X152736245Y-77977465D02*
X152736245Y-81578755D01*
X152196800Y-77438020D02*
X152736245Y-77977465D01*
X152399701Y-72225185D02*
X152196800Y-72428086D01*
X152196800Y-72428086D02*
X152196800Y-77438020D01*
%TO.N,SPIQ*%
X152552400Y-73391500D02*
X152552400Y-77241400D01*
X152552400Y-77241400D02*
X154025600Y-78714600D01*
X152933400Y-73010500D02*
X152552400Y-73391500D01*
%TO.N,RXD*%
X158754274Y-60325009D02*
X159167688Y-59911595D01*
X149410672Y-60325009D02*
X158754274Y-60325009D01*
X149152086Y-60066423D02*
X149410672Y-60325009D01*
%TO.N,GPIO21*%
X153948607Y-62396107D02*
X153162000Y-61609500D01*
%TO.N,VDD5*%
X155956000Y-60960000D02*
X147320000Y-60960000D01*
X156742596Y-61746596D02*
X155956000Y-60960000D01*
X157007962Y-61746596D02*
X156742596Y-61746596D01*
%TD*%
%TA.AperFunction,Conductor*%
%TO.N,GND*%
G36*
X148710503Y-49296002D02*
G01*
X148756996Y-49349658D01*
X148767100Y-49419932D01*
X148762215Y-49440936D01*
X148753659Y-49467268D01*
X148712458Y-49594072D01*
X148711768Y-49600633D01*
X148711768Y-49600635D01*
X148704377Y-49670960D01*
X148692496Y-49784000D01*
X148712458Y-49973928D01*
X148771473Y-50155556D01*
X148774776Y-50161278D01*
X148774777Y-50161279D01*
X148846173Y-50284940D01*
X148862911Y-50353935D01*
X148839691Y-50421027D01*
X148830698Y-50432242D01*
X148807694Y-50457790D01*
X148804393Y-50463508D01*
X148739955Y-50575118D01*
X148712207Y-50623178D01*
X148653192Y-50804806D01*
X148633230Y-50994734D01*
X148633920Y-51001299D01*
X148651848Y-51171870D01*
X148653192Y-51184662D01*
X148712207Y-51366290D01*
X148807694Y-51531678D01*
X148935481Y-51673600D01*
X149089982Y-51785852D01*
X149096010Y-51788536D01*
X149096012Y-51788537D01*
X149155499Y-51815022D01*
X149264446Y-51863528D01*
X149357846Y-51883381D01*
X149444790Y-51901862D01*
X149444795Y-51901862D01*
X149451247Y-51903234D01*
X149642221Y-51903234D01*
X149648673Y-51901862D01*
X149648678Y-51901862D01*
X149735622Y-51883381D01*
X149829022Y-51863528D01*
X149937969Y-51815022D01*
X149997456Y-51788537D01*
X149997458Y-51788536D01*
X150003486Y-51785852D01*
X150157987Y-51673600D01*
X150285774Y-51531678D01*
X150381261Y-51366290D01*
X150440276Y-51184662D01*
X150441621Y-51171870D01*
X150459548Y-51001299D01*
X150460238Y-50994734D01*
X150440276Y-50804806D01*
X150381261Y-50623178D01*
X150353514Y-50575118D01*
X150306561Y-50493794D01*
X150289823Y-50424799D01*
X150313043Y-50357707D01*
X150322036Y-50346492D01*
X150345040Y-50320944D01*
X150440527Y-50155556D01*
X150499542Y-49973928D01*
X150519504Y-49784000D01*
X150507623Y-49670960D01*
X150500232Y-49600635D01*
X150500232Y-49600633D01*
X150499542Y-49594072D01*
X150458341Y-49467268D01*
X150449785Y-49440936D01*
X150447757Y-49369969D01*
X150484420Y-49309171D01*
X150548132Y-49277845D01*
X150569618Y-49276000D01*
X151182382Y-49276000D01*
X151250503Y-49296002D01*
X151296996Y-49349658D01*
X151307100Y-49419932D01*
X151302215Y-49440936D01*
X151293659Y-49467268D01*
X151252458Y-49594072D01*
X151251768Y-49600633D01*
X151251768Y-49600635D01*
X151244377Y-49670960D01*
X151232496Y-49784000D01*
X151252458Y-49973928D01*
X151311473Y-50155556D01*
X151406960Y-50320944D01*
X151411375Y-50325847D01*
X151411379Y-50325852D01*
X151530325Y-50457955D01*
X151534747Y-50462866D01*
X151689248Y-50575118D01*
X151695278Y-50577803D01*
X151701001Y-50581107D01*
X151699690Y-50583377D01*
X151744868Y-50621750D01*
X151765542Y-50689670D01*
X151753835Y-50743965D01*
X151659187Y-50947864D01*
X151655628Y-50957539D01*
X151596189Y-51171870D01*
X151594258Y-51181990D01*
X151570622Y-51403165D01*
X151570370Y-51413454D01*
X151583174Y-51635506D01*
X151584610Y-51645727D01*
X151633508Y-51862701D01*
X151636587Y-51872529D01*
X151720271Y-52078617D01*
X151724914Y-52087808D01*
X151814644Y-52234236D01*
X151825100Y-52243696D01*
X151833878Y-52239912D01*
X152629658Y-51444132D01*
X153354408Y-51444132D01*
X153354539Y-51445965D01*
X153358790Y-51452580D01*
X154141676Y-52235466D01*
X154153686Y-52242024D01*
X154165426Y-52233056D01*
X154204460Y-52178736D01*
X154209769Y-52169899D01*
X154308315Y-51970507D01*
X154312114Y-51960912D01*
X154376770Y-51748107D01*
X154378949Y-51738026D01*
X154408218Y-51515706D01*
X154408737Y-51509031D01*
X154410269Y-51446364D01*
X154410075Y-51439646D01*
X154407922Y-51413454D01*
X160550370Y-51413454D01*
X160563174Y-51635506D01*
X160564610Y-51645727D01*
X160613508Y-51862701D01*
X160616587Y-51872529D01*
X160700271Y-52078617D01*
X160704914Y-52087808D01*
X160794644Y-52234236D01*
X160805100Y-52243696D01*
X160813878Y-52239912D01*
X161597978Y-51455812D01*
X161604356Y-51444132D01*
X162334408Y-51444132D01*
X162334539Y-51445965D01*
X162338790Y-51452580D01*
X163121676Y-52235466D01*
X163133686Y-52242024D01*
X163145426Y-52233056D01*
X163184460Y-52178736D01*
X163189769Y-52169899D01*
X163288315Y-51970507D01*
X163292114Y-51960912D01*
X163356770Y-51748107D01*
X163358949Y-51738026D01*
X163388218Y-51515706D01*
X163388737Y-51509031D01*
X163390269Y-51446364D01*
X163390075Y-51439646D01*
X163371703Y-51216181D01*
X163370018Y-51206001D01*
X163315833Y-50990282D01*
X163312513Y-50980531D01*
X163223820Y-50776549D01*
X163218953Y-50767474D01*
X163144647Y-50652614D01*
X163133962Y-50643411D01*
X163124395Y-50647815D01*
X162342022Y-51430188D01*
X162334408Y-51444132D01*
X161604356Y-51444132D01*
X161605592Y-51441868D01*
X161605461Y-51440035D01*
X161601210Y-51433420D01*
X160818469Y-50650679D01*
X160806933Y-50644379D01*
X160794650Y-50654003D01*
X160737931Y-50737150D01*
X160732832Y-50746126D01*
X160639187Y-50947864D01*
X160635628Y-50957539D01*
X160576189Y-51171870D01*
X160574258Y-51181990D01*
X160550622Y-51403165D01*
X160550370Y-51413454D01*
X154407922Y-51413454D01*
X154391703Y-51216181D01*
X154390018Y-51206001D01*
X154335833Y-50990282D01*
X154332513Y-50980531D01*
X154243820Y-50776549D01*
X154238953Y-50767474D01*
X154164647Y-50652614D01*
X154153962Y-50643411D01*
X154144395Y-50647815D01*
X153362022Y-51430188D01*
X153354408Y-51444132D01*
X152629658Y-51444132D01*
X153784330Y-50289460D01*
X153790394Y-50278356D01*
X161170152Y-50278356D01*
X161176898Y-50290688D01*
X161957188Y-51070978D01*
X161971132Y-51078592D01*
X161972965Y-51078461D01*
X161979580Y-51074210D01*
X162764330Y-50289460D01*
X162771351Y-50276604D01*
X162763578Y-50265936D01*
X162760068Y-50263164D01*
X162751481Y-50257459D01*
X162556769Y-50149972D01*
X162547357Y-50145742D01*
X162337698Y-50071497D01*
X162327728Y-50068863D01*
X162108757Y-50029860D01*
X162098503Y-50028890D01*
X161876091Y-50026172D01*
X161865807Y-50026892D01*
X161645950Y-50060535D01*
X161635922Y-50062924D01*
X161424510Y-50132024D01*
X161415001Y-50136021D01*
X161217718Y-50238720D01*
X161208997Y-50244212D01*
X161178605Y-50267031D01*
X161170152Y-50278356D01*
X153790394Y-50278356D01*
X153791351Y-50276604D01*
X153783578Y-50265936D01*
X153780068Y-50263164D01*
X153771481Y-50257459D01*
X153576769Y-50149972D01*
X153567357Y-50145742D01*
X153357698Y-50071497D01*
X153347728Y-50068863D01*
X153150885Y-50033801D01*
X153087328Y-50002163D01*
X153050965Y-49941186D01*
X153047671Y-49896583D01*
X153058814Y-49790564D01*
X153059504Y-49784000D01*
X153047623Y-49670960D01*
X153040232Y-49600635D01*
X153040232Y-49600633D01*
X153039542Y-49594072D01*
X152998341Y-49467268D01*
X152989785Y-49440936D01*
X152987757Y-49369969D01*
X153024420Y-49309171D01*
X153088132Y-49277845D01*
X153109618Y-49276000D01*
X168352672Y-49276000D01*
X168372057Y-49277500D01*
X168386858Y-49279805D01*
X168386861Y-49279805D01*
X168395730Y-49281186D01*
X168406728Y-49279748D01*
X168435411Y-49279291D01*
X168538307Y-49289425D01*
X168562531Y-49294244D01*
X168681733Y-49330404D01*
X168704553Y-49339856D01*
X168814400Y-49398570D01*
X168834938Y-49412293D01*
X168931223Y-49491312D01*
X168948688Y-49508777D01*
X169027707Y-49605062D01*
X169041430Y-49625600D01*
X169100144Y-49735447D01*
X169109596Y-49758267D01*
X169145756Y-49877469D01*
X169150575Y-49901693D01*
X169158308Y-49980206D01*
X169160044Y-49997834D01*
X169159592Y-50013876D01*
X169160305Y-50013885D01*
X169160195Y-50022858D01*
X169158814Y-50031730D01*
X169159978Y-50040632D01*
X169159978Y-50040635D01*
X169162936Y-50063251D01*
X169164000Y-50079589D01*
X169164000Y-59753960D01*
X169143998Y-59822081D01*
X169090342Y-59868574D01*
X169020068Y-59878678D01*
X168955488Y-59849184D01*
X168937174Y-59829525D01*
X168871142Y-59741419D01*
X168865761Y-59734239D01*
X168749205Y-59646885D01*
X168612816Y-59595755D01*
X168550634Y-59589000D01*
X166729366Y-59589000D01*
X166667184Y-59595755D01*
X166530795Y-59646885D01*
X166414239Y-59734239D01*
X166326885Y-59850795D01*
X166275755Y-59987184D01*
X166269000Y-60049366D01*
X166269000Y-61870634D01*
X166275755Y-61932816D01*
X166326885Y-62069205D01*
X166414239Y-62185761D01*
X166530795Y-62273115D01*
X166667184Y-62324245D01*
X166729366Y-62331000D01*
X166778020Y-62331000D01*
X166846141Y-62351002D01*
X166867115Y-62367905D01*
X167627188Y-63127978D01*
X167641132Y-63135592D01*
X167642965Y-63135461D01*
X167649580Y-63131210D01*
X168412885Y-62367905D01*
X168475197Y-62333879D01*
X168501980Y-62331000D01*
X168550634Y-62331000D01*
X168612816Y-62324245D01*
X168749205Y-62273115D01*
X168865761Y-62185761D01*
X168937174Y-62090475D01*
X168994033Y-62047960D01*
X169064852Y-62042934D01*
X169127145Y-62076994D01*
X169161135Y-62139325D01*
X169164000Y-62166040D01*
X169164000Y-62962010D01*
X169143998Y-63030131D01*
X169090342Y-63076624D01*
X169020068Y-63086728D01*
X168955488Y-63057234D01*
X168922450Y-63012252D01*
X168854026Y-62854887D01*
X168849159Y-62845812D01*
X168782103Y-62742158D01*
X168771417Y-62732955D01*
X168761852Y-62737358D01*
X168012022Y-63487188D01*
X168004408Y-63501132D01*
X168004539Y-63502965D01*
X168008790Y-63509580D01*
X168759431Y-64260221D01*
X168771442Y-64266780D01*
X168783181Y-64257812D01*
X168815754Y-64212482D01*
X168821068Y-64203637D01*
X168916337Y-64010875D01*
X168920850Y-63999478D01*
X168964526Y-63943505D01*
X169031529Y-63920031D01*
X169100587Y-63936509D01*
X169149774Y-63987706D01*
X169164000Y-64045865D01*
X169164000Y-65500756D01*
X169143998Y-65568877D01*
X169090342Y-65615370D01*
X169020068Y-65625474D01*
X168955488Y-65595980D01*
X168922450Y-65550998D01*
X168854468Y-65394649D01*
X168854466Y-65394646D01*
X168852408Y-65389912D01*
X168729952Y-65200624D01*
X168578224Y-65033877D01*
X168401300Y-64894151D01*
X168375988Y-64880178D01*
X168326018Y-64829746D01*
X168311246Y-64760303D01*
X168336362Y-64693898D01*
X168363714Y-64667291D01*
X168398210Y-64642686D01*
X168406610Y-64631987D01*
X168399621Y-64618831D01*
X167652812Y-63872022D01*
X167638868Y-63864408D01*
X167637035Y-63864539D01*
X167630420Y-63868790D01*
X166877599Y-64621611D01*
X166870839Y-64633991D01*
X166876120Y-64641046D01*
X166906669Y-64658897D01*
X166955392Y-64710536D01*
X166968463Y-64780319D01*
X166941731Y-64846091D01*
X166910608Y-64873975D01*
X166906923Y-64875893D01*
X166902793Y-64878994D01*
X166902788Y-64878997D01*
X166738837Y-65002095D01*
X166726637Y-65011255D01*
X166570881Y-65174245D01*
X166567967Y-65178517D01*
X166567966Y-65178518D01*
X166551367Y-65202851D01*
X166443837Y-65360485D01*
X166428243Y-65394080D01*
X166388350Y-65480022D01*
X166348916Y-65564974D01*
X166288668Y-65782220D01*
X166264712Y-66006389D01*
X166265009Y-66011542D01*
X166265009Y-66011545D01*
X166270525Y-66107203D01*
X166277689Y-66231460D01*
X166278826Y-66236506D01*
X166278827Y-66236512D01*
X166279354Y-66238849D01*
X166327253Y-66451390D01*
X166329195Y-66456172D01*
X166329196Y-66456176D01*
X166398003Y-66625626D01*
X166412071Y-66660272D01*
X166529866Y-66852496D01*
X166677474Y-67022899D01*
X166681449Y-67026199D01*
X166681453Y-67026203D01*
X166753005Y-67085607D01*
X166850931Y-67166907D01*
X166868948Y-67177435D01*
X166906191Y-67199198D01*
X166954914Y-67250837D01*
X166967985Y-67320620D01*
X166941253Y-67386392D01*
X166910269Y-67414151D01*
X166906923Y-67415893D01*
X166902793Y-67418994D01*
X166902788Y-67418997D01*
X166736080Y-67544165D01*
X166726637Y-67551255D01*
X166570881Y-67714245D01*
X166567967Y-67718517D01*
X166567966Y-67718518D01*
X166549926Y-67744964D01*
X166443837Y-67900485D01*
X166429466Y-67931445D01*
X166390028Y-68016407D01*
X166348916Y-68104974D01*
X166288668Y-68322220D01*
X166264712Y-68546389D01*
X166265009Y-68551542D01*
X166265009Y-68551545D01*
X166276775Y-68755613D01*
X166277689Y-68771460D01*
X166278826Y-68776506D01*
X166278827Y-68776512D01*
X166294266Y-68845017D01*
X166327253Y-68991390D01*
X166329195Y-68996172D01*
X166329196Y-68996176D01*
X166382411Y-69127229D01*
X166412071Y-69200272D01*
X166529866Y-69392496D01*
X166533250Y-69396402D01*
X166533251Y-69396404D01*
X166555489Y-69422076D01*
X166677474Y-69562899D01*
X166681449Y-69566199D01*
X166681453Y-69566203D01*
X166723204Y-69600865D01*
X166850931Y-69706907D01*
X166906191Y-69739198D01*
X166954914Y-69790837D01*
X166967985Y-69860620D01*
X166941253Y-69926392D01*
X166910269Y-69954151D01*
X166906923Y-69955893D01*
X166902793Y-69958994D01*
X166902788Y-69958997D01*
X166730772Y-70088150D01*
X166726637Y-70091255D01*
X166570881Y-70254245D01*
X166567967Y-70258517D01*
X166567966Y-70258518D01*
X166508289Y-70346002D01*
X166443837Y-70440485D01*
X166424144Y-70482909D01*
X166352116Y-70638081D01*
X166348916Y-70644974D01*
X166288668Y-70862220D01*
X166264712Y-71086389D01*
X166265009Y-71091542D01*
X166265009Y-71091545D01*
X166274592Y-71257745D01*
X166277689Y-71311460D01*
X166278826Y-71316506D01*
X166278827Y-71316512D01*
X166292045Y-71375161D01*
X166327253Y-71531390D01*
X166329195Y-71536172D01*
X166329196Y-71536176D01*
X166410127Y-71735485D01*
X166412071Y-71740272D01*
X166529866Y-71932496D01*
X166677474Y-72102899D01*
X166681449Y-72106199D01*
X166681453Y-72106203D01*
X166686946Y-72110763D01*
X166850931Y-72246907D01*
X166906191Y-72279198D01*
X166954914Y-72330837D01*
X166967985Y-72400620D01*
X166941253Y-72466392D01*
X166910269Y-72494151D01*
X166906923Y-72495893D01*
X166902793Y-72498994D01*
X166902788Y-72498997D01*
X166730772Y-72628150D01*
X166726637Y-72631255D01*
X166570881Y-72794245D01*
X166567967Y-72798517D01*
X166567966Y-72798518D01*
X166549926Y-72824964D01*
X166443837Y-72980485D01*
X166408828Y-73055904D01*
X166351423Y-73179574D01*
X166348916Y-73184974D01*
X166288668Y-73402220D01*
X166264712Y-73626389D01*
X166265009Y-73631542D01*
X166265009Y-73631545D01*
X166272807Y-73766794D01*
X166277689Y-73851460D01*
X166278826Y-73856506D01*
X166278827Y-73856512D01*
X166283879Y-73878929D01*
X166327253Y-74071390D01*
X166329195Y-74076172D01*
X166329196Y-74076176D01*
X166409515Y-74273977D01*
X166412071Y-74280272D01*
X166529866Y-74472496D01*
X166533250Y-74476402D01*
X166533251Y-74476404D01*
X166551990Y-74498037D01*
X166677474Y-74642899D01*
X166681449Y-74646199D01*
X166681453Y-74646203D01*
X166732766Y-74688804D01*
X166850931Y-74786907D01*
X166906191Y-74819198D01*
X166954914Y-74870837D01*
X166967985Y-74940620D01*
X166941253Y-75006392D01*
X166910269Y-75034151D01*
X166906923Y-75035893D01*
X166902793Y-75038994D01*
X166902788Y-75038997D01*
X166751350Y-75152700D01*
X166726637Y-75171255D01*
X166570881Y-75334245D01*
X166567967Y-75338517D01*
X166567966Y-75338518D01*
X166543234Y-75374774D01*
X166443837Y-75520485D01*
X166427979Y-75554649D01*
X166357857Y-75705713D01*
X166348916Y-75724974D01*
X166288668Y-75942220D01*
X166288119Y-75947354D01*
X166288119Y-75947356D01*
X166285667Y-75970302D01*
X166264712Y-76166389D01*
X166265009Y-76171542D01*
X166265009Y-76171545D01*
X166270525Y-76267203D01*
X166277689Y-76391460D01*
X166278826Y-76396506D01*
X166278827Y-76396512D01*
X166296826Y-76476378D01*
X166327253Y-76611390D01*
X166329195Y-76616172D01*
X166329196Y-76616176D01*
X166404468Y-76801549D01*
X166412071Y-76820272D01*
X166529866Y-77012496D01*
X166533250Y-77016402D01*
X166533251Y-77016404D01*
X166560005Y-77047289D01*
X166677474Y-77182899D01*
X166681449Y-77186199D01*
X166681453Y-77186203D01*
X166753005Y-77245607D01*
X166850931Y-77326907D01*
X166906191Y-77359198D01*
X166954914Y-77410837D01*
X166967985Y-77480620D01*
X166941253Y-77546392D01*
X166910269Y-77574151D01*
X166906923Y-77575893D01*
X166902793Y-77578994D01*
X166902788Y-77578997D01*
X166730772Y-77708150D01*
X166726637Y-77711255D01*
X166570881Y-77874245D01*
X166567967Y-77878517D01*
X166567966Y-77878518D01*
X166551112Y-77903225D01*
X166443837Y-78060485D01*
X166416158Y-78120114D01*
X166375937Y-78206763D01*
X166348916Y-78264974D01*
X166288668Y-78482220D01*
X166264712Y-78706389D01*
X166265009Y-78711542D01*
X166265009Y-78711545D01*
X166273670Y-78861761D01*
X166277689Y-78931460D01*
X166278826Y-78936506D01*
X166278827Y-78936512D01*
X166303117Y-79044293D01*
X166327253Y-79151390D01*
X166329195Y-79156172D01*
X166329196Y-79156176D01*
X166410127Y-79355485D01*
X166412071Y-79360272D01*
X166529866Y-79552496D01*
X166533250Y-79556402D01*
X166533251Y-79556404D01*
X166554305Y-79580709D01*
X166677474Y-79722899D01*
X166681449Y-79726199D01*
X166681453Y-79726203D01*
X166713151Y-79752519D01*
X166850931Y-79866907D01*
X166895021Y-79892671D01*
X166906191Y-79899198D01*
X166954914Y-79950837D01*
X166967985Y-80020620D01*
X166941253Y-80086392D01*
X166910269Y-80114151D01*
X166906923Y-80115893D01*
X166902793Y-80118994D01*
X166902788Y-80118997D01*
X166737498Y-80243100D01*
X166726637Y-80251255D01*
X166570881Y-80414245D01*
X166567967Y-80418517D01*
X166567966Y-80418518D01*
X166526156Y-80479809D01*
X166443837Y-80600485D01*
X166348916Y-80804974D01*
X166288668Y-81022220D01*
X166264712Y-81246389D01*
X166265009Y-81251542D01*
X166265009Y-81251545D01*
X166273264Y-81394708D01*
X166277689Y-81471460D01*
X166278826Y-81476506D01*
X166278827Y-81476512D01*
X166295488Y-81550439D01*
X166327253Y-81691390D01*
X166329195Y-81696172D01*
X166329196Y-81696176D01*
X166406126Y-81885631D01*
X166412071Y-81900272D01*
X166529866Y-82092496D01*
X166677474Y-82262899D01*
X166681449Y-82266199D01*
X166681453Y-82266203D01*
X166719978Y-82298187D01*
X166850931Y-82406907D01*
X166906191Y-82439198D01*
X166954914Y-82490837D01*
X166967985Y-82560620D01*
X166941253Y-82626392D01*
X166910269Y-82654151D01*
X166906923Y-82655893D01*
X166902793Y-82658994D01*
X166902788Y-82658997D01*
X166730772Y-82788150D01*
X166726637Y-82791255D01*
X166570881Y-82954245D01*
X166567967Y-82958517D01*
X166567966Y-82958518D01*
X166549926Y-82984964D01*
X166443837Y-83140485D01*
X166429844Y-83170630D01*
X166356287Y-83329095D01*
X166348916Y-83344974D01*
X166288668Y-83562220D01*
X166264712Y-83786389D01*
X166265009Y-83791542D01*
X166265009Y-83791545D01*
X166271219Y-83899251D01*
X166277689Y-84011460D01*
X166278826Y-84016506D01*
X166278827Y-84016512D01*
X166298424Y-84103466D01*
X166327253Y-84231390D01*
X166329195Y-84236172D01*
X166329196Y-84236176D01*
X166369148Y-84334565D01*
X166412071Y-84440272D01*
X166529866Y-84632496D01*
X166677474Y-84802899D01*
X166681449Y-84806199D01*
X166681453Y-84806203D01*
X166729408Y-84846016D01*
X166850931Y-84946907D01*
X166855394Y-84949515D01*
X166855397Y-84949517D01*
X166862309Y-84953556D01*
X166906680Y-84979484D01*
X166955403Y-85031121D01*
X166968474Y-85100904D01*
X166941743Y-85166676D01*
X166910247Y-85194894D01*
X166903054Y-85199423D01*
X166880746Y-85216172D01*
X166872294Y-85227496D01*
X166879039Y-85239829D01*
X167627188Y-85987978D01*
X167641132Y-85995592D01*
X167642965Y-85995461D01*
X167649580Y-85991210D01*
X168402290Y-85238500D01*
X168409310Y-85225645D01*
X168402163Y-85215836D01*
X168396493Y-85212069D01*
X168376022Y-85200768D01*
X168326051Y-85150335D01*
X168311280Y-85080892D01*
X168336397Y-85014487D01*
X168363747Y-84987882D01*
X168523743Y-84873758D01*
X168523748Y-84873754D01*
X168527955Y-84870753D01*
X168687647Y-84711618D01*
X168696315Y-84699556D01*
X168756462Y-84615852D01*
X168819204Y-84528537D01*
X168823689Y-84519463D01*
X168916801Y-84331067D01*
X168916802Y-84331064D01*
X168919093Y-84326429D01*
X168920596Y-84321482D01*
X168920849Y-84320843D01*
X168964525Y-84264870D01*
X169031528Y-84241395D01*
X169100586Y-84257872D01*
X169149774Y-84309069D01*
X169164000Y-84367229D01*
X169164000Y-85822010D01*
X169143998Y-85890131D01*
X169090342Y-85936624D01*
X169020068Y-85946728D01*
X168955488Y-85917234D01*
X168922450Y-85872252D01*
X168854026Y-85714887D01*
X168849159Y-85705812D01*
X168782103Y-85602158D01*
X168771417Y-85592955D01*
X168761852Y-85597358D01*
X168012022Y-86347188D01*
X168004408Y-86361132D01*
X168004539Y-86362965D01*
X168008790Y-86369580D01*
X168759431Y-87120221D01*
X168771442Y-87126780D01*
X168783181Y-87117812D01*
X168815754Y-87072482D01*
X168821068Y-87063637D01*
X168916337Y-86870875D01*
X168920850Y-86859478D01*
X168964526Y-86803505D01*
X169031529Y-86780031D01*
X169100587Y-86796509D01*
X169149774Y-86847706D01*
X169164000Y-86905865D01*
X169164000Y-88362010D01*
X169143998Y-88430131D01*
X169090342Y-88476624D01*
X169020068Y-88486728D01*
X168955488Y-88457234D01*
X168922450Y-88412252D01*
X168854026Y-88254887D01*
X168849159Y-88245812D01*
X168782103Y-88142158D01*
X168771417Y-88132955D01*
X168761852Y-88137358D01*
X167729095Y-89170115D01*
X167666783Y-89204141D01*
X167595968Y-89199076D01*
X167550905Y-89170115D01*
X166520853Y-88140063D01*
X166509317Y-88133764D01*
X166497034Y-88143387D01*
X166447187Y-88216461D01*
X166442098Y-88225419D01*
X166351560Y-88420467D01*
X166348008Y-88430120D01*
X166290541Y-88637341D01*
X166288614Y-88647446D01*
X166265763Y-88861268D01*
X166265511Y-88871557D01*
X166277888Y-89086222D01*
X166279324Y-89096442D01*
X166326596Y-89306197D01*
X166329675Y-89316026D01*
X166399749Y-89488596D01*
X166406845Y-89559237D01*
X166374623Y-89622500D01*
X166313314Y-89658301D01*
X166283006Y-89662000D01*
X160353494Y-89662000D01*
X160285373Y-89641998D01*
X160238880Y-89588342D01*
X160228776Y-89518068D01*
X160244375Y-89473000D01*
X160292423Y-89389779D01*
X160292424Y-89389778D01*
X160295727Y-89384056D01*
X160354742Y-89202428D01*
X160357881Y-89172567D01*
X160374014Y-89019065D01*
X160374704Y-89012500D01*
X160365747Y-88927281D01*
X160355432Y-88829135D01*
X160355432Y-88829133D01*
X160354742Y-88822572D01*
X160295727Y-88640944D01*
X160200240Y-88475556D01*
X160072453Y-88333634D01*
X159973357Y-88261636D01*
X159923294Y-88225263D01*
X159923293Y-88225262D01*
X159917952Y-88221382D01*
X159911924Y-88218698D01*
X159911922Y-88218697D01*
X159749519Y-88146391D01*
X159749518Y-88146391D01*
X159743488Y-88143706D01*
X159650087Y-88123853D01*
X159563144Y-88105372D01*
X159563139Y-88105372D01*
X159556687Y-88104000D01*
X159365713Y-88104000D01*
X159359261Y-88105372D01*
X159359256Y-88105372D01*
X159272313Y-88123853D01*
X159178912Y-88143706D01*
X159172882Y-88146391D01*
X159172881Y-88146391D01*
X159010478Y-88218697D01*
X159010476Y-88218698D01*
X159004448Y-88221382D01*
X158999107Y-88225262D01*
X158999106Y-88225263D01*
X158949043Y-88261636D01*
X158849947Y-88333634D01*
X158722160Y-88475556D01*
X158626673Y-88640944D01*
X158567658Y-88822572D01*
X158566968Y-88829133D01*
X158566968Y-88829135D01*
X158556653Y-88927281D01*
X158547696Y-89012500D01*
X158548386Y-89019065D01*
X158564520Y-89172567D01*
X158567658Y-89202428D01*
X158626673Y-89384056D01*
X158629976Y-89389778D01*
X158629977Y-89389779D01*
X158678025Y-89473000D01*
X158694763Y-89541995D01*
X158671543Y-89609087D01*
X158615736Y-89652974D01*
X158568906Y-89662000D01*
X148675603Y-89662000D01*
X148607482Y-89641998D01*
X148560989Y-89588342D01*
X148550885Y-89518068D01*
X148562645Y-89480175D01*
X148599093Y-89406429D01*
X148664630Y-89190719D01*
X148694057Y-88967203D01*
X148694139Y-88963853D01*
X148695617Y-88903365D01*
X148695617Y-88903361D01*
X148695699Y-88900000D01*
X148688817Y-88816294D01*
X148677650Y-88680464D01*
X148677649Y-88680458D01*
X148677226Y-88675313D01*
X148625818Y-88470648D01*
X148623563Y-88461670D01*
X148623562Y-88461666D01*
X148622304Y-88456659D01*
X148620245Y-88451923D01*
X148534468Y-88254649D01*
X148534466Y-88254646D01*
X148532408Y-88249912D01*
X148409952Y-88060624D01*
X148258224Y-87893877D01*
X148081300Y-87754151D01*
X148056472Y-87740445D01*
X148006503Y-87690015D01*
X147991731Y-87620572D01*
X148016847Y-87554166D01*
X148044198Y-87527560D01*
X148053216Y-87521128D01*
X148112514Y-87478831D01*
X148203743Y-87413758D01*
X148203748Y-87413754D01*
X148207955Y-87410753D01*
X148367647Y-87251618D01*
X148499204Y-87068537D01*
X148599093Y-86866429D01*
X148664630Y-86650719D01*
X148669464Y-86614000D01*
X151232496Y-86614000D01*
X151233186Y-86620565D01*
X151250863Y-86788749D01*
X151252458Y-86803928D01*
X151311473Y-86985556D01*
X151406960Y-87150944D01*
X151534747Y-87292866D01*
X151689248Y-87405118D01*
X151695276Y-87407802D01*
X151695278Y-87407803D01*
X151854811Y-87478831D01*
X151863712Y-87482794D01*
X151957112Y-87502647D01*
X152044056Y-87521128D01*
X152044061Y-87521128D01*
X152050513Y-87522500D01*
X152241487Y-87522500D01*
X152247939Y-87521128D01*
X152247944Y-87521128D01*
X152334888Y-87502647D01*
X152375611Y-87493991D01*
X166870839Y-87493991D01*
X166876121Y-87501046D01*
X166907156Y-87519182D01*
X166955880Y-87570821D01*
X166968951Y-87640604D01*
X166942220Y-87706375D01*
X166910728Y-87734590D01*
X166903060Y-87739419D01*
X166880746Y-87756172D01*
X166872294Y-87767496D01*
X166879039Y-87779829D01*
X167627188Y-88527978D01*
X167641132Y-88535592D01*
X167642965Y-88535461D01*
X167649580Y-88531210D01*
X168402290Y-87778500D01*
X168409310Y-87765645D01*
X168402163Y-87755836D01*
X168396497Y-87752072D01*
X168375536Y-87740500D01*
X168325566Y-87690066D01*
X168310795Y-87620623D01*
X168335913Y-87554218D01*
X168363263Y-87527613D01*
X168398210Y-87502686D01*
X168406610Y-87491987D01*
X168399621Y-87478831D01*
X167652812Y-86732022D01*
X167638868Y-86724408D01*
X167637035Y-86724539D01*
X167630420Y-86728790D01*
X166877599Y-87481611D01*
X166870839Y-87493991D01*
X152375611Y-87493991D01*
X152428288Y-87482794D01*
X152437189Y-87478831D01*
X152596722Y-87407803D01*
X152596724Y-87407802D01*
X152602752Y-87405118D01*
X152757253Y-87292866D01*
X152885040Y-87150944D01*
X152980527Y-86985556D01*
X153039542Y-86803928D01*
X153041138Y-86788749D01*
X153058814Y-86620565D01*
X153059504Y-86614000D01*
X153058814Y-86607435D01*
X153040232Y-86430635D01*
X153040232Y-86430633D01*
X153039542Y-86424072D01*
X152980527Y-86242444D01*
X152885040Y-86077056D01*
X152797061Y-85979346D01*
X152766346Y-85915341D01*
X152775110Y-85844888D01*
X152820572Y-85790356D01*
X152888300Y-85769061D01*
X152916895Y-85771791D01*
X153000279Y-85789514D01*
X153017779Y-85793234D01*
X153208753Y-85793234D01*
X153215205Y-85791862D01*
X153215210Y-85791862D01*
X153322477Y-85769061D01*
X153395554Y-85753528D01*
X153414246Y-85745206D01*
X153563988Y-85678537D01*
X153563990Y-85678536D01*
X153570018Y-85675852D01*
X153724519Y-85563600D01*
X153783119Y-85498518D01*
X153847887Y-85426586D01*
X153847891Y-85426581D01*
X153852306Y-85421678D01*
X153947793Y-85256290D01*
X154006808Y-85074662D01*
X154011798Y-85027190D01*
X154026080Y-84891299D01*
X154026770Y-84884734D01*
X154014224Y-84765365D01*
X154007498Y-84701369D01*
X154007498Y-84701367D01*
X154006808Y-84694806D01*
X153947793Y-84513178D01*
X153925278Y-84474180D01*
X153877872Y-84392072D01*
X153852306Y-84347790D01*
X153833073Y-84326429D01*
X153728941Y-84210779D01*
X153728940Y-84210778D01*
X153724519Y-84205868D01*
X153593558Y-84110719D01*
X153575360Y-84097497D01*
X153575359Y-84097496D01*
X153570018Y-84093616D01*
X153563990Y-84090932D01*
X153563988Y-84090931D01*
X153401585Y-84018625D01*
X153401584Y-84018625D01*
X153395554Y-84015940D01*
X153302154Y-83996087D01*
X153215210Y-83977606D01*
X153215205Y-83977606D01*
X153208753Y-83976234D01*
X153017779Y-83976234D01*
X153011327Y-83977606D01*
X153011322Y-83977606D01*
X152924378Y-83996087D01*
X152830978Y-84015940D01*
X152824948Y-84018625D01*
X152824947Y-84018625D01*
X152662544Y-84090931D01*
X152662542Y-84090932D01*
X152656514Y-84093616D01*
X152651173Y-84097496D01*
X152651172Y-84097497D01*
X152632974Y-84110719D01*
X152502013Y-84205868D01*
X152497592Y-84210778D01*
X152497591Y-84210779D01*
X152393460Y-84326429D01*
X152374226Y-84347790D01*
X152348660Y-84392072D01*
X152301255Y-84474180D01*
X152278739Y-84513178D01*
X152219724Y-84694806D01*
X152219034Y-84701367D01*
X152219034Y-84701369D01*
X152212308Y-84765365D01*
X152199762Y-84884734D01*
X152200452Y-84891299D01*
X152214735Y-85027190D01*
X152219724Y-85074662D01*
X152278739Y-85256290D01*
X152374226Y-85421678D01*
X152462205Y-85519388D01*
X152492920Y-85583393D01*
X152484156Y-85653846D01*
X152438694Y-85708378D01*
X152370966Y-85729673D01*
X152342371Y-85726943D01*
X152247946Y-85706873D01*
X152247947Y-85706873D01*
X152241487Y-85705500D01*
X152050513Y-85705500D01*
X152044061Y-85706872D01*
X152044056Y-85706872D01*
X151957113Y-85725353D01*
X151863712Y-85745206D01*
X151857682Y-85747891D01*
X151857681Y-85747891D01*
X151695278Y-85820197D01*
X151695276Y-85820198D01*
X151689248Y-85822882D01*
X151534747Y-85935134D01*
X151406960Y-86077056D01*
X151311473Y-86242444D01*
X151252458Y-86424072D01*
X151251768Y-86430633D01*
X151251768Y-86430635D01*
X151233186Y-86607435D01*
X151232496Y-86614000D01*
X148669464Y-86614000D01*
X148694057Y-86427203D01*
X148695699Y-86360000D01*
X148686034Y-86242444D01*
X148677650Y-86140464D01*
X148677649Y-86140458D01*
X148677226Y-86135313D01*
X148626945Y-85935134D01*
X148623563Y-85921670D01*
X148623562Y-85921666D01*
X148622304Y-85916659D01*
X148619319Y-85909794D01*
X148534468Y-85714649D01*
X148534466Y-85714646D01*
X148532408Y-85709912D01*
X148441284Y-85569056D01*
X148412760Y-85524964D01*
X148412758Y-85524961D01*
X148409952Y-85520624D01*
X148258224Y-85353877D01*
X148081300Y-85214151D01*
X148056472Y-85200445D01*
X148006503Y-85150015D01*
X147991731Y-85080572D01*
X148016847Y-85014166D01*
X148044198Y-84987560D01*
X148053216Y-84981128D01*
X148179151Y-84891299D01*
X148203743Y-84873758D01*
X148203748Y-84873754D01*
X148207955Y-84870753D01*
X148367647Y-84711618D01*
X148376315Y-84699556D01*
X148436462Y-84615852D01*
X148460787Y-84582000D01*
X149087996Y-84582000D01*
X149088686Y-84588565D01*
X149106363Y-84756749D01*
X149107958Y-84771928D01*
X149166973Y-84953556D01*
X149262460Y-85118944D01*
X149266878Y-85123851D01*
X149266879Y-85123852D01*
X149371202Y-85239714D01*
X149390247Y-85260866D01*
X149405383Y-85271863D01*
X149523522Y-85357696D01*
X149544748Y-85373118D01*
X149550776Y-85375802D01*
X149550778Y-85375803D01*
X149713181Y-85448109D01*
X149719212Y-85450794D01*
X149812612Y-85470647D01*
X149899556Y-85489128D01*
X149899561Y-85489128D01*
X149906013Y-85490500D01*
X150096987Y-85490500D01*
X150103439Y-85489128D01*
X150103444Y-85489128D01*
X150190388Y-85470647D01*
X150283788Y-85450794D01*
X150289819Y-85448109D01*
X150452222Y-85375803D01*
X150452224Y-85375802D01*
X150458252Y-85373118D01*
X150479479Y-85357696D01*
X150597617Y-85271863D01*
X150612753Y-85260866D01*
X150631798Y-85239714D01*
X150736121Y-85123852D01*
X150736122Y-85123851D01*
X150740540Y-85118944D01*
X150836027Y-84953556D01*
X150895042Y-84771928D01*
X150896638Y-84756749D01*
X150914314Y-84588565D01*
X150915004Y-84582000D01*
X150905052Y-84487310D01*
X150895732Y-84398635D01*
X150895732Y-84398633D01*
X150895042Y-84392072D01*
X150836027Y-84210444D01*
X150740540Y-84045056D01*
X150716742Y-84018625D01*
X150617175Y-83908045D01*
X150617174Y-83908044D01*
X150612753Y-83903134D01*
X150493713Y-83816646D01*
X150463594Y-83794763D01*
X150463593Y-83794762D01*
X150458252Y-83790882D01*
X150452224Y-83788198D01*
X150452222Y-83788197D01*
X150289819Y-83715891D01*
X150289818Y-83715891D01*
X150283788Y-83713206D01*
X150190388Y-83693353D01*
X150103444Y-83674872D01*
X150103439Y-83674872D01*
X150096987Y-83673500D01*
X149906013Y-83673500D01*
X149899561Y-83674872D01*
X149899556Y-83674872D01*
X149812613Y-83693353D01*
X149719212Y-83713206D01*
X149713182Y-83715891D01*
X149713181Y-83715891D01*
X149550778Y-83788197D01*
X149550776Y-83788198D01*
X149544748Y-83790882D01*
X149539407Y-83794762D01*
X149539406Y-83794763D01*
X149509287Y-83816646D01*
X149390247Y-83903134D01*
X149385826Y-83908044D01*
X149385825Y-83908045D01*
X149286259Y-84018625D01*
X149262460Y-84045056D01*
X149166973Y-84210444D01*
X149107958Y-84392072D01*
X149107268Y-84398633D01*
X149107268Y-84398635D01*
X149097948Y-84487310D01*
X149087996Y-84582000D01*
X148460787Y-84582000D01*
X148499204Y-84528537D01*
X148504448Y-84517928D01*
X148584307Y-84356345D01*
X148599093Y-84326429D01*
X148664630Y-84110719D01*
X148694057Y-83887203D01*
X148695699Y-83820000D01*
X148677226Y-83595313D01*
X148640024Y-83447207D01*
X148642828Y-83376266D01*
X148673133Y-83327416D01*
X149672034Y-82328515D01*
X149684425Y-82317648D01*
X149703237Y-82303213D01*
X149709787Y-82298187D01*
X149734274Y-82266275D01*
X149734278Y-82266271D01*
X149807324Y-82171076D01*
X149868638Y-82023051D01*
X149870672Y-82007605D01*
X149879896Y-81937536D01*
X149884300Y-81904085D01*
X149884300Y-81904080D01*
X149888472Y-81872389D01*
X149889550Y-81864200D01*
X149885378Y-81832507D01*
X149884300Y-81816064D01*
X149884300Y-80257690D01*
X149904302Y-80189569D01*
X149916664Y-80173380D01*
X150010421Y-80069252D01*
X150010422Y-80069251D01*
X150014840Y-80064344D01*
X150080373Y-79950837D01*
X150107023Y-79904679D01*
X150107024Y-79904678D01*
X150110327Y-79898956D01*
X150169342Y-79717328D01*
X150176505Y-79649181D01*
X150188614Y-79533965D01*
X150189304Y-79527400D01*
X150185128Y-79487670D01*
X150197900Y-79417833D01*
X150246401Y-79365986D01*
X150310438Y-79348500D01*
X150702723Y-79348500D01*
X150770844Y-79368502D01*
X150817337Y-79422158D01*
X150828723Y-79474500D01*
X150828723Y-82605887D01*
X150827645Y-82622330D01*
X150823473Y-82654023D01*
X150828723Y-82693903D01*
X150828723Y-82693908D01*
X150834098Y-82734736D01*
X150844385Y-82812874D01*
X150905699Y-82960899D01*
X150910726Y-82967450D01*
X150910727Y-82967452D01*
X150978743Y-83056092D01*
X150978749Y-83056098D01*
X151003236Y-83088010D01*
X151009791Y-83093040D01*
X151028602Y-83107475D01*
X151040993Y-83118342D01*
X151145317Y-83222666D01*
X151156184Y-83235057D01*
X151175645Y-83260419D01*
X151182195Y-83265445D01*
X151207557Y-83284906D01*
X151207560Y-83284909D01*
X151292333Y-83349958D01*
X151302756Y-83357956D01*
X151450781Y-83419270D01*
X151458968Y-83420348D01*
X151458969Y-83420348D01*
X151461803Y-83420721D01*
X151569744Y-83434932D01*
X151569756Y-83434933D01*
X151601442Y-83439104D01*
X151601443Y-83439104D01*
X151609632Y-83440182D01*
X151641325Y-83436010D01*
X151657768Y-83434932D01*
X154760734Y-83434932D01*
X154777177Y-83436010D01*
X154808870Y-83440182D01*
X154811082Y-83439891D01*
X154876524Y-83459106D01*
X154923017Y-83512762D01*
X154933121Y-83583036D01*
X154903627Y-83647616D01*
X154859651Y-83680211D01*
X154844536Y-83686940D01*
X154844529Y-83686944D01*
X154838503Y-83689627D01*
X154684002Y-83801879D01*
X154679581Y-83806789D01*
X154679580Y-83806790D01*
X154607551Y-83886787D01*
X154556215Y-83943801D01*
X154460728Y-84109189D01*
X154401713Y-84290817D01*
X154401023Y-84297378D01*
X154401023Y-84297380D01*
X154397482Y-84331070D01*
X154381751Y-84480745D01*
X154382441Y-84487310D01*
X154386287Y-84523898D01*
X154401713Y-84670673D01*
X154460728Y-84852301D01*
X154464031Y-84858023D01*
X154464032Y-84858024D01*
X154497941Y-84916755D01*
X154556215Y-85017689D01*
X154560633Y-85022596D01*
X154560634Y-85022597D01*
X154651804Y-85123852D01*
X154684002Y-85159611D01*
X154740208Y-85200447D01*
X154824946Y-85262013D01*
X154838503Y-85271863D01*
X154844531Y-85274547D01*
X154844533Y-85274548D01*
X154964926Y-85328150D01*
X155012967Y-85349539D01*
X155105638Y-85369237D01*
X155193311Y-85387873D01*
X155193316Y-85387873D01*
X155199768Y-85389245D01*
X155390742Y-85389245D01*
X155397194Y-85387873D01*
X155397199Y-85387873D01*
X155484872Y-85369237D01*
X155577543Y-85349539D01*
X155625584Y-85328150D01*
X155745977Y-85274548D01*
X155745979Y-85274547D01*
X155752007Y-85271863D01*
X155765565Y-85262013D01*
X155850302Y-85200447D01*
X155906508Y-85159611D01*
X155938706Y-85123852D01*
X156029876Y-85022597D01*
X156029877Y-85022596D01*
X156034295Y-85017689D01*
X156092569Y-84916755D01*
X156126478Y-84858024D01*
X156126479Y-84858023D01*
X156129782Y-84852301D01*
X156188797Y-84670673D01*
X156204224Y-84523898D01*
X156208069Y-84487310D01*
X156208759Y-84480745D01*
X156193028Y-84331070D01*
X156189487Y-84297380D01*
X156189487Y-84297378D01*
X156188797Y-84290817D01*
X156129782Y-84109189D01*
X156034295Y-83943801D01*
X155982960Y-83886787D01*
X155910930Y-83806790D01*
X155910929Y-83806789D01*
X155906508Y-83801879D01*
X155752007Y-83689627D01*
X155745979Y-83686943D01*
X155745977Y-83686942D01*
X155583574Y-83614636D01*
X155583573Y-83614636D01*
X155577543Y-83611951D01*
X155484142Y-83592098D01*
X155397199Y-83573617D01*
X155397194Y-83573617D01*
X155390742Y-83572245D01*
X155207662Y-83572245D01*
X155139541Y-83552243D01*
X155093048Y-83498587D01*
X155082944Y-83428313D01*
X155112438Y-83363733D01*
X155130958Y-83346283D01*
X155138778Y-83340283D01*
X155210942Y-83284909D01*
X155210945Y-83284906D01*
X155242857Y-83260419D01*
X155247887Y-83253864D01*
X155262322Y-83235053D01*
X155273189Y-83222662D01*
X155286944Y-83208907D01*
X155349256Y-83174881D01*
X155376039Y-83172002D01*
X155467287Y-83172002D01*
X155473739Y-83170630D01*
X155473744Y-83170630D01*
X155593464Y-83145182D01*
X155654088Y-83132296D01*
X155660119Y-83129611D01*
X155822522Y-83057305D01*
X155822524Y-83057304D01*
X155828552Y-83054620D01*
X155983053Y-82942368D01*
X156110840Y-82800446D01*
X156206327Y-82635058D01*
X156265342Y-82453430D01*
X156278620Y-82327102D01*
X156284614Y-82270067D01*
X156285304Y-82263502D01*
X156284614Y-82256937D01*
X156266032Y-82080137D01*
X156266032Y-82080135D01*
X156265342Y-82073574D01*
X156206327Y-81891946D01*
X156185581Y-81856012D01*
X156148084Y-81791067D01*
X156110840Y-81726558D01*
X155983053Y-81584636D01*
X155828552Y-81472384D01*
X155822524Y-81469700D01*
X155822522Y-81469699D01*
X155660119Y-81397393D01*
X155660118Y-81397393D01*
X155654088Y-81394708D01*
X155560687Y-81374855D01*
X155473744Y-81356374D01*
X155473739Y-81356374D01*
X155467287Y-81355002D01*
X155276313Y-81355002D01*
X155269861Y-81356374D01*
X155269856Y-81356374D01*
X155182913Y-81374855D01*
X155089512Y-81394708D01*
X155083482Y-81397393D01*
X155083481Y-81397393D01*
X154921078Y-81469699D01*
X154921076Y-81469700D01*
X154915048Y-81472384D01*
X154760547Y-81584636D01*
X154632760Y-81726558D01*
X154595516Y-81791067D01*
X154558020Y-81856012D01*
X154537273Y-81891946D01*
X154478258Y-82073574D01*
X154477569Y-82080133D01*
X154477568Y-82080136D01*
X154474944Y-82105104D01*
X154447930Y-82170760D01*
X154389708Y-82211389D01*
X154349634Y-82217932D01*
X153267708Y-82217932D01*
X153199587Y-82197930D01*
X153153094Y-82144274D01*
X153142990Y-82074000D01*
X153170776Y-82013160D01*
X153170232Y-82012742D01*
X153194719Y-81980830D01*
X153194723Y-81980826D01*
X153267769Y-81885631D01*
X153329083Y-81737606D01*
X153333329Y-81705350D01*
X153344745Y-81618640D01*
X153344745Y-81618635D01*
X153349995Y-81578755D01*
X153345823Y-81547062D01*
X153344745Y-81530619D01*
X153344745Y-79590186D01*
X153364747Y-79522065D01*
X153418403Y-79475572D01*
X153488677Y-79465468D01*
X153544807Y-79488251D01*
X153568848Y-79505718D01*
X153574876Y-79508402D01*
X153574878Y-79508403D01*
X153737281Y-79580709D01*
X153743312Y-79583394D01*
X153836712Y-79603247D01*
X153923656Y-79621728D01*
X153923661Y-79621728D01*
X153930113Y-79623100D01*
X154121087Y-79623100D01*
X154127539Y-79621728D01*
X154127544Y-79621728D01*
X154214488Y-79603247D01*
X154307888Y-79583394D01*
X154313919Y-79580709D01*
X154476322Y-79508403D01*
X154476324Y-79508402D01*
X154482352Y-79505718D01*
X154507192Y-79487671D01*
X154555275Y-79452736D01*
X154636853Y-79393466D01*
X154671051Y-79355485D01*
X154760221Y-79256452D01*
X154760222Y-79256451D01*
X154764640Y-79251544D01*
X154860127Y-79086156D01*
X154864647Y-79072245D01*
X154904721Y-79013639D01*
X154970117Y-78986002D01*
X155040074Y-78998109D01*
X155092380Y-79046115D01*
X155110480Y-79111181D01*
X155110480Y-79649181D01*
X155109402Y-79665624D01*
X155105230Y-79697317D01*
X155110480Y-79737197D01*
X155110480Y-79737202D01*
X155116789Y-79785118D01*
X155121412Y-79820236D01*
X155121412Y-79820238D01*
X155123900Y-79839134D01*
X155126142Y-79856168D01*
X155187456Y-80004193D01*
X155192483Y-80010744D01*
X155192484Y-80010746D01*
X155260500Y-80099386D01*
X155260506Y-80099392D01*
X155284993Y-80131304D01*
X155291548Y-80136334D01*
X155310359Y-80150769D01*
X155322750Y-80161636D01*
X158420521Y-83259407D01*
X158454547Y-83321719D01*
X158449482Y-83392534D01*
X158406935Y-83449370D01*
X158340415Y-83474181D01*
X158280176Y-83463608D01*
X158276323Y-83461892D01*
X158276315Y-83461889D01*
X158270288Y-83459206D01*
X158161160Y-83436010D01*
X158089944Y-83420872D01*
X158089939Y-83420872D01*
X158083487Y-83419500D01*
X157892513Y-83419500D01*
X157886061Y-83420872D01*
X157886056Y-83420872D01*
X157814840Y-83436010D01*
X157705712Y-83459206D01*
X157699682Y-83461891D01*
X157699681Y-83461891D01*
X157537278Y-83534197D01*
X157537276Y-83534198D01*
X157531248Y-83536882D01*
X157376747Y-83649134D01*
X157372326Y-83654044D01*
X157372325Y-83654045D01*
X157328747Y-83702444D01*
X157248960Y-83791056D01*
X157153473Y-83956444D01*
X157094458Y-84138072D01*
X157093768Y-84144633D01*
X157093768Y-84144635D01*
X157087453Y-84204721D01*
X157074496Y-84328000D01*
X157075186Y-84334565D01*
X157090748Y-84482625D01*
X157094458Y-84517928D01*
X157153473Y-84699556D01*
X157248960Y-84864944D01*
X157253378Y-84869851D01*
X157253379Y-84869852D01*
X157372325Y-85001955D01*
X157376747Y-85006866D01*
X157531248Y-85119118D01*
X157537276Y-85121802D01*
X157537278Y-85121803D01*
X157682070Y-85186268D01*
X157705712Y-85196794D01*
X157777575Y-85212069D01*
X157886056Y-85235128D01*
X157886061Y-85235128D01*
X157892513Y-85236500D01*
X158083487Y-85236500D01*
X158089939Y-85235128D01*
X158089944Y-85235128D01*
X158198425Y-85212069D01*
X158270288Y-85196794D01*
X158276320Y-85194108D01*
X158282600Y-85192068D01*
X158283321Y-85194286D01*
X158343097Y-85186268D01*
X158407396Y-85216370D01*
X158445213Y-85276456D01*
X158444542Y-85347450D01*
X158405595Y-85406810D01*
X158398049Y-85412745D01*
X158383591Y-85423249D01*
X158383589Y-85423251D01*
X158378245Y-85427134D01*
X158373824Y-85432044D01*
X158373823Y-85432045D01*
X158255371Y-85563600D01*
X158250458Y-85569056D01*
X158247157Y-85574774D01*
X158169135Y-85709912D01*
X158154971Y-85734444D01*
X158095956Y-85916072D01*
X158095266Y-85922633D01*
X158095266Y-85922635D01*
X158093796Y-85936624D01*
X158075994Y-86106000D01*
X158095956Y-86295928D01*
X158154971Y-86477556D01*
X158250458Y-86642944D01*
X158254876Y-86647851D01*
X158254877Y-86647852D01*
X158370285Y-86776026D01*
X158378245Y-86784866D01*
X158532746Y-86897118D01*
X158538774Y-86899802D01*
X158538776Y-86899803D01*
X158552392Y-86905865D01*
X158707210Y-86974794D01*
X158800610Y-86994647D01*
X158887554Y-87013128D01*
X158887559Y-87013128D01*
X158894011Y-87014500D01*
X159084985Y-87014500D01*
X159091437Y-87013128D01*
X159091442Y-87013128D01*
X159178386Y-86994647D01*
X159271786Y-86974794D01*
X159426604Y-86905865D01*
X159440220Y-86899803D01*
X159440222Y-86899802D01*
X159446250Y-86897118D01*
X159600751Y-86784866D01*
X159608711Y-86776026D01*
X159724119Y-86647852D01*
X159724120Y-86647851D01*
X159728538Y-86642944D01*
X159824025Y-86477556D01*
X159871463Y-86331557D01*
X166265511Y-86331557D01*
X166277888Y-86546222D01*
X166279324Y-86556442D01*
X166326596Y-86766197D01*
X166329675Y-86776026D01*
X166410575Y-86975258D01*
X166415218Y-86984449D01*
X166497370Y-87118510D01*
X166507826Y-87127970D01*
X166516604Y-87124186D01*
X167267978Y-86372812D01*
X167275592Y-86358868D01*
X167275461Y-86357035D01*
X167271210Y-86350420D01*
X166520853Y-85600063D01*
X166509317Y-85593764D01*
X166497034Y-85603387D01*
X166447187Y-85676461D01*
X166442098Y-85685419D01*
X166351560Y-85880467D01*
X166348008Y-85890120D01*
X166290541Y-86097341D01*
X166288614Y-86107446D01*
X166265763Y-86321268D01*
X166265511Y-86331557D01*
X159871463Y-86331557D01*
X159883040Y-86295928D01*
X159903002Y-86106000D01*
X159885200Y-85936624D01*
X159883730Y-85922635D01*
X159883730Y-85922633D01*
X159883040Y-85916072D01*
X159824025Y-85734444D01*
X159809862Y-85709912D01*
X159731839Y-85574774D01*
X159728538Y-85569056D01*
X159723626Y-85563600D01*
X159605173Y-85432045D01*
X159605172Y-85432044D01*
X159600751Y-85427134D01*
X159473930Y-85334993D01*
X159451592Y-85318763D01*
X159451591Y-85318762D01*
X159446250Y-85314882D01*
X159440222Y-85312198D01*
X159440220Y-85312197D01*
X159277817Y-85239891D01*
X159277816Y-85239891D01*
X159271786Y-85237206D01*
X159173761Y-85216370D01*
X159091442Y-85198872D01*
X159091437Y-85198872D01*
X159084985Y-85197500D01*
X158894011Y-85197500D01*
X158887559Y-85198872D01*
X158887554Y-85198872D01*
X158805235Y-85216370D01*
X158707210Y-85237206D01*
X158701178Y-85239892D01*
X158694898Y-85241932D01*
X158694177Y-85239714D01*
X158634401Y-85247732D01*
X158570102Y-85217630D01*
X158532285Y-85157544D01*
X158532956Y-85086550D01*
X158571903Y-85027190D01*
X158579449Y-85021255D01*
X158593907Y-85010751D01*
X158593912Y-85010746D01*
X158599253Y-85006866D01*
X158603675Y-85001955D01*
X158722621Y-84869852D01*
X158722622Y-84869851D01*
X158727040Y-84864944D01*
X158822527Y-84699556D01*
X158881542Y-84517928D01*
X158885253Y-84482625D01*
X158900814Y-84334565D01*
X158901504Y-84328000D01*
X158888547Y-84204721D01*
X158882232Y-84144635D01*
X158882232Y-84144633D01*
X158881542Y-84138072D01*
X158842707Y-84018551D01*
X158840679Y-83947585D01*
X158877342Y-83886787D01*
X158941054Y-83855462D01*
X159011588Y-83863554D01*
X159051635Y-83890521D01*
X159631348Y-84470234D01*
X159642215Y-84482625D01*
X159661676Y-84507987D01*
X159693588Y-84532474D01*
X159693591Y-84532477D01*
X159739844Y-84567968D01*
X159788788Y-84605524D01*
X159936813Y-84666838D01*
X160055778Y-84682500D01*
X160055783Y-84682500D01*
X160055792Y-84682501D01*
X160087475Y-84686672D01*
X160095663Y-84687750D01*
X160127356Y-84683578D01*
X160143799Y-84682500D01*
X161067290Y-84682500D01*
X161135411Y-84702502D01*
X161160926Y-84724189D01*
X161186747Y-84752866D01*
X161341248Y-84865118D01*
X161347276Y-84867802D01*
X161347278Y-84867803D01*
X161509681Y-84940109D01*
X161515712Y-84942794D01*
X161609112Y-84962647D01*
X161696056Y-84981128D01*
X161696061Y-84981128D01*
X161702513Y-84982500D01*
X161893487Y-84982500D01*
X161899939Y-84981128D01*
X161899944Y-84981128D01*
X161986888Y-84962647D01*
X162080288Y-84942794D01*
X162086319Y-84940109D01*
X162248722Y-84867803D01*
X162248724Y-84867802D01*
X162254752Y-84865118D01*
X162409253Y-84752866D01*
X162450172Y-84707421D01*
X162532621Y-84615852D01*
X162532622Y-84615851D01*
X162537040Y-84610944D01*
X162632527Y-84445556D01*
X162691542Y-84263928D01*
X162698053Y-84201985D01*
X162710814Y-84080565D01*
X162711504Y-84074000D01*
X162698421Y-83949519D01*
X162692232Y-83890635D01*
X162692232Y-83890633D01*
X162691542Y-83884072D01*
X162632527Y-83702444D01*
X162537040Y-83537056D01*
X162502403Y-83498587D01*
X162413675Y-83400045D01*
X162413674Y-83400044D01*
X162409253Y-83395134D01*
X162254752Y-83282882D01*
X162248724Y-83280198D01*
X162248722Y-83280197D01*
X162086319Y-83207891D01*
X162086318Y-83207891D01*
X162080288Y-83205206D01*
X161986888Y-83185353D01*
X161899944Y-83166872D01*
X161899939Y-83166872D01*
X161893487Y-83165500D01*
X161702513Y-83165500D01*
X161696061Y-83166872D01*
X161696056Y-83166872D01*
X161609113Y-83185353D01*
X161515712Y-83205206D01*
X161509682Y-83207891D01*
X161509681Y-83207891D01*
X161347278Y-83280197D01*
X161347276Y-83280198D01*
X161341248Y-83282882D01*
X161335907Y-83286762D01*
X161335906Y-83286763D01*
X161275022Y-83330998D01*
X161186747Y-83395134D01*
X161182334Y-83400036D01*
X161182332Y-83400037D01*
X161160926Y-83423811D01*
X161100480Y-83461050D01*
X161067290Y-83465500D01*
X160399902Y-83465500D01*
X160331781Y-83445498D01*
X160310807Y-83428595D01*
X157400212Y-80518000D01*
X163678496Y-80518000D01*
X163698458Y-80707928D01*
X163757473Y-80889556D01*
X163852960Y-81054944D01*
X163980747Y-81196866D01*
X164135248Y-81309118D01*
X164141276Y-81311802D01*
X164141278Y-81311803D01*
X164241387Y-81356374D01*
X164309712Y-81386794D01*
X164403112Y-81406647D01*
X164490056Y-81425128D01*
X164490061Y-81425128D01*
X164496513Y-81426500D01*
X164687487Y-81426500D01*
X164693939Y-81425128D01*
X164693944Y-81425128D01*
X164780888Y-81406647D01*
X164874288Y-81386794D01*
X164942613Y-81356374D01*
X165042722Y-81311803D01*
X165042724Y-81311802D01*
X165048752Y-81309118D01*
X165203253Y-81196866D01*
X165331040Y-81054944D01*
X165426527Y-80889556D01*
X165485542Y-80707928D01*
X165505504Y-80518000D01*
X165485542Y-80328072D01*
X165426527Y-80146444D01*
X165410681Y-80118997D01*
X165353882Y-80020620D01*
X165331040Y-79981056D01*
X165276541Y-79920528D01*
X165207675Y-79844045D01*
X165207674Y-79844044D01*
X165203253Y-79839134D01*
X165062955Y-79737201D01*
X165054094Y-79730763D01*
X165054093Y-79730762D01*
X165048752Y-79726882D01*
X165042724Y-79724198D01*
X165042722Y-79724197D01*
X164880319Y-79651891D01*
X164880318Y-79651891D01*
X164874288Y-79649206D01*
X164751470Y-79623100D01*
X164693944Y-79610872D01*
X164693939Y-79610872D01*
X164687487Y-79609500D01*
X164496513Y-79609500D01*
X164490061Y-79610872D01*
X164490056Y-79610872D01*
X164432530Y-79623100D01*
X164309712Y-79649206D01*
X164303682Y-79651891D01*
X164303681Y-79651891D01*
X164141278Y-79724197D01*
X164141276Y-79724198D01*
X164135248Y-79726882D01*
X164129907Y-79730762D01*
X164129906Y-79730763D01*
X164121045Y-79737201D01*
X163980747Y-79839134D01*
X163976326Y-79844044D01*
X163976325Y-79844045D01*
X163907460Y-79920528D01*
X163852960Y-79981056D01*
X163830118Y-80020620D01*
X163773320Y-80118997D01*
X163757473Y-80146444D01*
X163698458Y-80328072D01*
X163678496Y-80518000D01*
X157400212Y-80518000D01*
X157371167Y-80488955D01*
X157337141Y-80426643D01*
X157342206Y-80355828D01*
X157366624Y-80315553D01*
X157409851Y-80267544D01*
X157479768Y-80146444D01*
X157502034Y-80107879D01*
X157502035Y-80107878D01*
X157505338Y-80102156D01*
X157564353Y-79920528D01*
X157565473Y-79909878D01*
X157583625Y-79737165D01*
X157584315Y-79730600D01*
X157576625Y-79657437D01*
X157565043Y-79547235D01*
X157565043Y-79547233D01*
X157564353Y-79540672D01*
X157505338Y-79359044D01*
X157499251Y-79348500D01*
X157478096Y-79311859D01*
X157450311Y-79263734D01*
X157433573Y-79194740D01*
X157456793Y-79127648D01*
X157508183Y-79085628D01*
X157528449Y-79076605D01*
X157528450Y-79076605D01*
X157534484Y-79073918D01*
X157539826Y-79070037D01*
X157652671Y-78988050D01*
X157719539Y-78964191D01*
X157788690Y-78980272D01*
X157838171Y-79031186D01*
X157852270Y-79100768D01*
X157846565Y-79128922D01*
X157828992Y-79183006D01*
X157828302Y-79189567D01*
X157828302Y-79189569D01*
X157820507Y-79263735D01*
X157809030Y-79372934D01*
X157809720Y-79379499D01*
X157827903Y-79552496D01*
X157828992Y-79562862D01*
X157888007Y-79744490D01*
X157891310Y-79750212D01*
X157891311Y-79750213D01*
X157895638Y-79757707D01*
X157983494Y-79909878D01*
X157987912Y-79914785D01*
X157987913Y-79914786D01*
X158106859Y-80046889D01*
X158111281Y-80051800D01*
X158199497Y-80115893D01*
X158247500Y-80150769D01*
X158265782Y-80164052D01*
X158271810Y-80166736D01*
X158271812Y-80166737D01*
X158430496Y-80237387D01*
X158440246Y-80241728D01*
X158502653Y-80254993D01*
X158620590Y-80280062D01*
X158620595Y-80280062D01*
X158627047Y-80281434D01*
X158818021Y-80281434D01*
X158824473Y-80280062D01*
X158824478Y-80280062D01*
X158942415Y-80254993D01*
X159004822Y-80241728D01*
X159014572Y-80237387D01*
X159173256Y-80166737D01*
X159173258Y-80166736D01*
X159179286Y-80164052D01*
X159197569Y-80150769D01*
X159245571Y-80115893D01*
X159333787Y-80051800D01*
X159338209Y-80046889D01*
X159457155Y-79914786D01*
X159457156Y-79914785D01*
X159461574Y-79909878D01*
X159549430Y-79757707D01*
X159553757Y-79750213D01*
X159553758Y-79750212D01*
X159557061Y-79744490D01*
X159616076Y-79562862D01*
X159617166Y-79552496D01*
X159635348Y-79379499D01*
X159636038Y-79372934D01*
X159624561Y-79263735D01*
X159616766Y-79189569D01*
X159616766Y-79189567D01*
X159616076Y-79183006D01*
X159557061Y-79001378D01*
X159516287Y-78930755D01*
X159499549Y-78861761D01*
X159516288Y-78804754D01*
X159520307Y-78797794D01*
X159541209Y-78761591D01*
X159592592Y-78712599D01*
X159624130Y-78701346D01*
X159710056Y-78683082D01*
X159780847Y-78688484D01*
X159829890Y-78722019D01*
X159840547Y-78733855D01*
X159845889Y-78737736D01*
X159845891Y-78737738D01*
X159989706Y-78842226D01*
X159995048Y-78846107D01*
X160001076Y-78848791D01*
X160001078Y-78848792D01*
X160126264Y-78904528D01*
X160169512Y-78923783D01*
X160262913Y-78943636D01*
X160349856Y-78962117D01*
X160349861Y-78962117D01*
X160356313Y-78963489D01*
X160547287Y-78963489D01*
X160553739Y-78962117D01*
X160553744Y-78962117D01*
X160640687Y-78943636D01*
X160734088Y-78923783D01*
X160777336Y-78904528D01*
X160902522Y-78848792D01*
X160902524Y-78848791D01*
X160908552Y-78846107D01*
X160944838Y-78819744D01*
X160945384Y-78819347D01*
X161012252Y-78795488D01*
X161081403Y-78811569D01*
X161130884Y-78862483D01*
X161144755Y-78934452D01*
X161138496Y-78994000D01*
X161158458Y-79183928D01*
X161217473Y-79365556D01*
X161220776Y-79371278D01*
X161220777Y-79371279D01*
X161233587Y-79393466D01*
X161312960Y-79530944D01*
X161317378Y-79535851D01*
X161317379Y-79535852D01*
X161399828Y-79627421D01*
X161440747Y-79672866D01*
X161511175Y-79724035D01*
X161550380Y-79752519D01*
X161595248Y-79785118D01*
X161601276Y-79787802D01*
X161601278Y-79787803D01*
X161763681Y-79860109D01*
X161769712Y-79862794D01*
X161863113Y-79882647D01*
X161950056Y-79901128D01*
X161950061Y-79901128D01*
X161956513Y-79902500D01*
X162147487Y-79902500D01*
X162153939Y-79901128D01*
X162153944Y-79901128D01*
X162240887Y-79882647D01*
X162334288Y-79862794D01*
X162340319Y-79860109D01*
X162502722Y-79787803D01*
X162502724Y-79787802D01*
X162508752Y-79785118D01*
X162553621Y-79752519D01*
X162592825Y-79724035D01*
X162663253Y-79672866D01*
X162704172Y-79627421D01*
X162786621Y-79535852D01*
X162786622Y-79535851D01*
X162791040Y-79530944D01*
X162870413Y-79393466D01*
X162883223Y-79371279D01*
X162883224Y-79371278D01*
X162886527Y-79365556D01*
X162945542Y-79183928D01*
X162965504Y-78994000D01*
X162956100Y-78904528D01*
X162946232Y-78810635D01*
X162946232Y-78810633D01*
X162945542Y-78804072D01*
X162886527Y-78622444D01*
X162791040Y-78457056D01*
X162663253Y-78315134D01*
X162555711Y-78237000D01*
X162514094Y-78206763D01*
X162514093Y-78206762D01*
X162508752Y-78202882D01*
X162502726Y-78200199D01*
X162502719Y-78200195D01*
X162343371Y-78129250D01*
X162289275Y-78083270D01*
X162268625Y-78015343D01*
X162274786Y-77975207D01*
X162282712Y-77950812D01*
X162296042Y-77909788D01*
X162300171Y-77870508D01*
X162315314Y-77726425D01*
X162316004Y-77719860D01*
X162303412Y-77600051D01*
X162296732Y-77536495D01*
X162296732Y-77536493D01*
X162296042Y-77529932D01*
X162237027Y-77348304D01*
X162224674Y-77326907D01*
X162144843Y-77188637D01*
X162141540Y-77182916D01*
X162140366Y-77181612D01*
X162117110Y-77116441D01*
X162133188Y-77047289D01*
X162184100Y-76997807D01*
X162216706Y-76985997D01*
X162238917Y-76981276D01*
X162238926Y-76981273D01*
X162245381Y-76979901D01*
X162251412Y-76977216D01*
X162413815Y-76904910D01*
X162413817Y-76904909D01*
X162419845Y-76902225D01*
X162431831Y-76893517D01*
X162490259Y-76851066D01*
X162574346Y-76789973D01*
X162589222Y-76773452D01*
X162697714Y-76652959D01*
X162697715Y-76652958D01*
X162702133Y-76648051D01*
X162797620Y-76482663D01*
X162856635Y-76301035D01*
X162859357Y-76275142D01*
X162875907Y-76117672D01*
X162876597Y-76111107D01*
X162874171Y-76088022D01*
X162857325Y-75927742D01*
X162857325Y-75927740D01*
X162856635Y-75921179D01*
X162797620Y-75739551D01*
X162792082Y-75729958D01*
X162705434Y-75579881D01*
X162702133Y-75574163D01*
X162676392Y-75545574D01*
X162578768Y-75437152D01*
X162578767Y-75437151D01*
X162574346Y-75432241D01*
X162495250Y-75374774D01*
X162451896Y-75318551D01*
X162445821Y-75247815D01*
X162478953Y-75185024D01*
X162543114Y-75149591D01*
X162567111Y-75144490D01*
X162715288Y-75112994D01*
X162727646Y-75107492D01*
X162883722Y-75038003D01*
X162883724Y-75038002D01*
X162889752Y-75035318D01*
X163044253Y-74923066D01*
X163048675Y-74918155D01*
X163167621Y-74786052D01*
X163167622Y-74786051D01*
X163172040Y-74781144D01*
X163267527Y-74615756D01*
X163326542Y-74434128D01*
X163332995Y-74372736D01*
X163345814Y-74250765D01*
X163346504Y-74244200D01*
X163337743Y-74160843D01*
X163327232Y-74060835D01*
X163327232Y-74060833D01*
X163326542Y-74054272D01*
X163267527Y-73872644D01*
X163255297Y-73851460D01*
X163175341Y-73712974D01*
X163172040Y-73707256D01*
X163155709Y-73689118D01*
X163048675Y-73570245D01*
X163048674Y-73570244D01*
X163044253Y-73565334D01*
X162889752Y-73453082D01*
X162883724Y-73450398D01*
X162883722Y-73450397D01*
X162721319Y-73378091D01*
X162721318Y-73378091D01*
X162715288Y-73375406D01*
X162621888Y-73355553D01*
X162534944Y-73337072D01*
X162534939Y-73337072D01*
X162528487Y-73335700D01*
X162337513Y-73335700D01*
X162331061Y-73337072D01*
X162331056Y-73337072D01*
X162212905Y-73362186D01*
X162142114Y-73356784D01*
X162085481Y-73313967D01*
X162077589Y-73301939D01*
X162027960Y-73215980D01*
X162003640Y-73173856D01*
X161977718Y-73145066D01*
X161880275Y-73036845D01*
X161880274Y-73036844D01*
X161875853Y-73031934D01*
X161721352Y-72919682D01*
X161715324Y-72916998D01*
X161715322Y-72916997D01*
X161672654Y-72898000D01*
X163932496Y-72898000D01*
X163933186Y-72904565D01*
X163950008Y-73064613D01*
X163952458Y-73087928D01*
X164011473Y-73269556D01*
X164106960Y-73434944D01*
X164111378Y-73439851D01*
X164111379Y-73439852D01*
X164228785Y-73570245D01*
X164234747Y-73576866D01*
X164389248Y-73689118D01*
X164395276Y-73691802D01*
X164395278Y-73691803D01*
X164555707Y-73763230D01*
X164563712Y-73766794D01*
X164657113Y-73786647D01*
X164744056Y-73805128D01*
X164744061Y-73805128D01*
X164750513Y-73806500D01*
X164941487Y-73806500D01*
X164947939Y-73805128D01*
X164947944Y-73805128D01*
X165034887Y-73786647D01*
X165128288Y-73766794D01*
X165136293Y-73763230D01*
X165296722Y-73691803D01*
X165296724Y-73691802D01*
X165302752Y-73689118D01*
X165457253Y-73576866D01*
X165463215Y-73570245D01*
X165580621Y-73439852D01*
X165580622Y-73439851D01*
X165585040Y-73434944D01*
X165680527Y-73269556D01*
X165739542Y-73087928D01*
X165741993Y-73064613D01*
X165758814Y-72904565D01*
X165759504Y-72898000D01*
X165751828Y-72824964D01*
X165740232Y-72714635D01*
X165740232Y-72714633D01*
X165739542Y-72708072D01*
X165680527Y-72526444D01*
X165664681Y-72498997D01*
X165607882Y-72400620D01*
X165585040Y-72361056D01*
X165561758Y-72335198D01*
X165461675Y-72224045D01*
X165461674Y-72224044D01*
X165457253Y-72219134D01*
X165302752Y-72106882D01*
X165296724Y-72104198D01*
X165296722Y-72104197D01*
X165134319Y-72031891D01*
X165134318Y-72031891D01*
X165128288Y-72029206D01*
X165025798Y-72007421D01*
X164947944Y-71990872D01*
X164947939Y-71990872D01*
X164941487Y-71989500D01*
X164750513Y-71989500D01*
X164744061Y-71990872D01*
X164744056Y-71990872D01*
X164666202Y-72007421D01*
X164563712Y-72029206D01*
X164557682Y-72031891D01*
X164557681Y-72031891D01*
X164395278Y-72104197D01*
X164395276Y-72104198D01*
X164389248Y-72106882D01*
X164234747Y-72219134D01*
X164230326Y-72224044D01*
X164230325Y-72224045D01*
X164130243Y-72335198D01*
X164106960Y-72361056D01*
X164084118Y-72400620D01*
X164027320Y-72498997D01*
X164011473Y-72526444D01*
X163952458Y-72708072D01*
X163951768Y-72714633D01*
X163951768Y-72714635D01*
X163940172Y-72824964D01*
X163932496Y-72898000D01*
X161672654Y-72898000D01*
X161552919Y-72844691D01*
X161552918Y-72844691D01*
X161546888Y-72842006D01*
X161428323Y-72816804D01*
X161366544Y-72803672D01*
X161366539Y-72803672D01*
X161360087Y-72802300D01*
X161169113Y-72802300D01*
X161162661Y-72803672D01*
X161162656Y-72803672D01*
X161100877Y-72816804D01*
X160982312Y-72842006D01*
X160976282Y-72844691D01*
X160976281Y-72844691D01*
X160813878Y-72916997D01*
X160813876Y-72916998D01*
X160807848Y-72919682D01*
X160653347Y-73031934D01*
X160648926Y-73036844D01*
X160648925Y-73036845D01*
X160551483Y-73145066D01*
X160525560Y-73173856D01*
X160430073Y-73339244D01*
X160371058Y-73520872D01*
X160370368Y-73527433D01*
X160370368Y-73527435D01*
X160367623Y-73553551D01*
X160351096Y-73710800D01*
X160351786Y-73717365D01*
X160368405Y-73875482D01*
X160371058Y-73900728D01*
X160430073Y-74082356D01*
X160525560Y-74247744D01*
X160529978Y-74252651D01*
X160529979Y-74252652D01*
X160630145Y-74363898D01*
X160653347Y-74389666D01*
X160807848Y-74501918D01*
X160813876Y-74504602D01*
X160813878Y-74504603D01*
X160976281Y-74576909D01*
X160982312Y-74579594D01*
X161069921Y-74598216D01*
X161162656Y-74617928D01*
X161162661Y-74617928D01*
X161169113Y-74619300D01*
X161360087Y-74619300D01*
X161366539Y-74617928D01*
X161366544Y-74617928D01*
X161484695Y-74592814D01*
X161555486Y-74598216D01*
X161612119Y-74641033D01*
X161620011Y-74653061D01*
X161693960Y-74781144D01*
X161698378Y-74786051D01*
X161698379Y-74786052D01*
X161817325Y-74918155D01*
X161821747Y-74923066D01*
X161845908Y-74940620D01*
X161900843Y-74980533D01*
X161944197Y-75036756D01*
X161950272Y-75107492D01*
X161917140Y-75170283D01*
X161852979Y-75205716D01*
X161680805Y-75242313D01*
X161674775Y-75244998D01*
X161674774Y-75244998D01*
X161512371Y-75317304D01*
X161512369Y-75317305D01*
X161506341Y-75319989D01*
X161351840Y-75432241D01*
X161347419Y-75437151D01*
X161347418Y-75437152D01*
X161249795Y-75545574D01*
X161224053Y-75574163D01*
X161220752Y-75579881D01*
X161134105Y-75729958D01*
X161128566Y-75739551D01*
X161069551Y-75921179D01*
X161068861Y-75927740D01*
X161068861Y-75927742D01*
X161052015Y-76088022D01*
X161049589Y-76111107D01*
X161050279Y-76117672D01*
X161066830Y-76275142D01*
X161069551Y-76301035D01*
X161128566Y-76482663D01*
X161131869Y-76488385D01*
X161131870Y-76488386D01*
X161191429Y-76591545D01*
X161224053Y-76648051D01*
X161225227Y-76649355D01*
X161248483Y-76714526D01*
X161232405Y-76783678D01*
X161181493Y-76833160D01*
X161148887Y-76844970D01*
X161126676Y-76849691D01*
X161126667Y-76849694D01*
X161120212Y-76851066D01*
X161114185Y-76853749D01*
X161114177Y-76853752D01*
X161050033Y-76882311D01*
X160979666Y-76891745D01*
X160915369Y-76861638D01*
X160877556Y-76801549D01*
X160873475Y-76780371D01*
X160872748Y-76773452D01*
X160872748Y-76773451D01*
X160872058Y-76766888D01*
X160813043Y-76585260D01*
X160717556Y-76419872D01*
X160687321Y-76386292D01*
X160594191Y-76282861D01*
X160594190Y-76282860D01*
X160589769Y-76277950D01*
X160487112Y-76203365D01*
X160440610Y-76169579D01*
X160440609Y-76169578D01*
X160435268Y-76165698D01*
X160429240Y-76163014D01*
X160429238Y-76163013D01*
X160266835Y-76090707D01*
X160266834Y-76090707D01*
X160260804Y-76088022D01*
X160167403Y-76068169D01*
X160080460Y-76049688D01*
X160080455Y-76049688D01*
X160074003Y-76048316D01*
X159883029Y-76048316D01*
X159876577Y-76049688D01*
X159876572Y-76049688D01*
X159789629Y-76068169D01*
X159696228Y-76088022D01*
X159690198Y-76090707D01*
X159690197Y-76090707D01*
X159527794Y-76163013D01*
X159527792Y-76163014D01*
X159521764Y-76165698D01*
X159516423Y-76169578D01*
X159516422Y-76169579D01*
X159469920Y-76203365D01*
X159367263Y-76277950D01*
X159362842Y-76282860D01*
X159362841Y-76282861D01*
X159269712Y-76386292D01*
X159239476Y-76419872D01*
X159143989Y-76585260D01*
X159084974Y-76766888D01*
X159084284Y-76773449D01*
X159084284Y-76773451D01*
X159081331Y-76801549D01*
X159070087Y-76908537D01*
X159067311Y-76934946D01*
X159040298Y-77000603D01*
X159016064Y-77023710D01*
X158881244Y-77121663D01*
X158876823Y-77126573D01*
X158876822Y-77126574D01*
X158767220Y-77248300D01*
X158753457Y-77263585D01*
X158750156Y-77269303D01*
X158675889Y-77397936D01*
X158624506Y-77446929D01*
X158592967Y-77458183D01*
X158581728Y-77460572D01*
X158442312Y-77490206D01*
X158436282Y-77492891D01*
X158436281Y-77492891D01*
X158273878Y-77565197D01*
X158273876Y-77565198D01*
X158267848Y-77567882D01*
X158262507Y-77571762D01*
X158262506Y-77571763D01*
X158250554Y-77580447D01*
X158113347Y-77680134D01*
X158108926Y-77685044D01*
X158108925Y-77685045D01*
X158025566Y-77777625D01*
X157965120Y-77814865D01*
X157894137Y-77813513D01*
X157835152Y-77774000D01*
X157822813Y-77756319D01*
X157820073Y-77751574D01*
X157816772Y-77745856D01*
X157782822Y-77708150D01*
X157693407Y-77608845D01*
X157693406Y-77608844D01*
X157688985Y-77603934D01*
X157534484Y-77491682D01*
X157528456Y-77488998D01*
X157528454Y-77488997D01*
X157366051Y-77416691D01*
X157366050Y-77416691D01*
X157360020Y-77414006D01*
X157266619Y-77394153D01*
X157179676Y-77375672D01*
X157179671Y-77375672D01*
X157173219Y-77374300D01*
X157162721Y-77374300D01*
X157160550Y-77373663D01*
X157160050Y-77373610D01*
X157160060Y-77373519D01*
X157094600Y-77354298D01*
X157048107Y-77300642D01*
X157036721Y-77248300D01*
X157036721Y-75231158D01*
X157037799Y-75214712D01*
X157051273Y-75112366D01*
X157052351Y-75104178D01*
X157031438Y-74945327D01*
X156970124Y-74797302D01*
X156897078Y-74702107D01*
X156897075Y-74702104D01*
X156872587Y-74670191D01*
X156866041Y-74665168D01*
X156866038Y-74665165D01*
X156847221Y-74650726D01*
X156834830Y-74639859D01*
X156742916Y-74547945D01*
X156708890Y-74485633D01*
X156706011Y-74458850D01*
X156706011Y-72542193D01*
X156707089Y-72525747D01*
X156710184Y-72502237D01*
X156711262Y-72494049D01*
X156690349Y-72335198D01*
X156629035Y-72187173D01*
X156555989Y-72091978D01*
X156555985Y-72091974D01*
X156546682Y-72079850D01*
X156536527Y-72066615D01*
X156536524Y-72066612D01*
X156531498Y-72060062D01*
X156521179Y-72052144D01*
X156506132Y-72040597D01*
X156493741Y-72029730D01*
X155659920Y-71195909D01*
X155625894Y-71133597D01*
X155623360Y-71110023D01*
X155623705Y-71106739D01*
X155605137Y-70930072D01*
X155604433Y-70923374D01*
X155604433Y-70923372D01*
X155603743Y-70916811D01*
X155590209Y-70875159D01*
X155585429Y-70860446D01*
X155583402Y-70789478D01*
X155620064Y-70728680D01*
X155654012Y-70706404D01*
X155763398Y-70657702D01*
X155833765Y-70648268D01*
X155865895Y-70657702D01*
X156011847Y-70722684D01*
X156011855Y-70722687D01*
X156017882Y-70725370D01*
X156111282Y-70745223D01*
X156198226Y-70763704D01*
X156198231Y-70763704D01*
X156204683Y-70765076D01*
X156395657Y-70765076D01*
X156402109Y-70763704D01*
X156402114Y-70763704D01*
X156489058Y-70745223D01*
X156582458Y-70725370D01*
X156592015Y-70721115D01*
X156750892Y-70650379D01*
X156750894Y-70650378D01*
X156756922Y-70647694D01*
X156762278Y-70643803D01*
X156857703Y-70574472D01*
X156911423Y-70535442D01*
X156926409Y-70518798D01*
X156986854Y-70481558D01*
X157057837Y-70482909D01*
X157113682Y-70518799D01*
X157118323Y-70523954D01*
X157118330Y-70523960D01*
X157122747Y-70528866D01*
X157128089Y-70532747D01*
X157128091Y-70532749D01*
X157271906Y-70637237D01*
X157277248Y-70641118D01*
X157283276Y-70643802D01*
X157283278Y-70643803D01*
X157445681Y-70716109D01*
X157451712Y-70718794D01*
X157528816Y-70735183D01*
X157632056Y-70757128D01*
X157632061Y-70757128D01*
X157638513Y-70758500D01*
X157829487Y-70758500D01*
X157835939Y-70757128D01*
X157835944Y-70757128D01*
X157939184Y-70735183D01*
X158016288Y-70718794D01*
X158023110Y-70715757D01*
X158144901Y-70661532D01*
X158180158Y-70645835D01*
X158250524Y-70636401D01*
X158282653Y-70645834D01*
X158444810Y-70718031D01*
X158538210Y-70737884D01*
X158625154Y-70756365D01*
X158625159Y-70756365D01*
X158631611Y-70757737D01*
X158822585Y-70757737D01*
X158829037Y-70756365D01*
X158829042Y-70756365D01*
X158974859Y-70725370D01*
X159009386Y-70718031D01*
X159015419Y-70715345D01*
X159015422Y-70715344D01*
X159115097Y-70670966D01*
X159185464Y-70661532D01*
X159218756Y-70673235D01*
X159219322Y-70671964D01*
X159329717Y-70721115D01*
X159383813Y-70767095D01*
X159404462Y-70835022D01*
X159398302Y-70875156D01*
X159380458Y-70930072D01*
X159379768Y-70936633D01*
X159379768Y-70936635D01*
X159372956Y-71001452D01*
X159360496Y-71120000D01*
X159380458Y-71309928D01*
X159439473Y-71491556D01*
X159442776Y-71497278D01*
X159442777Y-71497279D01*
X159468248Y-71541395D01*
X159534960Y-71656944D01*
X159539378Y-71661851D01*
X159539379Y-71661852D01*
X159654303Y-71789488D01*
X159662747Y-71798866D01*
X159817248Y-71911118D01*
X159823276Y-71913802D01*
X159823278Y-71913803D01*
X159982350Y-71984626D01*
X159991712Y-71988794D01*
X160065692Y-72004519D01*
X160172056Y-72027128D01*
X160172061Y-72027128D01*
X160178513Y-72028500D01*
X160369487Y-72028500D01*
X160375939Y-72027128D01*
X160375944Y-72027128D01*
X160482308Y-72004519D01*
X160556288Y-71988794D01*
X160565650Y-71984626D01*
X160724722Y-71913803D01*
X160724724Y-71913802D01*
X160730752Y-71911118D01*
X160885253Y-71798866D01*
X160893697Y-71789488D01*
X161008621Y-71661852D01*
X161008622Y-71661851D01*
X161013040Y-71656944D01*
X161039990Y-71610265D01*
X161091372Y-71561272D01*
X161161086Y-71547836D01*
X161223170Y-71571329D01*
X161329512Y-71648591D01*
X161341248Y-71657118D01*
X161347276Y-71659802D01*
X161347278Y-71659803D01*
X161412169Y-71688694D01*
X161515712Y-71734794D01*
X161609113Y-71754647D01*
X161696056Y-71773128D01*
X161696061Y-71773128D01*
X161702513Y-71774500D01*
X161893487Y-71774500D01*
X161899939Y-71773128D01*
X161899944Y-71773128D01*
X161986887Y-71754647D01*
X162080288Y-71734794D01*
X162183831Y-71688694D01*
X162248722Y-71659803D01*
X162248724Y-71659802D01*
X162254752Y-71657118D01*
X162266489Y-71648591D01*
X162319239Y-71610265D01*
X162409253Y-71544866D01*
X162425928Y-71526347D01*
X162532621Y-71407852D01*
X162532622Y-71407851D01*
X162537040Y-71402944D01*
X162632527Y-71237556D01*
X162691542Y-71055928D01*
X162697784Y-70996544D01*
X162710814Y-70872565D01*
X162711504Y-70866000D01*
X162707181Y-70824871D01*
X162692232Y-70682635D01*
X162692232Y-70682633D01*
X162691542Y-70676072D01*
X162632527Y-70494444D01*
X162610117Y-70455629D01*
X162593380Y-70386634D01*
X162616601Y-70319542D01*
X162672408Y-70275655D01*
X162743083Y-70268907D01*
X162770485Y-70277523D01*
X162790185Y-70286294D01*
X162883586Y-70306147D01*
X162970529Y-70324628D01*
X162970534Y-70324628D01*
X162976986Y-70326000D01*
X163095986Y-70326000D01*
X163164107Y-70346002D01*
X163210600Y-70399658D01*
X163221986Y-70452000D01*
X163221986Y-70453035D01*
X163221296Y-70459600D01*
X163241258Y-70649528D01*
X163300273Y-70831156D01*
X163303576Y-70836878D01*
X163303577Y-70836879D01*
X163325678Y-70875159D01*
X163395760Y-70996544D01*
X163400178Y-71001451D01*
X163400179Y-71001452D01*
X163454882Y-71062206D01*
X163523547Y-71138466D01*
X163602610Y-71195909D01*
X163651282Y-71231271D01*
X163678048Y-71250718D01*
X163684076Y-71253402D01*
X163684078Y-71253403D01*
X163811036Y-71309928D01*
X163852512Y-71328394D01*
X163938282Y-71346625D01*
X164032856Y-71366728D01*
X164032861Y-71366728D01*
X164039313Y-71368100D01*
X164230287Y-71368100D01*
X164236739Y-71366728D01*
X164236744Y-71366728D01*
X164331318Y-71346625D01*
X164417088Y-71328394D01*
X164458564Y-71309928D01*
X164585522Y-71253403D01*
X164585524Y-71253402D01*
X164591552Y-71250718D01*
X164618319Y-71231271D01*
X164666990Y-71195909D01*
X164746053Y-71138466D01*
X164814718Y-71062206D01*
X164869421Y-71001452D01*
X164869422Y-71001451D01*
X164873840Y-70996544D01*
X164943922Y-70875159D01*
X164966023Y-70836879D01*
X164966024Y-70836878D01*
X164969327Y-70831156D01*
X165028342Y-70649528D01*
X165048304Y-70459600D01*
X165036365Y-70346002D01*
X165029032Y-70276235D01*
X165029032Y-70276233D01*
X165028342Y-70269672D01*
X164969327Y-70088044D01*
X164970606Y-70087628D01*
X164962131Y-70024394D01*
X164989661Y-69966318D01*
X164988391Y-69965395D01*
X164992273Y-69960052D01*
X164996692Y-69955144D01*
X165031066Y-69895606D01*
X165088875Y-69795479D01*
X165088876Y-69795478D01*
X165092179Y-69789756D01*
X165151194Y-69608128D01*
X165151958Y-69600865D01*
X165170466Y-69424765D01*
X165171156Y-69418200D01*
X165164118Y-69351237D01*
X165151884Y-69234835D01*
X165151884Y-69234833D01*
X165151194Y-69228272D01*
X165092179Y-69046644D01*
X165075568Y-69017872D01*
X165049934Y-68973473D01*
X164996692Y-68881256D01*
X164987205Y-68870719D01*
X164873327Y-68744245D01*
X164873326Y-68744244D01*
X164868905Y-68739334D01*
X164714404Y-68627082D01*
X164708376Y-68624398D01*
X164708374Y-68624397D01*
X164545971Y-68552091D01*
X164545970Y-68552091D01*
X164539940Y-68549406D01*
X164446539Y-68529553D01*
X164359596Y-68511072D01*
X164359591Y-68511072D01*
X164353139Y-68509700D01*
X164162165Y-68509700D01*
X164155713Y-68511072D01*
X164155708Y-68511072D01*
X164068765Y-68529553D01*
X163975364Y-68549406D01*
X163969334Y-68552091D01*
X163969333Y-68552091D01*
X163806930Y-68624397D01*
X163806928Y-68624398D01*
X163800900Y-68627082D01*
X163795559Y-68630963D01*
X163795553Y-68630966D01*
X163739604Y-68671615D01*
X163672737Y-68695474D01*
X163603585Y-68679393D01*
X163591483Y-68671615D01*
X163534567Y-68630263D01*
X163534566Y-68630262D01*
X163529225Y-68626382D01*
X163523197Y-68623698D01*
X163523195Y-68623697D01*
X163360792Y-68551391D01*
X163360791Y-68551391D01*
X163354761Y-68548706D01*
X163261361Y-68528853D01*
X163174417Y-68510372D01*
X163174412Y-68510372D01*
X163167960Y-68509000D01*
X162976986Y-68509000D01*
X162970534Y-68510372D01*
X162970529Y-68510372D01*
X162883585Y-68528853D01*
X162790185Y-68548706D01*
X162784155Y-68551391D01*
X162784154Y-68551391D01*
X162621751Y-68623697D01*
X162621749Y-68623698D01*
X162615721Y-68626382D01*
X162610380Y-68630262D01*
X162610379Y-68630263D01*
X162591674Y-68643853D01*
X162461220Y-68738634D01*
X162456799Y-68743544D01*
X162456798Y-68743545D01*
X162346907Y-68865592D01*
X162333433Y-68880556D01*
X162237946Y-69045944D01*
X162178931Y-69227572D01*
X162178241Y-69234133D01*
X162178241Y-69234135D01*
X162172523Y-69288537D01*
X162158969Y-69417500D01*
X162178931Y-69607428D01*
X162237946Y-69789056D01*
X162254574Y-69817856D01*
X162260356Y-69827871D01*
X162277093Y-69896866D01*
X162253872Y-69963958D01*
X162198065Y-70007845D01*
X162127390Y-70014593D01*
X162099988Y-70005977D01*
X162080288Y-69997206D01*
X161985994Y-69977163D01*
X161899944Y-69958872D01*
X161899939Y-69958872D01*
X161893487Y-69957500D01*
X161702513Y-69957500D01*
X161688648Y-69960447D01*
X161632730Y-69972332D01*
X161561939Y-69966929D01*
X161505307Y-69924112D01*
X161486701Y-69888021D01*
X161469860Y-69836190D01*
X161467818Y-69829905D01*
X161460862Y-69817856D01*
X161375632Y-69670235D01*
X161372331Y-69664517D01*
X161338643Y-69627102D01*
X161248966Y-69527506D01*
X161248965Y-69527505D01*
X161244544Y-69522595D01*
X161090043Y-69410343D01*
X161084015Y-69407659D01*
X161084013Y-69407658D01*
X160921610Y-69335352D01*
X160921609Y-69335352D01*
X160915579Y-69332667D01*
X160822178Y-69312814D01*
X160735235Y-69294333D01*
X160735230Y-69294333D01*
X160728778Y-69292961D01*
X160537804Y-69292961D01*
X160531352Y-69294333D01*
X160531347Y-69294333D01*
X160467480Y-69307909D01*
X160396689Y-69302507D01*
X160347647Y-69268973D01*
X160335389Y-69255359D01*
X160287327Y-69201980D01*
X160188231Y-69129982D01*
X160138168Y-69093609D01*
X160138167Y-69093608D01*
X160132826Y-69089728D01*
X160126798Y-69087044D01*
X160126796Y-69087043D01*
X159964393Y-69014737D01*
X159964392Y-69014737D01*
X159958362Y-69012052D01*
X159935535Y-69007200D01*
X159873061Y-68973473D01*
X159838739Y-68911324D01*
X159841897Y-68845017D01*
X159856002Y-68801606D01*
X159858042Y-68795328D01*
X159862745Y-68750587D01*
X159877314Y-68611965D01*
X159878004Y-68605400D01*
X159872344Y-68551545D01*
X159858732Y-68422035D01*
X159858732Y-68422033D01*
X159858042Y-68415472D01*
X159799027Y-68233844D01*
X159703540Y-68068456D01*
X159651283Y-68010418D01*
X159580175Y-67931445D01*
X159580174Y-67931444D01*
X159575753Y-67926534D01*
X159464322Y-67845574D01*
X159426594Y-67818163D01*
X159426593Y-67818162D01*
X159421252Y-67814282D01*
X159415221Y-67811597D01*
X159415216Y-67811594D01*
X159413020Y-67810616D01*
X159411956Y-67809712D01*
X159409499Y-67808293D01*
X159409759Y-67807844D01*
X159358927Y-67764633D01*
X159338281Y-67696704D01*
X159355156Y-67632512D01*
X159375902Y-67596579D01*
X159375903Y-67596578D01*
X159379206Y-67590856D01*
X159438221Y-67409228D01*
X159440201Y-67409871D01*
X159469274Y-67356022D01*
X159532595Y-67321445D01*
X159641888Y-67298214D01*
X159681338Y-67280650D01*
X159810322Y-67223223D01*
X159810324Y-67223222D01*
X159816352Y-67220538D01*
X159970853Y-67108286D01*
X160035998Y-67035935D01*
X160094221Y-66971272D01*
X160094222Y-66971271D01*
X160098640Y-66966364D01*
X160194127Y-66800976D01*
X160253142Y-66619348D01*
X160273104Y-66429420D01*
X160253142Y-66239492D01*
X160194127Y-66057864D01*
X160177139Y-66028439D01*
X160101941Y-65898194D01*
X160098640Y-65892476D01*
X159994879Y-65777237D01*
X159975275Y-65755465D01*
X159975274Y-65755464D01*
X159970853Y-65750554D01*
X159816352Y-65638302D01*
X159810325Y-65635619D01*
X159810317Y-65635614D01*
X159771081Y-65618145D01*
X159716986Y-65572165D01*
X159696337Y-65504237D01*
X159715615Y-65436193D01*
X159717640Y-65433944D01*
X159813127Y-65268556D01*
X159834476Y-65202851D01*
X159874550Y-65144245D01*
X159928111Y-65118540D01*
X160092247Y-65083652D01*
X160120307Y-65071159D01*
X160260681Y-65008661D01*
X160260683Y-65008660D01*
X160266711Y-65005976D01*
X160421212Y-64893724D01*
X160530998Y-64771794D01*
X160544580Y-64756710D01*
X160544581Y-64756709D01*
X160548999Y-64751802D01*
X160644486Y-64586414D01*
X160703501Y-64404786D01*
X160718279Y-64264186D01*
X160722773Y-64221423D01*
X160723463Y-64214858D01*
X160712995Y-64115258D01*
X160704191Y-64031493D01*
X160704191Y-64031491D01*
X160703501Y-64024930D01*
X160644486Y-63843302D01*
X160548999Y-63677914D01*
X160494509Y-63617396D01*
X160425634Y-63540903D01*
X160425633Y-63540902D01*
X160421212Y-63535992D01*
X160375755Y-63502965D01*
X160354788Y-63487732D01*
X160342315Y-63471557D01*
X166265511Y-63471557D01*
X166277888Y-63686222D01*
X166279324Y-63696442D01*
X166326596Y-63906197D01*
X166329675Y-63916026D01*
X166410575Y-64115258D01*
X166415218Y-64124449D01*
X166497370Y-64258510D01*
X166507826Y-64267970D01*
X166516604Y-64264186D01*
X167267978Y-63512812D01*
X167275592Y-63498868D01*
X167275461Y-63497035D01*
X167271210Y-63490420D01*
X166520853Y-62740063D01*
X166509317Y-62733764D01*
X166497034Y-62743387D01*
X166447187Y-62816461D01*
X166442098Y-62825419D01*
X166351560Y-63020467D01*
X166348008Y-63030120D01*
X166290541Y-63237341D01*
X166288614Y-63247446D01*
X166265763Y-63461268D01*
X166265511Y-63471557D01*
X160342315Y-63471557D01*
X160311434Y-63431510D01*
X160305359Y-63360773D01*
X160338491Y-63297982D01*
X160402651Y-63262549D01*
X160507354Y-63240294D01*
X160513987Y-63237341D01*
X160675788Y-63165303D01*
X160675790Y-63165302D01*
X160681818Y-63162618D01*
X160836319Y-63050366D01*
X160964106Y-62908444D01*
X161059593Y-62743056D01*
X161118608Y-62561428D01*
X161123173Y-62518000D01*
X161137880Y-62378065D01*
X161138570Y-62371500D01*
X161131152Y-62300917D01*
X161119298Y-62188135D01*
X161119298Y-62188133D01*
X161118608Y-62181572D01*
X161059593Y-61999944D01*
X160964106Y-61834556D01*
X160938130Y-61805706D01*
X160840741Y-61697545D01*
X160840738Y-61697542D01*
X160836319Y-61692634D01*
X160711120Y-61601671D01*
X160687160Y-61584263D01*
X160687159Y-61584262D01*
X160681818Y-61580382D01*
X160675790Y-61577698D01*
X160675788Y-61577697D01*
X160513385Y-61505391D01*
X160513384Y-61505391D01*
X160507354Y-61502706D01*
X160413953Y-61482853D01*
X160327010Y-61464372D01*
X160327005Y-61464372D01*
X160320553Y-61463000D01*
X160129579Y-61463000D01*
X160123127Y-61464372D01*
X160123122Y-61464372D01*
X160036179Y-61482853D01*
X159942778Y-61502706D01*
X159936748Y-61505391D01*
X159936747Y-61505391D01*
X159774344Y-61577697D01*
X159774342Y-61577698D01*
X159768314Y-61580382D01*
X159762973Y-61584262D01*
X159762972Y-61584263D01*
X159739012Y-61601671D01*
X159613813Y-61692634D01*
X159609394Y-61697542D01*
X159599611Y-61708407D01*
X159539164Y-61745645D01*
X159468181Y-61744292D01*
X159431915Y-61726029D01*
X159426595Y-61722164D01*
X159421252Y-61718282D01*
X159415224Y-61715598D01*
X159415222Y-61715597D01*
X159252819Y-61643291D01*
X159252818Y-61643291D01*
X159246788Y-61640606D01*
X159153387Y-61620753D01*
X159066444Y-61602272D01*
X159066439Y-61602272D01*
X159059987Y-61600900D01*
X158869013Y-61600900D01*
X158862561Y-61602272D01*
X158862556Y-61602272D01*
X158775613Y-61620753D01*
X158682212Y-61640606D01*
X158676182Y-61643291D01*
X158676181Y-61643291D01*
X158513778Y-61715597D01*
X158513776Y-61715598D01*
X158507748Y-61718282D01*
X158502407Y-61722162D01*
X158502406Y-61722163D01*
X158445452Y-61763543D01*
X158378585Y-61787401D01*
X158371391Y-61787607D01*
X158039228Y-61787607D01*
X157971107Y-61767605D01*
X157924614Y-61713949D01*
X157913918Y-61674778D01*
X157902194Y-61563231D01*
X157902194Y-61563229D01*
X157901504Y-61556668D01*
X157842489Y-61375040D01*
X157747002Y-61209652D01*
X157687726Y-61143819D01*
X157657008Y-61079812D01*
X157665773Y-61009358D01*
X157711236Y-60954827D01*
X157781362Y-60933509D01*
X158706138Y-60933509D01*
X158722581Y-60934587D01*
X158754274Y-60938759D01*
X158762463Y-60937681D01*
X158794148Y-60933510D01*
X158794158Y-60933509D01*
X158794159Y-60933509D01*
X158893731Y-60920400D01*
X158904938Y-60918925D01*
X158904940Y-60918924D01*
X158913125Y-60917847D01*
X159061150Y-60856533D01*
X159067701Y-60851506D01*
X159067705Y-60851504D01*
X159074706Y-60846132D01*
X159140926Y-60820532D01*
X159151409Y-60820095D01*
X159263175Y-60820095D01*
X159269627Y-60818723D01*
X159269632Y-60818723D01*
X159356576Y-60800242D01*
X159449976Y-60780389D01*
X159456007Y-60777704D01*
X159618410Y-60705398D01*
X159618412Y-60705397D01*
X159624440Y-60702713D01*
X159778941Y-60590461D01*
X159903612Y-60452000D01*
X163932496Y-60452000D01*
X163933186Y-60458565D01*
X163946533Y-60585550D01*
X163952458Y-60641928D01*
X164011473Y-60823556D01*
X164106960Y-60988944D01*
X164234747Y-61130866D01*
X164389248Y-61243118D01*
X164395276Y-61245802D01*
X164395278Y-61245803D01*
X164557681Y-61318109D01*
X164563712Y-61320794D01*
X164657113Y-61340647D01*
X164744056Y-61359128D01*
X164744061Y-61359128D01*
X164750513Y-61360500D01*
X164941487Y-61360500D01*
X164947939Y-61359128D01*
X164947944Y-61359128D01*
X165034887Y-61340647D01*
X165128288Y-61320794D01*
X165134319Y-61318109D01*
X165296722Y-61245803D01*
X165296724Y-61245802D01*
X165302752Y-61243118D01*
X165457253Y-61130866D01*
X165585040Y-60988944D01*
X165680527Y-60823556D01*
X165739542Y-60641928D01*
X165745468Y-60585550D01*
X165758814Y-60458565D01*
X165759504Y-60452000D01*
X165742359Y-60288874D01*
X165740232Y-60268635D01*
X165740232Y-60268633D01*
X165739542Y-60262072D01*
X165680527Y-60080444D01*
X165585040Y-59915056D01*
X165543188Y-59868574D01*
X165461675Y-59778045D01*
X165461674Y-59778044D01*
X165457253Y-59773134D01*
X165322869Y-59675498D01*
X165308094Y-59664763D01*
X165308093Y-59664762D01*
X165302752Y-59660882D01*
X165296724Y-59658198D01*
X165296722Y-59658197D01*
X165134319Y-59585891D01*
X165134318Y-59585891D01*
X165128288Y-59583206D01*
X165034888Y-59563353D01*
X164947944Y-59544872D01*
X164947939Y-59544872D01*
X164941487Y-59543500D01*
X164750513Y-59543500D01*
X164744061Y-59544872D01*
X164744056Y-59544872D01*
X164657112Y-59563353D01*
X164563712Y-59583206D01*
X164557682Y-59585891D01*
X164557681Y-59585891D01*
X164395278Y-59658197D01*
X164395276Y-59658198D01*
X164389248Y-59660882D01*
X164383907Y-59664762D01*
X164383906Y-59664763D01*
X164369131Y-59675498D01*
X164234747Y-59773134D01*
X164230326Y-59778044D01*
X164230325Y-59778045D01*
X164148813Y-59868574D01*
X164106960Y-59915056D01*
X164011473Y-60080444D01*
X163952458Y-60262072D01*
X163951768Y-60268633D01*
X163951768Y-60268635D01*
X163949641Y-60288874D01*
X163932496Y-60452000D01*
X159903612Y-60452000D01*
X159906728Y-60448539D01*
X160002215Y-60283151D01*
X160061230Y-60101523D01*
X160063446Y-60080444D01*
X160080502Y-59918160D01*
X160081192Y-59911595D01*
X160074632Y-59849184D01*
X160061920Y-59728230D01*
X160061920Y-59728228D01*
X160061230Y-59721667D01*
X160002215Y-59540039D01*
X159993284Y-59524569D01*
X159939650Y-59431673D01*
X159906728Y-59374651D01*
X159852210Y-59314102D01*
X159783363Y-59237640D01*
X159783362Y-59237639D01*
X159778941Y-59232729D01*
X159624440Y-59120477D01*
X159618412Y-59117793D01*
X159618410Y-59117792D01*
X159456007Y-59045486D01*
X159456006Y-59045486D01*
X159449976Y-59042801D01*
X159356575Y-59022948D01*
X159269632Y-59004467D01*
X159269627Y-59004467D01*
X159263175Y-59003095D01*
X159175629Y-59003095D01*
X159107508Y-58983093D01*
X159061015Y-58929437D01*
X159050319Y-58863924D01*
X159052832Y-58840020D01*
X159066655Y-58708499D01*
X159046693Y-58518571D01*
X158987678Y-58336943D01*
X158892191Y-58171555D01*
X158887640Y-58166500D01*
X158768826Y-58034544D01*
X158768825Y-58034543D01*
X158764404Y-58029633D01*
X158609903Y-57917381D01*
X158603875Y-57914697D01*
X158603873Y-57914696D01*
X158441470Y-57842390D01*
X158441469Y-57842390D01*
X158435439Y-57839705D01*
X158342039Y-57819852D01*
X158255095Y-57801371D01*
X158255090Y-57801371D01*
X158248638Y-57799999D01*
X158057664Y-57799999D01*
X158051211Y-57801371D01*
X158051198Y-57801372D01*
X157891669Y-57835282D01*
X157820879Y-57829881D01*
X157791413Y-57813973D01*
X157678663Y-57732055D01*
X157672635Y-57729371D01*
X157672633Y-57729370D01*
X157510230Y-57657064D01*
X157510229Y-57657064D01*
X157504199Y-57654379D01*
X157394596Y-57631082D01*
X157323855Y-57616045D01*
X157323850Y-57616045D01*
X157317398Y-57614673D01*
X157126424Y-57614673D01*
X157119972Y-57616045D01*
X157119967Y-57616045D01*
X157049226Y-57631082D01*
X156939623Y-57654379D01*
X156933593Y-57657064D01*
X156933592Y-57657064D01*
X156771189Y-57729370D01*
X156771187Y-57729371D01*
X156765159Y-57732055D01*
X156610658Y-57844307D01*
X156606237Y-57849217D01*
X156606236Y-57849218D01*
X156547280Y-57914696D01*
X156482871Y-57986229D01*
X156424492Y-58087344D01*
X156395782Y-58137071D01*
X156344399Y-58186064D01*
X156274686Y-58199500D01*
X156212605Y-58176008D01*
X156158752Y-58136882D01*
X156152724Y-58134198D01*
X156152722Y-58134197D01*
X155990319Y-58061891D01*
X155990318Y-58061891D01*
X155984288Y-58059206D01*
X155890888Y-58039353D01*
X155803944Y-58020872D01*
X155803939Y-58020872D01*
X155797487Y-58019500D01*
X155606513Y-58019500D01*
X155600061Y-58020872D01*
X155600056Y-58020872D01*
X155513112Y-58039353D01*
X155419712Y-58059206D01*
X155413682Y-58061891D01*
X155413681Y-58061891D01*
X155251278Y-58134197D01*
X155251276Y-58134198D01*
X155245248Y-58136882D01*
X155239907Y-58140762D01*
X155239906Y-58140763D01*
X155204482Y-58166500D01*
X155090747Y-58249134D01*
X155086326Y-58254044D01*
X155086325Y-58254045D01*
X155011684Y-58336943D01*
X154962960Y-58391056D01*
X154867473Y-58556444D01*
X154808458Y-58738072D01*
X154807768Y-58744633D01*
X154807768Y-58744635D01*
X154797743Y-58840020D01*
X154770730Y-58905677D01*
X154712508Y-58946307D01*
X154641563Y-58949010D01*
X154598372Y-58928786D01*
X154542594Y-58888261D01*
X154542593Y-58888260D01*
X154537252Y-58884380D01*
X154531224Y-58881696D01*
X154531222Y-58881695D01*
X154368819Y-58809389D01*
X154368818Y-58809389D01*
X154362788Y-58806704D01*
X154269387Y-58786851D01*
X154182444Y-58768370D01*
X154182439Y-58768370D01*
X154175987Y-58766998D01*
X153985013Y-58766998D01*
X153978561Y-58768370D01*
X153978556Y-58768370D01*
X153891613Y-58786851D01*
X153798212Y-58806704D01*
X153792182Y-58809389D01*
X153792181Y-58809389D01*
X153629778Y-58881695D01*
X153629776Y-58881696D01*
X153623748Y-58884380D01*
X153469247Y-58996632D01*
X153464826Y-59001542D01*
X153464825Y-59001543D01*
X153357737Y-59120477D01*
X153341460Y-59138554D01*
X153245973Y-59303942D01*
X153186958Y-59485570D01*
X153186268Y-59492131D01*
X153186268Y-59492133D01*
X153174544Y-59603680D01*
X153147531Y-59669337D01*
X153089309Y-59709966D01*
X153049234Y-59716509D01*
X150071854Y-59716509D01*
X150003733Y-59696507D01*
X149962735Y-59653509D01*
X149930992Y-59598529D01*
X149891126Y-59529479D01*
X149845938Y-59479292D01*
X149767761Y-59392468D01*
X149767760Y-59392467D01*
X149763339Y-59387557D01*
X149608838Y-59275305D01*
X149602810Y-59272621D01*
X149602808Y-59272620D01*
X149440405Y-59200314D01*
X149440404Y-59200314D01*
X149434374Y-59197629D01*
X149340973Y-59177776D01*
X149254030Y-59159295D01*
X149254025Y-59159295D01*
X149247573Y-59157923D01*
X149056599Y-59157923D01*
X149050147Y-59159295D01*
X149050142Y-59159295D01*
X148963199Y-59177776D01*
X148869798Y-59197629D01*
X148863768Y-59200314D01*
X148863767Y-59200314D01*
X148701364Y-59272620D01*
X148701362Y-59272621D01*
X148695334Y-59275305D01*
X148540833Y-59387557D01*
X148536412Y-59392467D01*
X148536411Y-59392468D01*
X148452582Y-59485570D01*
X148413046Y-59529479D01*
X148409745Y-59535197D01*
X148405861Y-59540542D01*
X148404294Y-59539403D01*
X148359641Y-59581988D01*
X148288286Y-59595263D01*
X148230634Y-59589000D01*
X146409366Y-59589000D01*
X146347184Y-59595755D01*
X146210795Y-59646885D01*
X146094239Y-59734239D01*
X146088858Y-59741419D01*
X146022826Y-59829525D01*
X145965967Y-59872040D01*
X145895148Y-59877066D01*
X145832855Y-59843006D01*
X145798865Y-59780675D01*
X145796000Y-59753960D01*
X145796000Y-56337200D01*
X148819496Y-56337200D01*
X148820186Y-56343765D01*
X148836868Y-56502481D01*
X148839458Y-56527128D01*
X148898473Y-56708756D01*
X148901776Y-56714478D01*
X148901777Y-56714479D01*
X148912770Y-56733519D01*
X148993960Y-56874144D01*
X148998378Y-56879051D01*
X148998379Y-56879052D01*
X149114438Y-57007949D01*
X149121747Y-57016066D01*
X149176468Y-57055823D01*
X149256430Y-57113919D01*
X149276248Y-57128318D01*
X149282276Y-57131002D01*
X149282278Y-57131003D01*
X149424469Y-57194310D01*
X149450712Y-57205994D01*
X149544113Y-57225847D01*
X149631056Y-57244328D01*
X149631061Y-57244328D01*
X149637513Y-57245700D01*
X149828487Y-57245700D01*
X149834939Y-57244328D01*
X149834944Y-57244328D01*
X149921887Y-57225847D01*
X150015288Y-57205994D01*
X150041531Y-57194310D01*
X150183722Y-57131003D01*
X150183724Y-57131002D01*
X150189752Y-57128318D01*
X150209571Y-57113919D01*
X150331230Y-57025528D01*
X150398098Y-57001670D01*
X150456538Y-57012356D01*
X150473593Y-57019949D01*
X150492112Y-57028194D01*
X150585512Y-57048047D01*
X150672456Y-57066528D01*
X150672461Y-57066528D01*
X150678913Y-57067900D01*
X150869887Y-57067900D01*
X150876339Y-57066528D01*
X150876344Y-57066528D01*
X150963288Y-57048047D01*
X151056688Y-57028194D01*
X151092261Y-57012356D01*
X151120263Y-56999889D01*
X152547941Y-56999889D01*
X152553222Y-57006944D01*
X152736287Y-57113919D01*
X152735485Y-57115292D01*
X152782973Y-57158007D01*
X152801596Y-57218325D01*
X152802431Y-57236361D01*
X152803835Y-57242186D01*
X152803835Y-57242187D01*
X152838268Y-57385061D01*
X152850871Y-57437357D01*
X152936445Y-57625568D01*
X153056065Y-57794201D01*
X153060388Y-57798339D01*
X153060392Y-57798344D01*
X153169293Y-57902594D01*
X153205415Y-57937173D01*
X153210454Y-57940427D01*
X153210457Y-57940429D01*
X153301051Y-57998924D01*
X153379106Y-58049323D01*
X153384669Y-58051565D01*
X153384673Y-58051567D01*
X153565301Y-58124362D01*
X153565304Y-58124363D01*
X153570870Y-58126606D01*
X153643364Y-58140763D01*
X153769342Y-58165365D01*
X153769345Y-58165365D01*
X153773788Y-58166233D01*
X153779247Y-58166500D01*
X153931651Y-58166500D01*
X154085817Y-58151791D01*
X154284207Y-58093590D01*
X154376477Y-58046068D01*
X154462682Y-58001670D01*
X154462685Y-58001668D01*
X154468013Y-57998924D01*
X154630601Y-57871209D01*
X154766106Y-57715053D01*
X154869638Y-57536092D01*
X154905950Y-57431524D01*
X154935497Y-57346438D01*
X154935498Y-57346434D01*
X154937461Y-57340781D01*
X154943238Y-57300942D01*
X154944631Y-57291334D01*
X154974202Y-57226789D01*
X155018076Y-57194310D01*
X155045827Y-57181954D01*
X155056572Y-57172821D01*
X155054975Y-57167185D01*
X154998884Y-57111094D01*
X154964858Y-57048782D01*
X154962114Y-57027825D01*
X154957846Y-56935629D01*
X154957569Y-56929639D01*
X154909129Y-56728643D01*
X154909972Y-56728440D01*
X154906942Y-56662598D01*
X154942539Y-56601170D01*
X155005695Y-56568739D01*
X155029342Y-56566500D01*
X155120520Y-56566500D01*
X155188641Y-56586502D01*
X155209615Y-56603405D01*
X155408466Y-56802256D01*
X155422410Y-56809870D01*
X155452001Y-56807754D01*
X155521375Y-56822845D01*
X155570109Y-56870433D01*
X155601970Y-56925618D01*
X155606388Y-56930525D01*
X155606389Y-56930526D01*
X155695805Y-57029831D01*
X155719208Y-57055823D01*
X155724547Y-57059702D01*
X155813647Y-57124437D01*
X155860954Y-57158808D01*
X155866982Y-57161492D01*
X155866984Y-57161493D01*
X156013642Y-57226789D01*
X156021016Y-57230072D01*
X156094540Y-57245700D01*
X156185939Y-57265128D01*
X156185943Y-57265128D01*
X156192396Y-57266500D01*
X156367604Y-57266500D01*
X156374057Y-57265128D01*
X156374061Y-57265128D01*
X156465460Y-57245700D01*
X156538984Y-57230072D01*
X156628752Y-57190105D01*
X156699118Y-57180671D01*
X156731246Y-57190104D01*
X156821016Y-57230072D01*
X156894540Y-57245700D01*
X156985939Y-57265128D01*
X156985943Y-57265128D01*
X156992396Y-57266500D01*
X157167604Y-57266500D01*
X157174057Y-57265128D01*
X157174061Y-57265128D01*
X157265460Y-57245700D01*
X157338984Y-57230072D01*
X157428752Y-57190105D01*
X157499118Y-57180671D01*
X157531246Y-57190104D01*
X157621016Y-57230072D01*
X157694540Y-57245700D01*
X157785939Y-57265128D01*
X157785943Y-57265128D01*
X157792396Y-57266500D01*
X157967604Y-57266500D01*
X157974057Y-57265128D01*
X157974061Y-57265128D01*
X158065460Y-57245700D01*
X158138984Y-57230072D01*
X158228752Y-57190105D01*
X158299118Y-57180671D01*
X158331246Y-57190104D01*
X158421016Y-57230072D01*
X158494540Y-57245700D01*
X158585939Y-57265128D01*
X158585943Y-57265128D01*
X158592396Y-57266500D01*
X158767604Y-57266500D01*
X158774057Y-57265128D01*
X158774061Y-57265128D01*
X158865460Y-57245700D01*
X158938984Y-57230072D01*
X158946358Y-57226789D01*
X159093016Y-57161493D01*
X159093018Y-57161492D01*
X159099046Y-57158808D01*
X159146354Y-57124437D01*
X159235453Y-57059702D01*
X159240792Y-57055823D01*
X159264196Y-57029831D01*
X159353611Y-56930526D01*
X159353612Y-56930525D01*
X159358030Y-56925618D01*
X159361330Y-56919902D01*
X159361333Y-56919898D01*
X159391396Y-56867826D01*
X159442778Y-56818833D01*
X159512492Y-56805397D01*
X159524357Y-56807102D01*
X159538216Y-56809773D01*
X159547890Y-56805900D01*
X159750385Y-56603405D01*
X159812697Y-56569379D01*
X159839480Y-56566500D01*
X159967604Y-56566500D01*
X159974057Y-56565128D01*
X159974061Y-56565128D01*
X160053294Y-56548286D01*
X160138984Y-56530072D01*
X160145011Y-56527389D01*
X160145019Y-56527386D01*
X160179767Y-56511915D01*
X160250134Y-56502481D01*
X160314431Y-56532588D01*
X160352244Y-56592677D01*
X160351567Y-56663670D01*
X160342825Y-56684824D01*
X160339723Y-56689388D01*
X160324022Y-56728643D01*
X160320599Y-56737202D01*
X160292705Y-56779505D01*
X159910436Y-57161774D01*
X159903676Y-57174154D01*
X159907187Y-57178844D01*
X160015137Y-57226907D01*
X160027629Y-57230967D01*
X160192448Y-57266000D01*
X160191979Y-57268205D01*
X160248011Y-57291251D01*
X160290670Y-57356095D01*
X160300461Y-57391641D01*
X160384922Y-57551836D01*
X160389327Y-57557049D01*
X160389330Y-57557053D01*
X160497406Y-57684943D01*
X160497410Y-57684947D01*
X160501813Y-57690157D01*
X160507237Y-57694304D01*
X160507238Y-57694305D01*
X160640257Y-57796006D01*
X160640261Y-57796009D01*
X160645678Y-57800150D01*
X160721019Y-57835282D01*
X160803631Y-57873805D01*
X160803634Y-57873806D01*
X160809808Y-57876685D01*
X160816456Y-57878171D01*
X160816459Y-57878172D01*
X160922421Y-57901857D01*
X160986543Y-57916190D01*
X160992088Y-57916500D01*
X161125244Y-57916500D01*
X161260037Y-57901857D01*
X161405203Y-57853003D01*
X161425204Y-57846272D01*
X161425206Y-57846271D01*
X161431675Y-57844094D01*
X161586905Y-57750823D01*
X161591862Y-57746135D01*
X161591865Y-57746133D01*
X161713527Y-57631082D01*
X161713529Y-57631080D01*
X161718485Y-57626393D01*
X161722317Y-57620755D01*
X161722320Y-57620751D01*
X161816442Y-57482255D01*
X161820277Y-57476612D01*
X161868480Y-57356095D01*
X161884995Y-57314805D01*
X161884996Y-57314802D01*
X161887530Y-57308466D01*
X161888644Y-57301737D01*
X161888646Y-57301730D01*
X161888776Y-57300942D01*
X161888988Y-57300502D01*
X161890480Y-57295160D01*
X161891438Y-57295427D01*
X161919639Y-57237005D01*
X161976875Y-57200842D01*
X162123300Y-57156912D01*
X162132898Y-57153150D01*
X162332640Y-57055299D01*
X162341487Y-57050025D01*
X162400475Y-57007949D01*
X162408875Y-56997251D01*
X162401887Y-56984097D01*
X161622812Y-56205022D01*
X161608868Y-56197408D01*
X161607035Y-56197539D01*
X161600420Y-56201790D01*
X161523539Y-56278671D01*
X161461227Y-56312697D01*
X161390412Y-56307632D01*
X161381196Y-56303771D01*
X161356377Y-56292198D01*
X161356368Y-56292195D01*
X161350192Y-56289315D01*
X161343544Y-56287829D01*
X161343541Y-56287828D01*
X161216184Y-56259361D01*
X161173457Y-56249810D01*
X161167912Y-56249500D01*
X161138480Y-56249500D01*
X161070359Y-56229498D01*
X161023866Y-56175842D01*
X161013762Y-56105568D01*
X161043256Y-56040988D01*
X161049385Y-56034405D01*
X161237978Y-55845812D01*
X161244356Y-55834132D01*
X161974408Y-55834132D01*
X161974539Y-55835965D01*
X161978790Y-55842580D01*
X162761676Y-56625466D01*
X162773686Y-56632024D01*
X162785426Y-56623056D01*
X162824460Y-56568736D01*
X162829769Y-56559899D01*
X162928315Y-56360507D01*
X162932114Y-56350912D01*
X162996770Y-56138107D01*
X162998949Y-56128026D01*
X163028218Y-55905706D01*
X163028737Y-55899031D01*
X163030269Y-55836364D01*
X163030075Y-55829646D01*
X163011703Y-55606181D01*
X163010018Y-55596001D01*
X162955833Y-55380282D01*
X162952513Y-55370531D01*
X162863820Y-55166549D01*
X162858953Y-55157474D01*
X162784647Y-55042614D01*
X162773962Y-55033411D01*
X162764395Y-55037815D01*
X161982022Y-55820188D01*
X161974408Y-55834132D01*
X161244356Y-55834132D01*
X161245592Y-55831868D01*
X161245461Y-55830035D01*
X161241210Y-55823420D01*
X160458469Y-55040679D01*
X160444525Y-55033065D01*
X160425903Y-55034396D01*
X160402669Y-55043649D01*
X160332980Y-55030086D01*
X160316856Y-55020132D01*
X160304386Y-55011071D01*
X160304381Y-55011068D01*
X160299046Y-55007192D01*
X160293016Y-55004507D01*
X160145015Y-54938613D01*
X160145014Y-54938613D01*
X160138984Y-54935928D01*
X160026958Y-54912116D01*
X159974061Y-54900872D01*
X159974057Y-54900872D01*
X159967604Y-54899500D01*
X159792396Y-54899500D01*
X159785943Y-54900872D01*
X159785939Y-54900872D01*
X159733042Y-54912116D01*
X159621016Y-54935928D01*
X159531248Y-54975895D01*
X159460882Y-54985329D01*
X159428754Y-54975896D01*
X159338984Y-54935928D01*
X159226958Y-54912116D01*
X159174061Y-54900872D01*
X159174057Y-54900872D01*
X159167604Y-54899500D01*
X158992396Y-54899500D01*
X158985943Y-54900872D01*
X158985939Y-54900872D01*
X158933042Y-54912116D01*
X158821016Y-54935928D01*
X158731248Y-54975895D01*
X158660882Y-54985329D01*
X158628754Y-54975896D01*
X158538984Y-54935928D01*
X158426958Y-54912116D01*
X158374061Y-54900872D01*
X158374057Y-54900872D01*
X158367604Y-54899500D01*
X158192396Y-54899500D01*
X158185943Y-54900872D01*
X158185939Y-54900872D01*
X158133042Y-54912116D01*
X158021016Y-54935928D01*
X158014987Y-54938613D01*
X158014985Y-54938613D01*
X157866985Y-55004507D01*
X157866983Y-55004508D01*
X157860955Y-55007192D01*
X157855616Y-55011071D01*
X157855613Y-55011073D01*
X157823535Y-55034379D01*
X157719208Y-55110177D01*
X157714795Y-55115079D01*
X157714793Y-55115080D01*
X157606389Y-55235474D01*
X157601970Y-55240382D01*
X157589119Y-55262641D01*
X157537737Y-55311634D01*
X157468024Y-55325071D01*
X157402113Y-55298684D01*
X157370882Y-55262642D01*
X157358030Y-55240382D01*
X157353611Y-55235474D01*
X157245207Y-55115080D01*
X157245205Y-55115079D01*
X157240792Y-55110177D01*
X157141195Y-55037815D01*
X157104388Y-55011073D01*
X157104385Y-55011071D01*
X157099046Y-55007192D01*
X157093018Y-55004508D01*
X157093016Y-55004507D01*
X156945015Y-54938613D01*
X156945014Y-54938613D01*
X156938984Y-54935928D01*
X156826958Y-54912116D01*
X156774061Y-54900872D01*
X156774057Y-54900872D01*
X156767604Y-54899500D01*
X156592396Y-54899500D01*
X156585943Y-54900872D01*
X156585939Y-54900872D01*
X156533042Y-54912116D01*
X156421016Y-54935928D01*
X156331248Y-54975895D01*
X156260882Y-54985329D01*
X156228754Y-54975896D01*
X156138984Y-54935928D01*
X156026958Y-54912116D01*
X155974061Y-54900872D01*
X155974057Y-54900872D01*
X155967604Y-54899500D01*
X155792396Y-54899500D01*
X155785943Y-54900872D01*
X155785939Y-54900872D01*
X155733042Y-54912116D01*
X155621016Y-54935928D01*
X155531248Y-54975895D01*
X155460882Y-54985329D01*
X155428754Y-54975896D01*
X155338984Y-54935928D01*
X155226958Y-54912116D01*
X155174061Y-54900872D01*
X155174057Y-54900872D01*
X155167604Y-54899500D01*
X154992396Y-54899500D01*
X154985943Y-54900872D01*
X154985939Y-54900872D01*
X154933042Y-54912116D01*
X154821016Y-54935928D01*
X154660955Y-55007192D01*
X154645412Y-55018485D01*
X154578547Y-55042343D01*
X154549503Y-55035590D01*
X154549248Y-55037403D01*
X154515580Y-55032666D01*
X154504396Y-55037814D01*
X153722022Y-55820188D01*
X153714408Y-55834132D01*
X153714721Y-55838517D01*
X153733497Y-55902462D01*
X153713495Y-55970582D01*
X153659840Y-56017075D01*
X153642966Y-56023367D01*
X153475793Y-56072410D01*
X153470466Y-56075154D01*
X153470465Y-56075154D01*
X153297318Y-56164330D01*
X153297315Y-56164332D01*
X153291987Y-56167076D01*
X153129399Y-56294791D01*
X153125468Y-56299321D01*
X153125467Y-56299322D01*
X153076438Y-56355823D01*
X152993894Y-56450947D01*
X152890362Y-56629908D01*
X152888394Y-56635576D01*
X152888175Y-56636206D01*
X152887916Y-56636619D01*
X152885897Y-56641029D01*
X152885318Y-56640764D01*
X152858242Y-56683968D01*
X152554701Y-56987509D01*
X152547941Y-56999889D01*
X151120263Y-56999889D01*
X151225122Y-56953203D01*
X151225124Y-56953202D01*
X151231152Y-56950518D01*
X151259890Y-56929639D01*
X151359133Y-56857534D01*
X151385653Y-56838266D01*
X151413713Y-56807102D01*
X151509021Y-56701252D01*
X151509022Y-56701251D01*
X151513440Y-56696344D01*
X151576857Y-56586502D01*
X151605623Y-56536679D01*
X151605624Y-56536678D01*
X151608927Y-56530956D01*
X151667942Y-56349328D01*
X151672325Y-56307632D01*
X151687214Y-56165965D01*
X151687904Y-56159400D01*
X151685666Y-56138107D01*
X151668632Y-55976035D01*
X151668632Y-55976033D01*
X151667942Y-55969472D01*
X151613999Y-55803454D01*
X151930370Y-55803454D01*
X151943174Y-56025506D01*
X151944610Y-56035727D01*
X151993508Y-56252701D01*
X151996587Y-56262529D01*
X152080271Y-56468617D01*
X152084914Y-56477808D01*
X152174644Y-56624236D01*
X152185100Y-56633696D01*
X152193878Y-56629912D01*
X152977978Y-55845812D01*
X152985592Y-55831868D01*
X152985461Y-55830035D01*
X152981210Y-55823420D01*
X152198469Y-55040679D01*
X152186933Y-55034379D01*
X152174650Y-55044003D01*
X152117931Y-55127150D01*
X152112832Y-55136126D01*
X152019187Y-55337864D01*
X152015628Y-55347539D01*
X151956189Y-55561870D01*
X151954258Y-55571990D01*
X151930622Y-55793165D01*
X151930370Y-55803454D01*
X151613999Y-55803454D01*
X151608927Y-55787844D01*
X151513440Y-55622456D01*
X151385653Y-55480534D01*
X151231152Y-55368282D01*
X151225124Y-55365598D01*
X151225122Y-55365597D01*
X151062719Y-55293291D01*
X151062718Y-55293291D01*
X151056688Y-55290606D01*
X150963118Y-55270717D01*
X150876344Y-55252272D01*
X150876339Y-55252272D01*
X150869887Y-55250900D01*
X150678913Y-55250900D01*
X150672461Y-55252272D01*
X150672456Y-55252272D01*
X150585682Y-55270717D01*
X150492112Y-55290606D01*
X150486082Y-55293291D01*
X150486081Y-55293291D01*
X150323678Y-55365597D01*
X150323676Y-55365598D01*
X150317648Y-55368282D01*
X150312307Y-55372162D01*
X150312306Y-55372163D01*
X150176170Y-55471072D01*
X150109302Y-55494930D01*
X150050862Y-55484244D01*
X150021319Y-55471091D01*
X150021318Y-55471091D01*
X150015288Y-55468406D01*
X149921887Y-55448553D01*
X149834944Y-55430072D01*
X149834939Y-55430072D01*
X149828487Y-55428700D01*
X149637513Y-55428700D01*
X149631061Y-55430072D01*
X149631056Y-55430072D01*
X149544112Y-55448553D01*
X149450712Y-55468406D01*
X149444682Y-55471091D01*
X149444681Y-55471091D01*
X149282278Y-55543397D01*
X149282276Y-55543398D01*
X149276248Y-55546082D01*
X149270907Y-55549962D01*
X149270906Y-55549963D01*
X149254518Y-55561870D01*
X149121747Y-55658334D01*
X149117326Y-55663244D01*
X149117325Y-55663245D01*
X149054518Y-55733000D01*
X148993960Y-55800256D01*
X148898473Y-55965644D01*
X148839458Y-56147272D01*
X148838768Y-56153833D01*
X148838768Y-56153835D01*
X148825648Y-56278671D01*
X148819496Y-56337200D01*
X145796000Y-56337200D01*
X145796000Y-55409672D01*
X145816002Y-55341551D01*
X145869658Y-55295058D01*
X145922000Y-55283672D01*
X146047924Y-55283672D01*
X146054376Y-55282300D01*
X146054381Y-55282300D01*
X146146871Y-55262640D01*
X146234725Y-55243966D01*
X146242775Y-55240382D01*
X146403159Y-55168975D01*
X146403161Y-55168974D01*
X146409189Y-55166290D01*
X146435817Y-55146944D01*
X146479673Y-55115080D01*
X146563690Y-55054038D01*
X146574220Y-55042343D01*
X146687058Y-54917024D01*
X146687059Y-54917023D01*
X146691477Y-54912116D01*
X146786964Y-54746728D01*
X146845979Y-54565100D01*
X146850507Y-54522024D01*
X146865251Y-54381737D01*
X146865941Y-54375172D01*
X146865251Y-54368607D01*
X146846669Y-54191807D01*
X146846669Y-54191805D01*
X146845979Y-54185244D01*
X146802425Y-54051200D01*
X148946496Y-54051200D01*
X148947186Y-54057765D01*
X148959925Y-54178966D01*
X148966458Y-54241128D01*
X149025473Y-54422756D01*
X149028776Y-54428478D01*
X149028777Y-54428479D01*
X149046319Y-54458863D01*
X149120960Y-54588144D01*
X149125378Y-54593051D01*
X149125379Y-54593052D01*
X149193183Y-54668356D01*
X149248747Y-54730066D01*
X149403248Y-54842318D01*
X149409276Y-54845002D01*
X149409278Y-54845003D01*
X149571041Y-54917024D01*
X149577712Y-54919994D01*
X149665307Y-54938613D01*
X149758056Y-54958328D01*
X149758061Y-54958328D01*
X149764513Y-54959700D01*
X149955487Y-54959700D01*
X149961939Y-54958328D01*
X149961944Y-54958328D01*
X150054693Y-54938613D01*
X150142288Y-54919994D01*
X150148959Y-54917024D01*
X150310722Y-54845003D01*
X150310724Y-54845002D01*
X150316752Y-54842318D01*
X150471253Y-54730066D01*
X150526817Y-54668356D01*
X152550152Y-54668356D01*
X152556898Y-54680688D01*
X153337188Y-55460978D01*
X153351132Y-55468592D01*
X153352965Y-55468461D01*
X153359580Y-55464210D01*
X154144330Y-54679460D01*
X154150394Y-54668356D01*
X160810152Y-54668356D01*
X160816898Y-54680688D01*
X161597188Y-55460978D01*
X161611132Y-55468592D01*
X161612965Y-55468461D01*
X161619580Y-55464210D01*
X162404330Y-54679460D01*
X162411351Y-54666604D01*
X162403578Y-54655936D01*
X162400068Y-54653164D01*
X162391481Y-54647459D01*
X162323624Y-54610000D01*
X165456496Y-54610000D01*
X165457186Y-54616565D01*
X165470867Y-54746728D01*
X165476458Y-54799928D01*
X165535473Y-54981556D01*
X165538776Y-54987278D01*
X165538777Y-54987279D01*
X165552515Y-55011073D01*
X165630960Y-55146944D01*
X165635378Y-55151851D01*
X165635379Y-55151852D01*
X165752835Y-55282300D01*
X165758747Y-55288866D01*
X165839503Y-55347539D01*
X165900861Y-55392118D01*
X165913248Y-55401118D01*
X165919276Y-55403802D01*
X165919278Y-55403803D01*
X166081681Y-55476109D01*
X166087712Y-55478794D01*
X166177523Y-55497884D01*
X166268056Y-55517128D01*
X166268061Y-55517128D01*
X166274513Y-55518500D01*
X166465487Y-55518500D01*
X166471939Y-55517128D01*
X166471944Y-55517128D01*
X166562477Y-55497884D01*
X166652288Y-55478794D01*
X166658319Y-55476109D01*
X166820722Y-55403803D01*
X166820724Y-55403802D01*
X166826752Y-55401118D01*
X166839140Y-55392118D01*
X166900497Y-55347539D01*
X166981253Y-55288866D01*
X166987165Y-55282300D01*
X167104621Y-55151852D01*
X167104622Y-55151851D01*
X167109040Y-55146944D01*
X167187485Y-55011073D01*
X167201223Y-54987279D01*
X167201224Y-54987278D01*
X167204527Y-54981556D01*
X167263542Y-54799928D01*
X167269134Y-54746728D01*
X167282814Y-54616565D01*
X167283504Y-54610000D01*
X167270429Y-54485601D01*
X167283201Y-54415764D01*
X167302097Y-54388129D01*
X167425053Y-54251573D01*
X167520540Y-54086185D01*
X167579555Y-53904557D01*
X167584105Y-53861272D01*
X167598827Y-53721194D01*
X167598827Y-53721193D01*
X167599517Y-53714629D01*
X167595840Y-53679644D01*
X167580245Y-53531264D01*
X167580245Y-53531262D01*
X167579555Y-53524701D01*
X167520540Y-53343073D01*
X167425053Y-53177685D01*
X167393553Y-53142700D01*
X167301688Y-53040674D01*
X167301687Y-53040673D01*
X167297266Y-53035763D01*
X167142765Y-52923511D01*
X167136737Y-52920827D01*
X167136735Y-52920826D01*
X166974332Y-52848520D01*
X166974331Y-52848520D01*
X166968301Y-52845835D01*
X166874900Y-52825982D01*
X166787957Y-52807501D01*
X166787952Y-52807501D01*
X166781500Y-52806129D01*
X166590526Y-52806129D01*
X166584074Y-52807501D01*
X166584069Y-52807501D01*
X166497126Y-52825982D01*
X166403725Y-52845835D01*
X166397695Y-52848520D01*
X166397694Y-52848520D01*
X166235291Y-52920826D01*
X166235289Y-52920827D01*
X166229261Y-52923511D01*
X166074760Y-53035763D01*
X166070339Y-53040673D01*
X166070338Y-53040674D01*
X165978474Y-53142700D01*
X165946973Y-53177685D01*
X165851486Y-53343073D01*
X165792471Y-53524701D01*
X165791781Y-53531262D01*
X165791781Y-53531264D01*
X165776186Y-53679644D01*
X165772509Y-53714629D01*
X165785584Y-53839028D01*
X165772812Y-53908865D01*
X165753916Y-53936500D01*
X165630960Y-54073056D01*
X165535473Y-54238444D01*
X165476458Y-54420072D01*
X165475768Y-54426633D01*
X165475768Y-54426635D01*
X165465322Y-54526021D01*
X165456496Y-54610000D01*
X162323624Y-54610000D01*
X162196769Y-54539972D01*
X162187357Y-54535742D01*
X161977698Y-54461497D01*
X161967728Y-54458863D01*
X161748757Y-54419860D01*
X161738503Y-54418890D01*
X161516091Y-54416172D01*
X161505807Y-54416892D01*
X161285950Y-54450535D01*
X161275922Y-54452924D01*
X161064510Y-54522024D01*
X161055001Y-54526021D01*
X160857718Y-54628720D01*
X160848997Y-54634212D01*
X160818605Y-54657031D01*
X160810152Y-54668356D01*
X154150394Y-54668356D01*
X154151351Y-54666604D01*
X154143578Y-54655936D01*
X154140068Y-54653164D01*
X154131481Y-54647459D01*
X153936769Y-54539972D01*
X153927357Y-54535742D01*
X153717698Y-54461497D01*
X153707728Y-54458863D01*
X153488757Y-54419860D01*
X153478503Y-54418890D01*
X153256091Y-54416172D01*
X153245807Y-54416892D01*
X153025950Y-54450535D01*
X153015922Y-54452924D01*
X152804510Y-54522024D01*
X152795001Y-54526021D01*
X152597718Y-54628720D01*
X152588997Y-54634212D01*
X152558605Y-54657031D01*
X152550152Y-54668356D01*
X150526817Y-54668356D01*
X150594621Y-54593052D01*
X150594622Y-54593051D01*
X150599040Y-54588144D01*
X150673681Y-54458863D01*
X150691223Y-54428479D01*
X150691224Y-54428478D01*
X150694527Y-54422756D01*
X150711629Y-54370120D01*
X150751702Y-54311515D01*
X150817099Y-54283878D01*
X150857658Y-54285810D01*
X150915955Y-54298201D01*
X150930847Y-54301366D01*
X151121821Y-54301366D01*
X151128273Y-54299994D01*
X151128278Y-54299994D01*
X151215222Y-54281513D01*
X151308622Y-54261660D01*
X151331278Y-54251573D01*
X151477056Y-54186669D01*
X151477058Y-54186668D01*
X151483086Y-54183984D01*
X151637587Y-54071732D01*
X151765374Y-53929810D01*
X151860861Y-53764422D01*
X151919876Y-53582794D01*
X151927596Y-53509348D01*
X151939148Y-53399431D01*
X151939838Y-53392866D01*
X151919876Y-53202938D01*
X151860861Y-53021310D01*
X151765374Y-52855922D01*
X151637587Y-52714000D01*
X151505385Y-52617949D01*
X151494291Y-52609889D01*
X152187941Y-52609889D01*
X152193222Y-52616944D01*
X152371829Y-52721314D01*
X152381112Y-52725761D01*
X152588904Y-52805109D01*
X152598806Y-52807986D01*
X152816749Y-52852327D01*
X152827001Y-52853550D01*
X153049267Y-52861700D01*
X153059553Y-52861233D01*
X153280180Y-52832970D01*
X153290258Y-52830828D01*
X153503300Y-52766912D01*
X153512898Y-52763150D01*
X153712640Y-52665299D01*
X153721487Y-52660025D01*
X153780475Y-52617949D01*
X153786804Y-52609889D01*
X161167941Y-52609889D01*
X161173222Y-52616944D01*
X161351829Y-52721314D01*
X161361112Y-52725761D01*
X161568904Y-52805109D01*
X161578806Y-52807986D01*
X161796749Y-52852327D01*
X161807001Y-52853550D01*
X162029267Y-52861700D01*
X162039553Y-52861233D01*
X162260180Y-52832970D01*
X162270258Y-52830828D01*
X162483300Y-52766912D01*
X162492898Y-52763150D01*
X162692640Y-52665299D01*
X162701487Y-52660025D01*
X162760475Y-52617949D01*
X162768875Y-52607251D01*
X162761887Y-52594097D01*
X161982812Y-51815022D01*
X161968868Y-51807408D01*
X161967035Y-51807539D01*
X161960420Y-51811790D01*
X161174701Y-52597509D01*
X161167941Y-52609889D01*
X153786804Y-52609889D01*
X153788875Y-52607251D01*
X153781887Y-52594097D01*
X153002812Y-51815022D01*
X152988868Y-51807408D01*
X152987035Y-51807539D01*
X152980420Y-51811790D01*
X152194701Y-52597509D01*
X152187941Y-52609889D01*
X151494291Y-52609889D01*
X151488428Y-52605629D01*
X151488427Y-52605628D01*
X151483086Y-52601748D01*
X151477058Y-52599064D01*
X151477056Y-52599063D01*
X151314653Y-52526757D01*
X151314652Y-52526757D01*
X151308622Y-52524072D01*
X151215221Y-52504219D01*
X151128278Y-52485738D01*
X151128273Y-52485738D01*
X151121821Y-52484366D01*
X150930847Y-52484366D01*
X150924395Y-52485738D01*
X150924390Y-52485738D01*
X150837447Y-52504219D01*
X150744046Y-52524072D01*
X150738016Y-52526757D01*
X150738015Y-52526757D01*
X150575612Y-52599063D01*
X150575610Y-52599064D01*
X150569582Y-52601748D01*
X150564241Y-52605628D01*
X150564240Y-52605629D01*
X150547283Y-52617949D01*
X150415081Y-52714000D01*
X150287294Y-52855922D01*
X150191807Y-53021310D01*
X150189765Y-53027595D01*
X150174705Y-53073945D01*
X150134632Y-53132551D01*
X150069235Y-53160188D01*
X150028676Y-53158256D01*
X149961946Y-53144073D01*
X149961947Y-53144073D01*
X149955487Y-53142700D01*
X149764513Y-53142700D01*
X149758061Y-53144072D01*
X149758056Y-53144072D01*
X149691328Y-53158256D01*
X149577712Y-53182406D01*
X149571682Y-53185091D01*
X149571681Y-53185091D01*
X149409278Y-53257397D01*
X149409276Y-53257398D01*
X149403248Y-53260082D01*
X149248747Y-53372334D01*
X149244326Y-53377244D01*
X149244325Y-53377245D01*
X149181815Y-53446670D01*
X149120960Y-53514256D01*
X149025473Y-53679644D01*
X148966458Y-53861272D01*
X148965768Y-53867833D01*
X148965768Y-53867835D01*
X148958550Y-53936508D01*
X148946496Y-54051200D01*
X146802425Y-54051200D01*
X146786964Y-54003616D01*
X146691477Y-53838228D01*
X146563690Y-53696306D01*
X146409189Y-53584054D01*
X146403161Y-53581370D01*
X146403159Y-53581369D01*
X146240756Y-53509063D01*
X146240755Y-53509063D01*
X146234725Y-53506378D01*
X146141324Y-53486525D01*
X146054381Y-53468044D01*
X146054376Y-53468044D01*
X146047924Y-53466672D01*
X145922000Y-53466672D01*
X145853879Y-53446670D01*
X145807386Y-53393014D01*
X145796000Y-53340672D01*
X145796000Y-49833329D01*
X145797500Y-49813944D01*
X145799805Y-49799143D01*
X145799805Y-49799140D01*
X145801186Y-49790271D01*
X145800009Y-49781270D01*
X145799738Y-49750832D01*
X145807148Y-49685065D01*
X145813427Y-49657557D01*
X145841619Y-49576989D01*
X145853861Y-49551568D01*
X145899278Y-49479287D01*
X145916870Y-49457228D01*
X145977228Y-49396870D01*
X145999287Y-49379278D01*
X146071568Y-49333861D01*
X146096989Y-49321619D01*
X146177557Y-49293427D01*
X146205063Y-49287148D01*
X146219232Y-49285551D01*
X146264260Y-49280478D01*
X146279902Y-49279695D01*
X146288857Y-49279804D01*
X146297731Y-49281186D01*
X146329253Y-49277064D01*
X146345590Y-49276000D01*
X148642382Y-49276000D01*
X148710503Y-49296002D01*
G37*
%TD.AperFunction*%
%TA.AperFunction,Conductor*%
G36*
X149965388Y-72848731D02*
G01*
X150006570Y-72906563D01*
X150013500Y-72947774D01*
X150013500Y-75997361D01*
X149993498Y-76065482D01*
X149976595Y-76086456D01*
X149132056Y-76930995D01*
X149069744Y-76965021D01*
X149042961Y-76967900D01*
X148951713Y-76967900D01*
X148945261Y-76969272D01*
X148945256Y-76969272D01*
X148866574Y-76985997D01*
X148764912Y-77007606D01*
X148758885Y-77010289D01*
X148758877Y-77010292D01*
X148680311Y-77045272D01*
X148609944Y-77054706D01*
X148545647Y-77024599D01*
X148507834Y-76964510D01*
X148508510Y-76893517D01*
X148516103Y-76874346D01*
X148599093Y-76706429D01*
X148664630Y-76490719D01*
X148694057Y-76267203D01*
X148695699Y-76200000D01*
X148686364Y-76086456D01*
X148677650Y-75980464D01*
X148677649Y-75980458D01*
X148677226Y-75975313D01*
X148627004Y-75775370D01*
X148623563Y-75761670D01*
X148623562Y-75761666D01*
X148622304Y-75756659D01*
X148620245Y-75751923D01*
X148534468Y-75554649D01*
X148534466Y-75554646D01*
X148532408Y-75549912D01*
X148409952Y-75360624D01*
X148258224Y-75193877D01*
X148081300Y-75054151D01*
X148056472Y-75040445D01*
X148006503Y-74990015D01*
X147991731Y-74920572D01*
X148016847Y-74854166D01*
X148044198Y-74827560D01*
X148075922Y-74804932D01*
X148117287Y-74775426D01*
X148203743Y-74713758D01*
X148203748Y-74713754D01*
X148207955Y-74710753D01*
X148367647Y-74551618D01*
X148373841Y-74542999D01*
X148427666Y-74468093D01*
X148499204Y-74368537D01*
X148599093Y-74166429D01*
X148664630Y-73950719D01*
X148694057Y-73727203D01*
X148694139Y-73723853D01*
X148695617Y-73663365D01*
X148695617Y-73663361D01*
X148695699Y-73660000D01*
X148684800Y-73527435D01*
X148682504Y-73499506D01*
X148696857Y-73429976D01*
X148746522Y-73379243D01*
X148815732Y-73363415D01*
X148834277Y-73365935D01*
X148869056Y-73373328D01*
X148869061Y-73373328D01*
X148875513Y-73374700D01*
X149066487Y-73374700D01*
X149072939Y-73373328D01*
X149072944Y-73373328D01*
X149159887Y-73354847D01*
X149253288Y-73334994D01*
X149300516Y-73313967D01*
X149421722Y-73260003D01*
X149421724Y-73260002D01*
X149427752Y-73257318D01*
X149582253Y-73145066D01*
X149604142Y-73120756D01*
X149705621Y-73008052D01*
X149705622Y-73008051D01*
X149710040Y-73003144D01*
X149778381Y-72884774D01*
X149829763Y-72835781D01*
X149899477Y-72822345D01*
X149965388Y-72848731D01*
G37*
%TD.AperFunction*%
%TA.AperFunction,Conductor*%
G36*
X153784024Y-71367452D02*
G01*
X153843008Y-71406965D01*
X153866062Y-71448712D01*
X153875674Y-71478295D01*
X153878977Y-71484017D01*
X153878978Y-71484018D01*
X153883330Y-71491556D01*
X153971161Y-71643683D01*
X153975579Y-71648590D01*
X153975580Y-71648591D01*
X154053820Y-71735485D01*
X154098948Y-71785605D01*
X154253449Y-71897857D01*
X154259477Y-71900541D01*
X154259479Y-71900542D01*
X154421882Y-71972848D01*
X154427913Y-71975533D01*
X154521313Y-71995386D01*
X154608257Y-72013867D01*
X154608262Y-72013867D01*
X154614714Y-72015239D01*
X154705962Y-72015239D01*
X154774083Y-72035241D01*
X154795057Y-72052144D01*
X155452106Y-72709193D01*
X155486132Y-72771505D01*
X155489011Y-72798288D01*
X155489011Y-74714953D01*
X155487933Y-74731396D01*
X155483761Y-74763089D01*
X155484839Y-74771278D01*
X155487240Y-74789514D01*
X155489011Y-74802969D01*
X155489011Y-74802974D01*
X155500396Y-74889451D01*
X155504673Y-74921940D01*
X155565987Y-75069965D01*
X155571014Y-75076516D01*
X155571015Y-75076518D01*
X155639031Y-75165158D01*
X155639037Y-75165164D01*
X155663524Y-75197076D01*
X155670079Y-75202106D01*
X155688890Y-75216541D01*
X155701281Y-75227408D01*
X155782816Y-75308943D01*
X155816842Y-75371255D01*
X155819721Y-75398038D01*
X155819721Y-75748399D01*
X155799719Y-75816520D01*
X155746063Y-75863013D01*
X155693721Y-75874399D01*
X155623493Y-75874399D01*
X155617041Y-75875771D01*
X155617036Y-75875771D01*
X155530093Y-75894252D01*
X155436692Y-75914105D01*
X155430662Y-75916790D01*
X155430661Y-75916790D01*
X155268258Y-75989096D01*
X155268256Y-75989097D01*
X155262228Y-75991781D01*
X155256887Y-75995661D01*
X155256886Y-75995662D01*
X155213763Y-76026993D01*
X155146895Y-76050851D01*
X155077744Y-76034771D01*
X155037767Y-75999120D01*
X155035207Y-75995597D01*
X155031903Y-75989874D01*
X154904116Y-75847952D01*
X154781434Y-75758818D01*
X154738080Y-75702596D01*
X154732005Y-75631859D01*
X154740387Y-75605635D01*
X154741549Y-75603025D01*
X154744852Y-75597304D01*
X154803867Y-75415676D01*
X154812819Y-75330508D01*
X154823139Y-75232313D01*
X154823829Y-75225748D01*
X154820881Y-75197696D01*
X154804557Y-75042383D01*
X154804557Y-75042381D01*
X154803867Y-75035820D01*
X154744852Y-74854192D01*
X154737623Y-74841670D01*
X154696981Y-74771278D01*
X154649365Y-74688804D01*
X154628081Y-74665165D01*
X154526000Y-74551793D01*
X154525999Y-74551792D01*
X154521578Y-74546882D01*
X154367077Y-74434630D01*
X154361049Y-74431946D01*
X154361047Y-74431945D01*
X154198644Y-74359639D01*
X154198643Y-74359639D01*
X154192613Y-74356954D01*
X154186157Y-74355582D01*
X154183976Y-74354873D01*
X154125370Y-74314798D01*
X154103080Y-74273977D01*
X154075493Y-74189074D01*
X154073452Y-74182792D01*
X153977965Y-74017404D01*
X153913305Y-73945592D01*
X153859718Y-73886077D01*
X153829000Y-73822070D01*
X153837765Y-73751616D01*
X153883228Y-73697085D01*
X153902106Y-73686660D01*
X153942919Y-73668489D01*
X153948952Y-73665803D01*
X153961556Y-73656646D01*
X154066018Y-73580749D01*
X154103453Y-73553551D01*
X154231240Y-73411629D01*
X154316895Y-73263271D01*
X154323423Y-73251964D01*
X154323424Y-73251963D01*
X154326727Y-73246241D01*
X154385742Y-73064613D01*
X154388661Y-73036845D01*
X154405014Y-72881250D01*
X154405704Y-72874685D01*
X154397699Y-72798518D01*
X154386432Y-72691320D01*
X154386432Y-72691318D01*
X154385742Y-72684757D01*
X154326727Y-72503129D01*
X154321808Y-72494608D01*
X154267543Y-72400620D01*
X154231240Y-72337741D01*
X154161318Y-72260084D01*
X154107875Y-72200730D01*
X154107874Y-72200729D01*
X154103453Y-72195819D01*
X153948952Y-72083567D01*
X153942924Y-72080883D01*
X153942922Y-72080882D01*
X153780519Y-72008576D01*
X153780518Y-72008576D01*
X153774488Y-72005891D01*
X153674445Y-71984626D01*
X153594144Y-71967557D01*
X153594139Y-71967557D01*
X153587687Y-71966185D01*
X153396713Y-71966185D01*
X153390255Y-71967558D01*
X153390252Y-71967558D01*
X153389908Y-71967631D01*
X153389704Y-71967615D01*
X153383685Y-71968248D01*
X153383569Y-71967147D01*
X153319117Y-71962231D01*
X153262484Y-71919415D01*
X153243876Y-71883323D01*
X153236267Y-71859905D01*
X153234228Y-71853629D01*
X153230926Y-71847910D01*
X153229528Y-71844770D01*
X153220093Y-71774403D01*
X153250199Y-71710105D01*
X153293385Y-71678413D01*
X153384337Y-71637919D01*
X153384339Y-71637918D01*
X153390367Y-71635234D01*
X153396103Y-71631067D01*
X153487214Y-71564870D01*
X153544868Y-71522982D01*
X153652594Y-71403340D01*
X153713040Y-71366100D01*
X153784024Y-71367452D01*
G37*
%TD.AperFunction*%
%TA.AperFunction,Conductor*%
G36*
X169100586Y-71557872D02*
G01*
X169149774Y-71609069D01*
X169164000Y-71667229D01*
X169164000Y-73120756D01*
X169143998Y-73188877D01*
X169090342Y-73235370D01*
X169020068Y-73245474D01*
X168955488Y-73215980D01*
X168922450Y-73170998D01*
X168854468Y-73014649D01*
X168854466Y-73014646D01*
X168852408Y-73009912D01*
X168729952Y-72820624D01*
X168578224Y-72653877D01*
X168401300Y-72514151D01*
X168376472Y-72500445D01*
X168326503Y-72450015D01*
X168311731Y-72380572D01*
X168336847Y-72314166D01*
X168364198Y-72287560D01*
X168380024Y-72276272D01*
X168460128Y-72219134D01*
X168523743Y-72173758D01*
X168523748Y-72173754D01*
X168527955Y-72170753D01*
X168687647Y-72011618D01*
X168702305Y-71991220D01*
X168750357Y-71924348D01*
X168819204Y-71828537D01*
X168821497Y-71823898D01*
X168916801Y-71631067D01*
X168916802Y-71631064D01*
X168919093Y-71626429D01*
X168920596Y-71621482D01*
X168920849Y-71620843D01*
X168964525Y-71564870D01*
X169031528Y-71541395D01*
X169100586Y-71557872D01*
G37*
%TD.AperFunction*%
%TA.AperFunction,Conductor*%
G36*
X149790436Y-62858502D02*
G01*
X149811410Y-62875405D01*
X150491150Y-63555145D01*
X150502017Y-63567536D01*
X150521478Y-63592898D01*
X150528028Y-63597924D01*
X150553386Y-63617382D01*
X150553402Y-63617396D01*
X150602770Y-63655277D01*
X150648589Y-63690435D01*
X150796614Y-63751749D01*
X150955465Y-63772662D01*
X150987164Y-63768489D01*
X151003609Y-63767411D01*
X151044050Y-63767411D01*
X151112171Y-63787413D01*
X151158664Y-63841069D01*
X151168768Y-63911343D01*
X151139274Y-63975923D01*
X151133145Y-63982506D01*
X150225766Y-64889885D01*
X150213375Y-64900752D01*
X150188013Y-64920213D01*
X150163526Y-64952125D01*
X150163523Y-64952128D01*
X150150323Y-64969330D01*
X150115285Y-65014993D01*
X150090476Y-65047324D01*
X150037904Y-65174245D01*
X150029162Y-65195350D01*
X150013500Y-65314315D01*
X150013500Y-65314320D01*
X150008250Y-65354200D01*
X150009328Y-65362388D01*
X150012422Y-65385890D01*
X150013500Y-65402336D01*
X150013500Y-70153639D01*
X149993498Y-70221760D01*
X149939842Y-70268253D01*
X149869568Y-70278357D01*
X149804988Y-70248863D01*
X149787766Y-70230099D01*
X149786240Y-70227456D01*
X149781112Y-70221760D01*
X149662875Y-70090445D01*
X149662873Y-70090443D01*
X149658453Y-70085534D01*
X149540016Y-69999484D01*
X149509294Y-69977163D01*
X149509293Y-69977162D01*
X149503952Y-69973282D01*
X149497924Y-69970598D01*
X149497922Y-69970597D01*
X149335519Y-69898291D01*
X149335518Y-69898291D01*
X149329488Y-69895606D01*
X149217293Y-69871758D01*
X149149144Y-69857272D01*
X149149139Y-69857272D01*
X149142687Y-69855900D01*
X148951713Y-69855900D01*
X148945261Y-69857272D01*
X148945256Y-69857272D01*
X148877107Y-69871758D01*
X148764912Y-69895606D01*
X148758882Y-69898291D01*
X148758881Y-69898291D01*
X148596478Y-69970597D01*
X148596476Y-69970598D01*
X148590448Y-69973282D01*
X148585107Y-69977162D01*
X148585106Y-69977163D01*
X148477269Y-70055512D01*
X148435947Y-70085534D01*
X148431531Y-70090439D01*
X148431526Y-70090443D01*
X148426213Y-70096345D01*
X148365769Y-70133588D01*
X148294785Y-70132239D01*
X148254481Y-70110921D01*
X148234313Y-70094993D01*
X148081300Y-69974151D01*
X148056472Y-69960445D01*
X148006503Y-69910015D01*
X147991731Y-69840572D01*
X148016847Y-69774166D01*
X148044198Y-69747560D01*
X148203743Y-69633758D01*
X148203748Y-69633754D01*
X148207955Y-69630753D01*
X148367647Y-69471618D01*
X148499204Y-69288537D01*
X148521756Y-69242908D01*
X148596799Y-69091070D01*
X148599093Y-69086429D01*
X148664630Y-68870719D01*
X148694057Y-68647203D01*
X148694614Y-68624397D01*
X148695617Y-68583365D01*
X148695617Y-68583361D01*
X148695699Y-68580000D01*
X148689588Y-68505668D01*
X148677650Y-68360464D01*
X148677649Y-68360458D01*
X148677226Y-68355313D01*
X148622304Y-68136659D01*
X148608527Y-68104974D01*
X148534468Y-67934649D01*
X148534466Y-67934646D01*
X148532408Y-67929912D01*
X148409952Y-67740624D01*
X148258224Y-67573877D01*
X148081300Y-67434151D01*
X148056472Y-67420445D01*
X148006503Y-67370015D01*
X147991731Y-67300572D01*
X148016847Y-67234166D01*
X148044198Y-67207560D01*
X148203743Y-67093758D01*
X148203748Y-67093754D01*
X148207955Y-67090753D01*
X148367647Y-66931618D01*
X148499204Y-66748537D01*
X148599093Y-66546429D01*
X148664630Y-66330719D01*
X148694057Y-66107203D01*
X148695263Y-66057864D01*
X148695617Y-66043365D01*
X148695617Y-66043361D01*
X148695699Y-66040000D01*
X148683167Y-65887568D01*
X148677650Y-65820464D01*
X148677649Y-65820458D01*
X148677226Y-65815313D01*
X148622304Y-65596659D01*
X148620245Y-65591923D01*
X148534468Y-65394649D01*
X148534466Y-65394646D01*
X148532408Y-65389912D01*
X148409952Y-65200624D01*
X148258224Y-65033877D01*
X148081300Y-64894151D01*
X148055988Y-64880178D01*
X148006018Y-64829746D01*
X147991246Y-64760303D01*
X148016362Y-64693898D01*
X148043714Y-64667291D01*
X148078210Y-64642686D01*
X148086610Y-64631987D01*
X148079621Y-64618831D01*
X147049885Y-63589095D01*
X147015859Y-63526783D01*
X147020924Y-63455968D01*
X147049885Y-63410905D01*
X147230905Y-63229885D01*
X147293217Y-63195859D01*
X147364032Y-63200924D01*
X147409095Y-63229885D01*
X148439431Y-64260221D01*
X148451442Y-64266780D01*
X148463181Y-64257812D01*
X148495754Y-64212482D01*
X148501068Y-64203637D01*
X148596332Y-64010886D01*
X148600130Y-64001293D01*
X148662637Y-63795557D01*
X148664814Y-63785487D01*
X148693118Y-63570500D01*
X148693637Y-63563825D01*
X148695115Y-63503364D01*
X148694921Y-63496647D01*
X148677155Y-63280546D01*
X148675472Y-63270384D01*
X148623088Y-63061832D01*
X148619768Y-63052079D01*
X148603533Y-63014741D01*
X148594714Y-62944295D01*
X148625381Y-62880263D01*
X148685798Y-62842976D01*
X148719083Y-62838500D01*
X149722315Y-62838500D01*
X149790436Y-62858502D01*
G37*
%TD.AperFunction*%
%TD*%
M02*
