%TF.GenerationSoftware,KiCad,Pcbnew,(6.0.2)*%
%TF.CreationDate,2022-07-01T18:11:32+02:00*%
%TF.ProjectId,Easy C3 Dev Board,45617379-2043-4332-9044-657620426f61,rev?*%
%TF.SameCoordinates,Original*%
%TF.FileFunction,Legend,Top*%
%TF.FilePolarity,Positive*%
%FSLAX46Y46*%
G04 Gerber Fmt 4.6, Leading zero omitted, Abs format (unit mm)*
G04 Created by KiCad (PCBNEW (6.0.2)) date 2022-07-01 18:11:32*
%MOMM*%
%LPD*%
G01*
G04 APERTURE LIST*
%ADD10C,0.200000*%
%ADD11C,0.100000*%
%ADD12C,0.250000*%
%ADD13C,0.120000*%
G04 APERTURE END LIST*
D10*
%TO.C,J3*%
X146151000Y-90020000D02*
X146151000Y-59840000D01*
X148488000Y-60960000D02*
X148488000Y-90020000D01*
X148488000Y-90020000D02*
X146151000Y-90020000D01*
X146151000Y-59840000D02*
X147320000Y-59840000D01*
%TO.C,R10*%
X154874000Y-82533000D02*
X154874000Y-83583000D01*
%TO.C,R4*%
X151130000Y-60435000D02*
X151130000Y-61485000D01*
%TO.C,R5*%
X150351000Y-80264000D02*
X151401000Y-80264000D01*
%TO.C,Q3*%
X165280000Y-72107000D02*
X162380000Y-72107000D01*
X165330000Y-70257000D02*
X165330000Y-71307000D01*
X165280000Y-71657000D02*
X165280000Y-72107000D01*
X162380000Y-72107000D02*
X162380000Y-71657000D01*
X162380000Y-71657000D02*
X165280000Y-71657000D01*
D11*
%TO.C,ANT1*%
X163510000Y-82488000D02*
X163510000Y-82488000D01*
X163510000Y-82388000D02*
X163510000Y-82388000D01*
X163510000Y-82488000D02*
G75*
G03*
X163510000Y-82388000I0J50000D01*
G01*
X163510000Y-82388000D02*
G75*
G03*
X163510000Y-82488000I0J-50000D01*
G01*
D10*
%TO.C,R11*%
X163830000Y-80027000D02*
X163830000Y-78977000D01*
%TO.C,R2*%
X152637000Y-80264000D02*
X153687000Y-80264000D01*
%TO.C,R7*%
X150097000Y-67818000D02*
X151147000Y-67818000D01*
%TO.C,D2*%
X146768000Y-49130000D02*
X148428000Y-49130000D01*
X147228000Y-49930000D02*
X148428000Y-49930000D01*
%TO.C,J2*%
X166471000Y-59840000D02*
X167640000Y-59840000D01*
X166471000Y-90020000D02*
X166471000Y-59840000D01*
X168808000Y-60960000D02*
X168808000Y-90020000D01*
X168808000Y-90020000D02*
X166471000Y-90020000D01*
D12*
%TO.C,IC1*%
X157887843Y-77478377D02*
G75*
G03*
X157887843Y-77478377I-125000J0D01*
G01*
D10*
%TO.C,IC2*%
X156857000Y-89737000D02*
X152007000Y-89737000D01*
X156857000Y-84507000D02*
X156857000Y-89737000D01*
X152007000Y-84507000D02*
X156857000Y-84507000D01*
X152007000Y-89737000D02*
X152007000Y-84507000D01*
X150007000Y-84542000D02*
X151657000Y-84542000D01*
%TO.C,L1*%
X168305000Y-52070000D02*
X166975000Y-52070000D01*
%TO.C,R8*%
X151318000Y-82533000D02*
X151318000Y-83583000D01*
%TO.C,L2*%
X157323000Y-81534000D02*
X158653000Y-81534000D01*
%TO.C,R3*%
X159004000Y-61485000D02*
X159004000Y-60435000D01*
%TO.C,R9*%
X147828000Y-57167000D02*
X147828000Y-56117000D01*
%TO.C,D4*%
X168290000Y-57492000D02*
X168290000Y-55792000D01*
X166990000Y-58342000D02*
X166990000Y-55792000D01*
D13*
%TO.C,U1*%
X152420000Y-65786000D02*
X152420000Y-63836000D01*
X162540000Y-65786000D02*
X162540000Y-62336000D01*
X162540000Y-65786000D02*
X162540000Y-67736000D01*
X152420000Y-65786000D02*
X152420000Y-67736000D01*
D10*
%TO.C,IC3*%
X163047000Y-59004000D02*
X163597000Y-59004000D01*
X163597000Y-61900000D02*
X163047000Y-61900000D01*
X161447000Y-58938000D02*
X162697000Y-58938000D01*
X163047000Y-61900000D02*
X163047000Y-59004000D01*
X163597000Y-59004000D02*
X163597000Y-61900000D01*
%TO.C,R13*%
X163830000Y-83549000D02*
X163830000Y-84599000D01*
%TO.C,Q2*%
X149680000Y-71657000D02*
X152580000Y-71657000D01*
X152630000Y-70257000D02*
X152630000Y-71307000D01*
X152580000Y-72107000D02*
X149680000Y-72107000D01*
X149680000Y-72107000D02*
X149680000Y-71657000D01*
X152580000Y-71657000D02*
X152580000Y-72107000D01*
D11*
%TO.C,Y1*%
X164714000Y-86726000D02*
X164714000Y-86726000D01*
X164614000Y-86726000D02*
X164614000Y-86726000D01*
X164714000Y-86726000D02*
G75*
G03*
X164614000Y-86726000I-50000J0D01*
G01*
X164614000Y-86726000D02*
G75*
G03*
X164714000Y-86726000I50000J0D01*
G01*
D10*
%TO.C,Q1*%
X163092000Y-58267000D02*
X163092000Y-57017000D01*
X166042000Y-56667000D02*
X163142000Y-56667000D01*
X166042000Y-56617000D02*
X166042000Y-56667000D01*
X163142000Y-56667000D02*
X163142000Y-56617000D01*
X163142000Y-56617000D02*
X166042000Y-56617000D01*
%TO.C,R12*%
X164863000Y-67818000D02*
X163813000Y-67818000D01*
%TO.C,Q4*%
X152130000Y-57733000D02*
X150130000Y-57733000D01*
X152130000Y-57583000D02*
X152130000Y-57733000D01*
X150130000Y-57583000D02*
X152130000Y-57583000D01*
X149955000Y-59233000D02*
X149955000Y-58083000D01*
X150130000Y-57733000D02*
X150130000Y-57583000D01*
%TO.C,J1*%
X152990000Y-48913000D02*
X153006000Y-50048000D01*
X160230000Y-59333000D02*
X160230000Y-59333000D01*
X161955000Y-54448000D02*
X161970000Y-52848000D01*
X160230000Y-59333000D02*
X160230000Y-59333000D01*
X161955000Y-50048000D02*
X161955000Y-48913000D01*
X152990000Y-54448000D02*
X153006000Y-52848000D01*
X161955000Y-48913000D02*
X152990000Y-48913000D01*
X160230000Y-59433000D02*
X160230000Y-59433000D01*
X161970000Y-58783000D02*
X153006000Y-58783000D01*
X153006000Y-58783000D02*
X153006000Y-57248000D01*
X161955000Y-57248000D02*
X161970000Y-58783000D01*
X160230000Y-59333000D02*
G75*
G03*
X160230000Y-59433000I0J-50000D01*
G01*
X160230000Y-59433000D02*
G75*
G03*
X160231000Y-59333000I500J50000D01*
G01*
X160230000Y-59333000D02*
G75*
G03*
X160230000Y-59433000I0J-50000D01*
G01*
%TO.C,D1*%
X151530000Y-50892000D02*
X151530000Y-49692000D01*
X150730000Y-51352000D02*
X150730000Y-49692000D01*
%TO.C,R6*%
X150097000Y-64008000D02*
X151147000Y-64008000D01*
D11*
%TO.C,Y2*%
X151880000Y-53598000D02*
X151880000Y-54098000D01*
X150380000Y-53598000D02*
X150380000Y-54098000D01*
X150380000Y-54098000D02*
X150380000Y-53598000D01*
X151880000Y-54098000D02*
X151880000Y-53598000D01*
D10*
X151330000Y-51448000D02*
X151330000Y-51448000D01*
D11*
X151880000Y-53598000D02*
X151880000Y-53598000D01*
X150380000Y-53598000D02*
X150380000Y-53598000D01*
X150380000Y-54098000D02*
X150380000Y-54098000D01*
X151880000Y-54098000D02*
X151880000Y-54098000D01*
D10*
X151330000Y-51548000D02*
X151330000Y-51548000D01*
X151330000Y-51448000D02*
X151330000Y-51448000D01*
X151330000Y-51448000D02*
G75*
G03*
X151330000Y-51548000I0J-50000D01*
G01*
X151330000Y-51448000D02*
G75*
G03*
X151330000Y-51548000I0J-50000D01*
G01*
X151330000Y-51548000D02*
G75*
G03*
X151330000Y-51448000I0J50000D01*
G01*
%TO.C,D3*%
X147228000Y-51438000D02*
X148428000Y-51438000D01*
X146768000Y-50638000D02*
X148428000Y-50638000D01*
%TO.C,R1*%
X154923000Y-80264000D02*
X155973000Y-80264000D01*
%TD*%
M02*
