M48
; DRILL file {KiCad (6.0.2)} date Fri Jul  1 18:11:34 2022
; FORMAT={-:-/ absolute / metric / decimal}
; #@! TF.CreationDate,2022-07-01T18:11:34+02:00
; #@! TF.GenerationSoftware,Kicad,Pcbnew,(6.0.2)
; #@! TF.FileFunction,MixedPlating,1,4
FMAT,2
METRIC
; #@! TA.AperFunction,Plated,PTH,ViaDrill
T1C0.400
; #@! TA.AperFunction,Plated,PTH,ComponentDrill
T2C0.400
; #@! TA.AperFunction,Plated,PTH,ComponentDrill
T3C1.150
; #@! TA.AperFunction,Plated,PTH,ComponentDrill
T4C1.210
; #@! TA.AperFunction,NonPlated,NPTH,ComponentDrill
T5C0.650
; #@! TA.AperFunction,NonPlated,NPTH,ComponentDrill
T6C1.150
%
G90
G05
T1
X145.952Y-54.375
X148.971Y-72.466
X149.047Y-70.764
X149.047Y-77.876
X149.152Y-60.066
X149.276Y-79.527
X149.547Y-50.995
X149.606Y-49.784
X149.733Y-56.337
X149.86Y-54.051
X149.86Y-73.66
X150.001Y-84.582
X150.724Y-62.008
X150.774Y-56.159
X151.026Y-53.393
X151.562Y-67.361
X151.774Y-66.022
X151.79Y-68.377
X152.087Y-78.247
X152.141Y-82.177
X152.146Y-49.784
X152.146Y-86.614
X152.4Y-72.225
X152.934Y-70.844
X153.113Y-84.885
X153.162Y-61.609
X153.239Y-74.554
X153.492Y-72.875
X153.758Y-77.312
X153.91Y-75.226
X154.026Y-78.715
X154.081Y-59.675
X154.293Y-76.527
X154.39Y-66.429
X154.465Y-70.189
X154.71Y-71.107
X154.942Y-77.328
X155.295Y-84.481
X155.351Y-69.847
X155.372Y-82.264
X155.448Y-73.66
X155.702Y-58.928
X155.719Y-76.783
X156.21Y-64.77
X156.3Y-69.857
X156.671Y-79.731
X157.008Y-61.747
X157.078Y-78.283
X157.222Y-58.523
X157.226Y-64.77
X157.48Y-71.628
X157.48Y-73.66
X157.48Y-75.692
X157.734Y-69.85
X157.988Y-84.328
X158.153Y-58.708
X158.545Y-67.219
X158.723Y-79.373
X158.725Y-78.359
X158.727Y-69.849
X158.964Y-62.509
X158.964Y-68.605
X158.979Y-64.897
X158.989Y-86.106
X159.168Y-59.912
X159.36Y-66.429
X159.461Y-89.013
X159.492Y-77.801
X159.512Y-73.66
X159.676Y-69.881
X159.81Y-64.215
X159.979Y-76.957
X160.225Y-62.371
X160.274Y-71.12
X160.452Y-78.055
X160.528Y-59.578
X160.633Y-70.201
X161.265Y-73.711
X161.403Y-77.72
X161.504Y-63.094
X161.544Y-81.788
X161.798Y-70.866
X161.798Y-84.074
X161.963Y-76.111
X162.052Y-78.994
X162.433Y-74.244
X163.072Y-69.417
X164.135Y-70.46
X164.258Y-69.418
X164.592Y-80.518
X164.846Y-60.452
X164.846Y-72.898
X165.117Y-76.708
X166.37Y-54.61
X166.686Y-53.715
T2
X154.68Y-56.433
X155.08Y-55.733
X155.88Y-55.733
X156.28Y-56.433
X156.68Y-55.733
X157.08Y-56.433
X157.88Y-56.433
X158.28Y-55.733
X158.68Y-56.433
X159.08Y-55.733
X159.88Y-55.733
X160.28Y-56.433
T3
X147.32Y-60.96
X147.32Y-63.5
X147.32Y-66.04
X147.32Y-68.58
X147.32Y-71.12
X147.32Y-73.66
X147.32Y-76.2
X147.32Y-78.74
X147.32Y-81.28
X147.32Y-83.82
X147.32Y-86.36
X147.32Y-88.9
X167.64Y-60.96
X167.64Y-63.5
X167.64Y-66.04
X167.64Y-68.58
X167.64Y-71.12
X167.64Y-73.66
X167.64Y-76.2
X167.64Y-78.74
X167.64Y-81.28
X167.64Y-83.82
X167.64Y-86.36
X167.64Y-88.9
T4
X152.99Y-51.443
X153.35Y-55.833
X161.61Y-55.833
X161.97Y-51.443
T5
X161.08Y-57.083
T6
X153.88Y-57.083
T0
M30
