%TF.GenerationSoftware,KiCad,Pcbnew,(6.0.2)*%
%TF.CreationDate,2022-07-01T18:11:32+02:00*%
%TF.ProjectId,Easy C3 Dev Board,45617379-2043-4332-9044-657620426f61,rev?*%
%TF.SameCoordinates,Original*%
%TF.FileFunction,Soldermask,Top*%
%TF.FilePolarity,Negative*%
%FSLAX46Y46*%
G04 Gerber Fmt 4.6, Leading zero omitted, Abs format (unit mm)*
G04 Created by KiCad (PCBNEW (6.0.2)) date 2022-07-01 18:11:32*
%MOMM*%
%LPD*%
G01*
G04 APERTURE LIST*
G04 Aperture macros list*
%AMRoundRect*
0 Rectangle with rounded corners*
0 $1 Rounding radius*
0 $2 $3 $4 $5 $6 $7 $8 $9 X,Y pos of 4 corners*
0 Add a 4 corners polygon primitive as box body*
4,1,4,$2,$3,$4,$5,$6,$7,$8,$9,$2,$3,0*
0 Add four circle primitives for the rounded corners*
1,1,$1+$1,$2,$3*
1,1,$1+$1,$4,$5*
1,1,$1+$1,$6,$7*
1,1,$1+$1,$8,$9*
0 Add four rect primitives between the rounded corners*
20,1,$1+$1,$2,$3,$4,$5,0*
20,1,$1+$1,$4,$5,$6,$7,0*
20,1,$1+$1,$6,$7,$8,$9,0*
20,1,$1+$1,$8,$9,$2,$3,0*%
%AMRotRect*
0 Rectangle, with rotation*
0 The origin of the aperture is its center*
0 $1 length*
0 $2 width*
0 $3 Rotation angle, in degrees counterclockwise*
0 Add horizontal line*
21,1,$1,$2,0,0,$3*%
G04 Aperture macros list end*
%ADD10C,0.150000*%
%ADD11R,1.725000X1.725000*%
%ADD12C,1.725000*%
%ADD13R,1.020000X1.470000*%
%ADD14R,1.000000X1.450000*%
%ADD15R,1.470000X1.020000*%
%ADD16R,1.450000X1.000000*%
%ADD17R,0.600000X1.050000*%
%ADD18R,0.300000X0.250000*%
%ADD19R,0.570000X0.420000*%
%ADD20RotRect,0.300000X0.800000X225.000000*%
%ADD21RotRect,0.300000X0.800000X135.000000*%
%ADD22RotRect,3.750000X3.750000X135.000000*%
%ADD23R,1.650000X0.650000*%
%ADD24R,1.780000X1.020000*%
%ADD25R,0.500000X1.075000*%
%ADD26RoundRect,0.150000X-0.150000X0.825000X-0.150000X-0.825000X0.150000X-0.825000X0.150000X0.825000X0*%
%ADD27R,1.250000X0.650000*%
%ADD28R,1.200000X1.000000*%
%ADD29R,0.600000X1.250000*%
%ADD30R,0.550000X1.150000*%
%ADD31C,1.150000*%
%ADD32C,0.650000*%
%ADD33R,0.300000X0.900000*%
%ADD34C,1.815000*%
%ADD35R,0.420000X0.570000*%
%ADD36R,1.800000X1.000000*%
G04 APERTURE END LIST*
D10*
X160883600Y-72948800D02*
X160324800Y-73533000D01*
X160324800Y-73533000D02*
X157632400Y-70815200D01*
X157632400Y-70815200D02*
X158191200Y-70256400D01*
X158191200Y-70256400D02*
X160883600Y-72948800D01*
G36*
X160883600Y-72948800D02*
G01*
X160324800Y-73533000D01*
X157632400Y-70815200D01*
X158191200Y-70256400D01*
X160883600Y-72948800D01*
G37*
X160883600Y-72948800D02*
X160324800Y-73533000D01*
X157632400Y-70815200D01*
X158191200Y-70256400D01*
X160883600Y-72948800D01*
X157327600Y-70815200D02*
X154635200Y-73507600D01*
X154635200Y-73507600D02*
X154101800Y-72974200D01*
X154101800Y-72974200D02*
X156794200Y-70256400D01*
X156794200Y-70256400D02*
X157327600Y-70815200D01*
G36*
X157327600Y-70815200D02*
G01*
X154635200Y-73507600D01*
X154101800Y-72974200D01*
X156794200Y-70256400D01*
X157327600Y-70815200D01*
G37*
X157327600Y-70815200D02*
X154635200Y-73507600D01*
X154101800Y-72974200D01*
X156794200Y-70256400D01*
X157327600Y-70815200D01*
X157327600Y-76504800D02*
X156768800Y-77063600D01*
X156768800Y-77063600D02*
X154076400Y-74371200D01*
X154076400Y-74371200D02*
X154660600Y-73812400D01*
X154660600Y-73812400D02*
X157327600Y-76504800D01*
G36*
X157327600Y-76504800D02*
G01*
X156768800Y-77063600D01*
X154076400Y-74371200D01*
X154660600Y-73812400D01*
X157327600Y-76504800D01*
G37*
X157327600Y-76504800D02*
X156768800Y-77063600D01*
X154076400Y-74371200D01*
X154660600Y-73812400D01*
X157327600Y-76504800D01*
X160858200Y-74371200D02*
X158191200Y-77038200D01*
X158191200Y-77038200D02*
X157632400Y-76479400D01*
X157632400Y-76479400D02*
X160299400Y-73812400D01*
X160299400Y-73812400D02*
X160858200Y-74371200D01*
G36*
X160858200Y-74371200D02*
G01*
X158191200Y-77038200D01*
X157632400Y-76479400D01*
X160299400Y-73812400D01*
X160858200Y-74371200D01*
G37*
X160858200Y-74371200D02*
X158191200Y-77038200D01*
X157632400Y-76479400D01*
X160299400Y-73812400D01*
X160858200Y-74371200D01*
D11*
%TO.C,J3*%
X147320000Y-60960000D03*
D12*
X147320000Y-63500000D03*
X147320000Y-66040000D03*
X147320000Y-68580000D03*
X147320000Y-71120000D03*
X147320000Y-73660000D03*
X147320000Y-76200000D03*
X147320000Y-78740000D03*
X147320000Y-81280000D03*
X147320000Y-83820000D03*
X147320000Y-86360000D03*
X147320000Y-88900000D03*
%TD*%
D13*
%TO.C,C5*%
X150330000Y-76962000D03*
X151930000Y-76962000D03*
%TD*%
D14*
%TO.C,R10*%
X153924000Y-83058000D03*
X155824000Y-83058000D03*
%TD*%
D15*
%TO.C,C13*%
X165354000Y-88176000D03*
X165354000Y-86576000D03*
%TD*%
D14*
%TO.C,R4*%
X150180000Y-60960000D03*
X152080000Y-60960000D03*
%TD*%
D13*
%TO.C,C8*%
X154356000Y-60960000D03*
X155956000Y-60960000D03*
%TD*%
D16*
%TO.C,R5*%
X150876000Y-81214000D03*
X150876000Y-79314000D03*
%TD*%
D13*
%TO.C,C6*%
X164630000Y-75438000D03*
X163030000Y-75438000D03*
%TD*%
D17*
%TO.C,Q3*%
X164780000Y-70782000D03*
X162880000Y-70782000D03*
X163830000Y-72982000D03*
%TD*%
D18*
%TO.C,ANT1*%
X163510000Y-81963000D03*
X163510000Y-81613000D03*
X164150000Y-81963000D03*
X164150000Y-81613000D03*
%TD*%
D14*
%TO.C,R11*%
X164780000Y-79502000D03*
X162880000Y-79502000D03*
%TD*%
D13*
%TO.C,C1*%
X163792000Y-51816000D03*
X165392000Y-51816000D03*
%TD*%
D16*
%TO.C,R2*%
X153162000Y-81214000D03*
X153162000Y-79314000D03*
%TD*%
%TO.C,R7*%
X150622000Y-68768000D03*
X150622000Y-66868000D03*
%TD*%
D19*
%TO.C,D2*%
X147053000Y-49530000D03*
X148603000Y-49530000D03*
%TD*%
D11*
%TO.C,J2*%
X167640000Y-60960000D03*
D12*
X167640000Y-63500000D03*
X167640000Y-66040000D03*
X167640000Y-68580000D03*
X167640000Y-71120000D03*
X167640000Y-73660000D03*
X167640000Y-76200000D03*
X167640000Y-78740000D03*
X167640000Y-81280000D03*
X167640000Y-83820000D03*
X167640000Y-86360000D03*
X167640000Y-88900000D03*
%TD*%
D13*
%TO.C,C14*%
X147028000Y-52832000D03*
X148628000Y-52832000D03*
%TD*%
D20*
%TO.C,IC1*%
X158010330Y-76665204D03*
X158363883Y-76311650D03*
X158717437Y-75958097D03*
X159070990Y-75604544D03*
X159424544Y-75250990D03*
X159778097Y-74897437D03*
X160131650Y-74543883D03*
X160485204Y-74190330D03*
D21*
X160485204Y-73129670D03*
X160131650Y-72776117D03*
X159778097Y-72422563D03*
X159424544Y-72069010D03*
X159070990Y-71715456D03*
X158717437Y-71361903D03*
X158363883Y-71008350D03*
X158010330Y-70654796D03*
D20*
X156949670Y-70654796D03*
X156596117Y-71008350D03*
X156242563Y-71361903D03*
X155889010Y-71715456D03*
X155535456Y-72069010D03*
X155181903Y-72422563D03*
X154828350Y-72776117D03*
X154474796Y-73129670D03*
D21*
X154474796Y-74190330D03*
X154828350Y-74543883D03*
X155181903Y-74897437D03*
X155535456Y-75250990D03*
X155889010Y-75604544D03*
X156242563Y-75958097D03*
X156596117Y-76311650D03*
X156949670Y-76665204D03*
D22*
X157480000Y-73660000D03*
%TD*%
D13*
%TO.C,C7*%
X150330000Y-74930000D03*
X151930000Y-74930000D03*
%TD*%
D23*
%TO.C,IC2*%
X150832000Y-85217000D03*
X150832000Y-86487000D03*
X150832000Y-87757000D03*
X150832000Y-89027000D03*
X158032000Y-89027000D03*
X158032000Y-87757000D03*
X158032000Y-86487000D03*
X158032000Y-85217000D03*
%TD*%
D13*
%TO.C,C10*%
X147028000Y-58674000D03*
X148628000Y-58674000D03*
%TD*%
D15*
%TO.C,C9*%
X160274000Y-84366000D03*
X160274000Y-82766000D03*
%TD*%
D24*
%TO.C,L1*%
X167640000Y-51180000D03*
X167640000Y-52960000D03*
%TD*%
D13*
%TO.C,C4*%
X164630000Y-77470000D03*
X163030000Y-77470000D03*
%TD*%
D15*
%TO.C,C12*%
X164338000Y-62954000D03*
X164338000Y-64554000D03*
%TD*%
%TO.C,C11*%
X160274000Y-81064000D03*
X160274000Y-79464000D03*
%TD*%
D13*
%TO.C,C2*%
X163792000Y-53848000D03*
X165392000Y-53848000D03*
%TD*%
D14*
%TO.C,R8*%
X150368000Y-83058000D03*
X152268000Y-83058000D03*
%TD*%
D24*
%TO.C,L2*%
X157988000Y-82424000D03*
X157988000Y-80644000D03*
%TD*%
D15*
%TO.C,C16*%
X160274000Y-88176000D03*
X160274000Y-86576000D03*
%TD*%
D14*
%TO.C,R3*%
X159954000Y-60960000D03*
X158054000Y-60960000D03*
%TD*%
%TO.C,R9*%
X148778000Y-56642000D03*
X146878000Y-56642000D03*
%TD*%
D25*
%TO.C,D4*%
X167640000Y-57804000D03*
X167640000Y-55480000D03*
%TD*%
D26*
%TO.C,U1*%
X161925000Y-63311000D03*
X160655000Y-63311000D03*
X159385000Y-63311000D03*
X158115000Y-63311000D03*
X156845000Y-63311000D03*
X155575000Y-63311000D03*
X154305000Y-63311000D03*
X153035000Y-63311000D03*
X153035000Y-68261000D03*
X154305000Y-68261000D03*
X155575000Y-68261000D03*
X156845000Y-68261000D03*
X158115000Y-68261000D03*
X159385000Y-68261000D03*
X160655000Y-68261000D03*
X161925000Y-68261000D03*
%TD*%
D27*
%TO.C,IC3*%
X162072000Y-59512000D03*
X162072000Y-60452000D03*
X162072000Y-61392000D03*
X164572000Y-61392000D03*
X164572000Y-59512000D03*
%TD*%
D14*
%TO.C,R13*%
X162880000Y-84074000D03*
X164780000Y-84074000D03*
%TD*%
D17*
%TO.C,Q2*%
X152080000Y-70782000D03*
X150180000Y-70782000D03*
X151130000Y-72982000D03*
%TD*%
D28*
%TO.C,Y1*%
X163664000Y-86726000D03*
X161964000Y-86726000D03*
X161964000Y-88026000D03*
X163664000Y-88026000D03*
%TD*%
D29*
%TO.C,Q1*%
X163642000Y-57642000D03*
X165542000Y-57642000D03*
X164592000Y-55642000D03*
%TD*%
D13*
%TO.C,C3*%
X163792000Y-49784000D03*
X165392000Y-49784000D03*
%TD*%
D16*
%TO.C,R12*%
X164338000Y-66868000D03*
X164338000Y-68768000D03*
%TD*%
D30*
%TO.C,Q4*%
X150480000Y-58658000D03*
X151780000Y-58658000D03*
X151130000Y-56658000D03*
%TD*%
D31*
%TO.C,J1*%
X153880000Y-57083000D03*
D32*
X161080000Y-57083000D03*
D33*
X160230000Y-57643000D03*
X159730000Y-57643000D03*
X159230000Y-57643000D03*
X158730000Y-57643000D03*
X158230000Y-57643000D03*
X157730000Y-57643000D03*
X157230000Y-57643000D03*
X156730000Y-57643000D03*
X156230000Y-57643000D03*
X155730000Y-57643000D03*
X155230000Y-57643000D03*
X154730000Y-57643000D03*
D32*
X154680000Y-56433000D03*
X155080000Y-55733000D03*
X155880000Y-55733000D03*
X156280000Y-56433000D03*
X156680000Y-55733000D03*
X157080000Y-56433000D03*
X157880000Y-56433000D03*
X158280000Y-55733000D03*
X158680000Y-56433000D03*
X159080000Y-55733000D03*
X159880000Y-55733000D03*
X160280000Y-56433000D03*
D34*
X161610000Y-55833000D03*
X161970000Y-51443000D03*
X152990000Y-51443000D03*
X153350000Y-55833000D03*
%TD*%
D35*
%TO.C,D1*%
X151130000Y-51067000D03*
X151130000Y-49517000D03*
%TD*%
D16*
%TO.C,R6*%
X150622000Y-64958000D03*
X150622000Y-63058000D03*
%TD*%
D36*
%TO.C,Y2*%
X151130000Y-52598000D03*
X151130000Y-55098000D03*
%TD*%
D13*
%TO.C,C15*%
X147028000Y-54610000D03*
X148628000Y-54610000D03*
%TD*%
D19*
%TO.C,D3*%
X147053000Y-51038000D03*
X148603000Y-51038000D03*
%TD*%
D16*
%TO.C,R1*%
X155448000Y-81214000D03*
X155448000Y-79314000D03*
%TD*%
M02*
