%TF.GenerationSoftware,KiCad,Pcbnew,(6.0.2)*%
%TF.CreationDate,2022-07-01T18:11:32+02:00*%
%TF.ProjectId,Easy C3 Dev Board,45617379-2043-4332-9044-657620426f61,rev?*%
%TF.SameCoordinates,Original*%
%TF.FileFunction,Copper,L2,Inr*%
%TF.FilePolarity,Positive*%
%FSLAX46Y46*%
G04 Gerber Fmt 4.6, Leading zero omitted, Abs format (unit mm)*
G04 Created by KiCad (PCBNEW (6.0.2)) date 2022-07-01 18:11:32*
%MOMM*%
%LPD*%
G01*
G04 APERTURE LIST*
%TA.AperFunction,ComponentPad*%
%ADD10R,1.725000X1.725000*%
%TD*%
%TA.AperFunction,ComponentPad*%
%ADD11C,1.725000*%
%TD*%
%TA.AperFunction,ComponentPad*%
%ADD12C,0.650000*%
%TD*%
%TA.AperFunction,ComponentPad*%
%ADD13C,1.815000*%
%TD*%
%TA.AperFunction,ViaPad*%
%ADD14C,0.800000*%
%TD*%
%TA.AperFunction,Conductor*%
%ADD15C,0.200000*%
%TD*%
G04 APERTURE END LIST*
D10*
%TO.N,VDD5*%
%TO.C,J3*%
X147320000Y-60960000D03*
D11*
%TO.N,GND*%
X147320000Y-63500000D03*
%TO.N,VDD33*%
X147320000Y-66040000D03*
%TO.N,GPIO0*%
X147320000Y-68580000D03*
%TO.N,GPIO1*%
X147320000Y-71120000D03*
%TO.N,GPIO2*%
X147320000Y-73660000D03*
%TO.N,GPIO3*%
X147320000Y-76200000D03*
%TO.N,GPIO10*%
X147320000Y-78740000D03*
%TO.N,GPIO20*%
X147320000Y-81280000D03*
%TO.N,GPIO21*%
X147320000Y-83820000D03*
%TO.N,GPIO18*%
X147320000Y-86360000D03*
%TO.N,GPIO19*%
X147320000Y-88900000D03*
%TD*%
D10*
%TO.N,VDD5*%
%TO.C,J2*%
X167640000Y-60960000D03*
D11*
%TO.N,GND*%
X167640000Y-63500000D03*
%TO.N,VDD33*%
X167640000Y-66040000D03*
%TO.N,CHIP_EN*%
X167640000Y-68580000D03*
%TO.N,GPIO4*%
X167640000Y-71120000D03*
%TO.N,GPIO5*%
X167640000Y-73660000D03*
%TO.N,GPIO6*%
X167640000Y-76200000D03*
%TO.N,GPIO7*%
X167640000Y-78740000D03*
%TO.N,GPIO8*%
X167640000Y-81280000D03*
%TO.N,GPIO9*%
X167640000Y-83820000D03*
%TO.N,GND*%
X167640000Y-86360000D03*
X167640000Y-88900000D03*
%TD*%
D12*
%TO.N,GND*%
%TO.C,J1*%
X154680000Y-56433000D03*
%TO.N,unconnected-(J1-PadB2)*%
X155080000Y-55733000D03*
%TO.N,unconnected-(J1-PadB3)*%
X155880000Y-55733000D03*
%TO.N,VUSB*%
X156280000Y-56433000D03*
%TO.N,unconnected-(J1-PadB5)*%
X156680000Y-55733000D03*
%TO.N,DP*%
X157080000Y-56433000D03*
%TO.N,DN*%
X157880000Y-56433000D03*
%TO.N,unconnected-(J1-PadB8)*%
X158280000Y-55733000D03*
%TO.N,VUSB*%
X158680000Y-56433000D03*
%TO.N,unconnected-(J1-PadB10)*%
X159080000Y-55733000D03*
%TO.N,unconnected-(J1-PadB11)*%
X159880000Y-55733000D03*
%TO.N,GND*%
X160280000Y-56433000D03*
D13*
X161610000Y-55833000D03*
X161970000Y-51443000D03*
X152990000Y-51443000D03*
X153350000Y-55833000D03*
%TD*%
D14*
%TO.N,GPIO1*%
X151026334Y-53392866D03*
%TO.N,VDD33*%
X150774400Y-56159400D03*
%TO.N,GPIO8*%
X149733000Y-56337200D03*
X154389620Y-66429420D03*
X159359600Y-66429420D03*
%TO.N,VDD33_RAW*%
X158978600Y-64897000D03*
%TO.N,/DTR#*%
X158544679Y-67219300D03*
%TO.N,VDD33_RAW*%
X164257652Y-69418200D03*
X162433000Y-74244200D03*
%TO.N,GPIO21*%
X159809959Y-64214858D03*
X149047200Y-77876400D03*
X149275800Y-79527400D03*
%TO.N,GPIO0*%
X149860000Y-54051200D03*
X145952437Y-54375172D03*
%TO.N,Net-(Q3-Pad1)*%
X151561800Y-67360800D03*
%TO.N,/RTS#*%
X158964500Y-68605400D03*
%TO.N,Net-(Q3-Pad1)*%
X164134800Y-70459600D03*
%TO.N,/DTR#*%
X163072473Y-69417500D03*
%TO.N,GPIO20*%
X160225066Y-62371500D03*
%TO.N,GPIO21*%
X158964500Y-62509400D03*
%TO.N,GND*%
X161504500Y-63093600D03*
%TO.N,GPIO2*%
X161402500Y-77719860D03*
%TO.N,CHIP_EN*%
X159978516Y-76956816D03*
%TO.N,GPIO0*%
X159492497Y-77800529D03*
%TO.N,CHIP_EN*%
X148971000Y-72466200D03*
%TO.N,GPIO3*%
X149047200Y-70764400D03*
X161264600Y-73710800D03*
%TO.N,CHIP_EN*%
X161963093Y-76111107D03*
%TO.N,GPIO1*%
X160451800Y-78054989D03*
%TO.N,SPIQ*%
X153492200Y-72874685D03*
%TO.N,Net-(IC1-Pad2)*%
X166686013Y-53714629D03*
X158724600Y-78359000D03*
%TO.N,SPICS0*%
X156670811Y-79730600D03*
%TO.N,VDD33_RAW*%
X157077732Y-78282800D03*
X158722534Y-79372934D03*
%TO.N,SPICLK*%
X155371800Y-82263502D03*
X152933615Y-70844116D03*
%TO.N,SPID*%
X152140934Y-82176921D03*
X152399701Y-72225185D03*
%TO.N,SPIQ*%
X154025600Y-78714600D03*
%TO.N,GPIO18*%
X153238925Y-74554348D03*
%TO.N,GPIO19*%
X153910325Y-75225748D03*
%TO.N,RXD*%
X159167688Y-59911595D03*
X149152086Y-60066423D03*
X153758385Y-77311603D03*
%TO.N,/DTR#*%
X151773789Y-66021874D03*
%TO.N,/RTS#*%
X151790400Y-68376800D03*
%TO.N,TXD*%
X150723600Y-62008498D03*
X154292863Y-76526818D03*
%TO.N,XTAL_N*%
X159461200Y-89012500D03*
X154941888Y-77328500D03*
%TO.N,XTAL_P*%
X161798000Y-84074000D03*
X155718980Y-76782899D03*
%TO.N,SPICS0*%
X154710201Y-71106739D03*
%TO.N,SPIWP*%
X152086734Y-78246502D03*
X154465118Y-70189412D03*
%TO.N,GND*%
X149860000Y-73660000D03*
X165116980Y-76708000D03*
%TO.N,SPIHD*%
X162052000Y-78994000D03*
%TO.N,GND*%
X157480000Y-73660000D03*
X157480000Y-75692000D03*
X157480000Y-71628000D03*
X155448000Y-73660000D03*
X159512000Y-73660000D03*
%TO.N,SPIHD*%
X155350716Y-69846963D03*
%TO.N,Net-(IC2-Pad1)*%
X150001500Y-84582000D03*
X155295255Y-84480745D03*
%TO.N,Net-(IC2-Pad2)*%
X152146000Y-86614000D03*
X153113266Y-84884734D03*
%TO.N,Net-(IC2-Pad7)*%
X164592000Y-80518000D03*
X158989498Y-86106000D03*
%TO.N,VDD_SPI*%
X157988000Y-84328000D03*
X156300170Y-69856576D03*
%TO.N,GPIO21*%
X153162000Y-61609500D03*
%TO.N,VDD33_RAW*%
X154080500Y-59675498D03*
%TO.N,GPIO10*%
X157734000Y-69850000D03*
%TO.N,GPIO9*%
X158727098Y-69849237D03*
X164846000Y-72898000D03*
%TO.N,GPIO8*%
X159676074Y-69880846D03*
%TO.N,GPIO7*%
X160633291Y-70201461D03*
%TO.N,GPIO6*%
X160274000Y-71120000D03*
%TO.N,GPIO5*%
X161798000Y-70866000D03*
%TO.N,VUSB*%
X152146000Y-49784000D03*
X155702000Y-58928000D03*
%TO.N,DP*%
X158153151Y-58708499D03*
X157226000Y-64770000D03*
%TO.N,DN*%
X156210000Y-64770000D03*
%TO.N,VDD5*%
X157007962Y-61746596D03*
%TO.N,VDD33_RAW*%
X164846000Y-60452000D03*
X166370000Y-54610000D03*
%TO.N,GND*%
X160528000Y-59577500D03*
%TO.N,DN*%
X149546734Y-50994734D03*
%TO.N,DP*%
X149606000Y-49784000D03*
%TO.N,DN*%
X157221911Y-58523173D03*
%TO.N,GND*%
X161544000Y-81788000D03*
%TD*%
D15*
%TO.N,GPIO1*%
X145897600Y-69697600D02*
X147320000Y-71120000D01*
X149599786Y-53392866D02*
X145897600Y-57095052D01*
X145897600Y-57095052D02*
X145897600Y-69697600D01*
X151026334Y-53392866D02*
X149599786Y-53392866D01*
%TO.N,GPIO8*%
X149733000Y-56489600D02*
X149733000Y-56337200D01*
X151917400Y-58674000D02*
X149733000Y-56489600D01*
X154389620Y-61146220D02*
X151917400Y-58674000D01*
X154389620Y-66429420D02*
X154389620Y-61146220D01*
X159418820Y-66429420D02*
X159359600Y-66429420D01*
X159676074Y-66686674D02*
X159418820Y-66429420D01*
X159676074Y-69880846D02*
X159676074Y-66686674D01*
%TO.N,VDD33_RAW*%
X159054800Y-64973200D02*
X158978600Y-64897000D01*
X160858200Y-64973200D02*
X159054800Y-64973200D01*
X161394003Y-65509003D02*
X160858200Y-64973200D01*
X164846000Y-65024000D02*
X164360997Y-65509003D01*
X164846000Y-60452000D02*
X164846000Y-65024000D01*
X164360997Y-65509003D02*
X161394003Y-65509003D01*
%TO.N,Net-(IC1-Pad2)*%
X155560489Y-62244511D02*
X158381700Y-59423300D01*
X157084489Y-67778089D02*
X155560489Y-66254089D01*
X157084489Y-70313941D02*
X157084489Y-67778089D01*
X158129511Y-71358963D02*
X157084489Y-70313941D01*
X158394400Y-78359000D02*
X158129511Y-78094111D01*
X155560489Y-66254089D02*
X155560489Y-62244511D01*
X158724600Y-78359000D02*
X158394400Y-78359000D01*
X158129511Y-78094111D02*
X158129511Y-71358963D01*
%TO.N,VDD33_RAW*%
X162433000Y-71242852D02*
X164257652Y-69418200D01*
X162433000Y-74244200D02*
X162433000Y-71242852D01*
%TO.N,CHIP_EN*%
X160824225Y-76111107D02*
X159978516Y-76956816D01*
X161963093Y-76111107D02*
X160824225Y-76111107D01*
%TO.N,GPIO2*%
X149479000Y-74193400D02*
X147853400Y-74193400D01*
X151231600Y-75946000D02*
X149479000Y-74193400D01*
X151231600Y-79070200D02*
X151231600Y-75946000D01*
X157480000Y-85318600D02*
X151231600Y-79070200D01*
X158419800Y-85318600D02*
X157480000Y-85318600D01*
X158902400Y-84836000D02*
X158419800Y-85318600D01*
X158496000Y-81381600D02*
X158496000Y-83921600D01*
X158496000Y-83921600D02*
X158902400Y-84328000D01*
X158902400Y-84328000D02*
X158902400Y-84836000D01*
X161402500Y-78475100D02*
X158496000Y-81381600D01*
X161402500Y-77719860D02*
X161402500Y-78475100D01*
X147853400Y-74193400D02*
X147320000Y-73660000D01*
%TO.N,CHIP_EN*%
X168757600Y-74371200D02*
X168757600Y-69697600D01*
X168325800Y-74803000D02*
X168757600Y-74371200D01*
X165912800Y-75869800D02*
X166979600Y-74803000D01*
X166979600Y-74803000D02*
X168325800Y-74803000D01*
X162204400Y-75869800D02*
X165912800Y-75869800D01*
X161963093Y-76111107D02*
X162204400Y-75869800D01*
X168757600Y-69697600D02*
X167640000Y-68580000D01*
%TO.N,Net-(IC1-Pad2)*%
X159664400Y-58140600D02*
X158292800Y-59512200D01*
X166020771Y-53714629D02*
X161594800Y-58140600D01*
X161594800Y-58140600D02*
X159664400Y-58140600D01*
X166686013Y-53714629D02*
X166020771Y-53714629D01*
%TO.N,VDD_SPI*%
X156021311Y-82361311D02*
X157988000Y-84328000D01*
X156718000Y-77724000D02*
X156021311Y-78420689D01*
X156718000Y-70274406D02*
X156718000Y-77724000D01*
X156300170Y-69856576D02*
X156718000Y-70274406D01*
X156021311Y-78420689D02*
X156021311Y-82361311D01*
%TO.N,RXD*%
X149521601Y-60066423D02*
X149152086Y-60066423D01*
X150074089Y-60618911D02*
X149521601Y-60066423D01*
X150074089Y-72802340D02*
X150074089Y-60618911D01*
X153643352Y-76371603D02*
X150074089Y-72802340D01*
X153758385Y-77311603D02*
X153643352Y-77196570D01*
X153643352Y-77196570D02*
X153643352Y-76371603D01*
%TO.N,TXD*%
X150723600Y-62008498D02*
X150723600Y-72957555D01*
X150723600Y-72957555D02*
X154292863Y-76526818D01*
%TO.N,SPIWP*%
X152355236Y-77978000D02*
X152086734Y-78246502D01*
X155606480Y-77978000D02*
X152355236Y-77978000D01*
X156368480Y-77216000D02*
X155606480Y-77978000D01*
X156368480Y-71786480D02*
X156368480Y-77216000D01*
X154771412Y-70189412D02*
X156368480Y-71786480D01*
X154465118Y-70189412D02*
X154771412Y-70189412D01*
%TO.N,VUSB*%
X151832989Y-50097011D02*
X152146000Y-49784000D01*
X151832989Y-56343460D02*
X151832989Y-50097011D01*
X154417529Y-58928000D02*
X151832989Y-56343460D01*
X155702000Y-58928000D02*
X154417529Y-58928000D01*
%TD*%
%TA.AperFunction,Conductor*%
%TO.N,GND*%
G36*
X149242882Y-74821902D02*
G01*
X149263856Y-74838805D01*
X150586195Y-76161144D01*
X150620221Y-76223456D01*
X150623100Y-76250239D01*
X150623100Y-79022064D01*
X150622022Y-79038507D01*
X150617850Y-79070200D01*
X150618928Y-79078389D01*
X150620704Y-79091879D01*
X150623100Y-79110080D01*
X150623100Y-79110085D01*
X150629574Y-79159260D01*
X150638762Y-79229051D01*
X150700076Y-79377076D01*
X150705103Y-79383627D01*
X150705104Y-79383629D01*
X150773120Y-79472269D01*
X150773126Y-79472275D01*
X150797613Y-79504187D01*
X150804168Y-79509217D01*
X150822979Y-79523652D01*
X150835370Y-79534519D01*
X152358338Y-81057487D01*
X152392364Y-81119799D01*
X152387299Y-81190614D01*
X152344752Y-81247450D01*
X152278232Y-81272261D01*
X152249471Y-81270273D01*
X152249449Y-81270484D01*
X152243537Y-81269863D01*
X152243049Y-81269829D01*
X152242886Y-81269794D01*
X152242875Y-81269793D01*
X152236421Y-81268421D01*
X152045447Y-81268421D01*
X152038995Y-81269793D01*
X152038990Y-81269793D01*
X151975141Y-81283365D01*
X151858646Y-81308127D01*
X151852616Y-81310812D01*
X151852615Y-81310812D01*
X151690212Y-81383118D01*
X151690210Y-81383119D01*
X151684182Y-81385803D01*
X151678841Y-81389683D01*
X151678840Y-81389684D01*
X151635077Y-81421480D01*
X151529681Y-81498055D01*
X151401894Y-81639977D01*
X151366434Y-81701395D01*
X151327363Y-81769069D01*
X151306407Y-81805365D01*
X151247392Y-81986993D01*
X151246702Y-81993554D01*
X151246702Y-81993556D01*
X151234541Y-82109262D01*
X151227430Y-82176921D01*
X151228120Y-82183486D01*
X151236467Y-82262899D01*
X151247392Y-82366849D01*
X151306407Y-82548477D01*
X151401894Y-82713865D01*
X151529681Y-82855787D01*
X151628777Y-82927785D01*
X151671078Y-82958518D01*
X151684182Y-82968039D01*
X151690210Y-82970723D01*
X151690212Y-82970724D01*
X151722196Y-82984964D01*
X151858646Y-83045715D01*
X151938841Y-83062761D01*
X152038990Y-83084049D01*
X152038995Y-83084049D01*
X152045447Y-83085421D01*
X152236421Y-83085421D01*
X152242873Y-83084049D01*
X152242878Y-83084049D01*
X152343027Y-83062761D01*
X152423222Y-83045715D01*
X152559672Y-82984964D01*
X152591656Y-82970724D01*
X152591658Y-82970723D01*
X152597686Y-82968039D01*
X152610791Y-82958518D01*
X152653091Y-82927785D01*
X152752187Y-82855787D01*
X152879974Y-82713865D01*
X152975461Y-82548477D01*
X153034476Y-82366849D01*
X153045402Y-82262899D01*
X153053748Y-82183486D01*
X153054438Y-82176921D01*
X153047327Y-82109262D01*
X153041911Y-82057730D01*
X153054683Y-81987892D01*
X153103185Y-81936045D01*
X153172018Y-81918651D01*
X153239328Y-81941233D01*
X153256316Y-81955465D01*
X154822209Y-83521358D01*
X154856235Y-83583670D01*
X154851170Y-83654485D01*
X154807176Y-83712387D01*
X154725071Y-83772041D01*
X154702834Y-83788197D01*
X154684002Y-83801879D01*
X154679581Y-83806789D01*
X154679580Y-83806790D01*
X154572311Y-83925925D01*
X154556215Y-83943801D01*
X154460728Y-84109189D01*
X154401713Y-84290817D01*
X154401023Y-84297378D01*
X154401023Y-84297380D01*
X154397482Y-84331070D01*
X154381751Y-84480745D01*
X154382441Y-84487310D01*
X154386287Y-84523898D01*
X154401713Y-84670673D01*
X154460728Y-84852301D01*
X154464031Y-84858023D01*
X154464032Y-84858024D01*
X154497941Y-84916755D01*
X154556215Y-85017689D01*
X154560633Y-85022596D01*
X154560634Y-85022597D01*
X154622939Y-85091794D01*
X154684002Y-85159611D01*
X154740208Y-85200447D01*
X154824946Y-85262013D01*
X154838503Y-85271863D01*
X154844531Y-85274547D01*
X154844533Y-85274548D01*
X154954682Y-85323589D01*
X155012967Y-85349539D01*
X155105638Y-85369237D01*
X155193311Y-85387873D01*
X155193316Y-85387873D01*
X155199768Y-85389245D01*
X155390742Y-85389245D01*
X155397194Y-85387873D01*
X155397199Y-85387873D01*
X155484872Y-85369237D01*
X155577543Y-85349539D01*
X155635828Y-85323589D01*
X155745977Y-85274548D01*
X155745979Y-85274547D01*
X155752007Y-85271863D01*
X155765565Y-85262013D01*
X155850302Y-85200447D01*
X155906508Y-85159611D01*
X155967571Y-85091794D01*
X156029876Y-85022597D01*
X156029877Y-85022596D01*
X156034295Y-85017689D01*
X156056233Y-84979691D01*
X156107615Y-84930698D01*
X156177329Y-84917262D01*
X156243240Y-84943648D01*
X156254447Y-84953596D01*
X157015685Y-85714834D01*
X157026552Y-85727225D01*
X157046013Y-85752587D01*
X157052563Y-85757613D01*
X157077925Y-85777074D01*
X157077928Y-85777077D01*
X157142680Y-85826763D01*
X157173124Y-85850124D01*
X157321149Y-85911438D01*
X157329336Y-85912516D01*
X157329337Y-85912516D01*
X157340542Y-85913991D01*
X157360808Y-85916659D01*
X157440115Y-85927100D01*
X157440118Y-85927100D01*
X157440126Y-85927101D01*
X157471811Y-85931272D01*
X157480000Y-85932350D01*
X157511693Y-85928178D01*
X157528136Y-85927100D01*
X157954860Y-85927100D01*
X158022981Y-85947102D01*
X158069474Y-86000758D01*
X158080170Y-86066270D01*
X158075994Y-86106000D01*
X158095956Y-86295928D01*
X158154971Y-86477556D01*
X158250458Y-86642944D01*
X158254876Y-86647851D01*
X158254877Y-86647852D01*
X158370285Y-86776026D01*
X158378245Y-86784866D01*
X158532746Y-86897118D01*
X158538774Y-86899802D01*
X158538776Y-86899803D01*
X158552392Y-86905865D01*
X158707210Y-86974794D01*
X158800610Y-86994647D01*
X158887554Y-87013128D01*
X158887559Y-87013128D01*
X158894011Y-87014500D01*
X159084985Y-87014500D01*
X159091437Y-87013128D01*
X159091442Y-87013128D01*
X159178386Y-86994647D01*
X159271786Y-86974794D01*
X159426604Y-86905865D01*
X159440220Y-86899803D01*
X159440222Y-86899802D01*
X159446250Y-86897118D01*
X159600751Y-86784866D01*
X159608711Y-86776026D01*
X159724119Y-86647852D01*
X159724120Y-86647851D01*
X159728538Y-86642944D01*
X159824025Y-86477556D01*
X159871463Y-86331557D01*
X166265511Y-86331557D01*
X166277888Y-86546222D01*
X166279324Y-86556442D01*
X166326596Y-86766197D01*
X166329675Y-86776026D01*
X166410575Y-86975258D01*
X166415218Y-86984449D01*
X166497370Y-87118510D01*
X166507826Y-87127970D01*
X166516604Y-87124186D01*
X167267978Y-86372812D01*
X167275592Y-86358868D01*
X167275461Y-86357035D01*
X167271210Y-86350420D01*
X166520853Y-85600063D01*
X166509317Y-85593764D01*
X166497034Y-85603387D01*
X166447187Y-85676461D01*
X166442098Y-85685419D01*
X166351560Y-85880467D01*
X166348008Y-85890120D01*
X166290541Y-86097341D01*
X166288614Y-86107446D01*
X166265763Y-86321268D01*
X166265511Y-86331557D01*
X159871463Y-86331557D01*
X159883040Y-86295928D01*
X159903002Y-86106000D01*
X159889691Y-85979349D01*
X159883730Y-85922635D01*
X159883730Y-85922633D01*
X159883040Y-85916072D01*
X159824025Y-85734444D01*
X159816076Y-85720675D01*
X159731839Y-85574774D01*
X159728538Y-85569056D01*
X159723626Y-85563600D01*
X159605173Y-85432045D01*
X159605172Y-85432044D01*
X159600751Y-85427134D01*
X159593242Y-85421678D01*
X159458234Y-85323589D01*
X159414880Y-85267367D01*
X159414420Y-85262007D01*
X159413602Y-85260887D01*
X159411972Y-85233507D01*
X159408805Y-85196630D01*
X159409664Y-85194743D01*
X159409383Y-85190016D01*
X159424350Y-85155351D01*
X159433923Y-85142876D01*
X159433924Y-85142875D01*
X159455083Y-85091794D01*
X159492078Y-85002479D01*
X159495238Y-84994850D01*
X159510900Y-84875885D01*
X159510900Y-84875878D01*
X159516150Y-84836000D01*
X159511978Y-84804307D01*
X159510900Y-84787864D01*
X159510900Y-84376136D01*
X159511978Y-84359690D01*
X159515072Y-84336188D01*
X159516150Y-84328000D01*
X159510900Y-84288122D01*
X159510900Y-84288115D01*
X159495238Y-84169150D01*
X159455826Y-84074000D01*
X160884496Y-84074000D01*
X160885186Y-84080565D01*
X160897948Y-84201985D01*
X160904458Y-84263928D01*
X160963473Y-84445556D01*
X161058960Y-84610944D01*
X161063378Y-84615851D01*
X161063379Y-84615852D01*
X161140379Y-84701369D01*
X161186747Y-84752866D01*
X161341248Y-84865118D01*
X161347276Y-84867802D01*
X161347278Y-84867803D01*
X161509681Y-84940109D01*
X161515712Y-84942794D01*
X161609112Y-84962647D01*
X161696056Y-84981128D01*
X161696061Y-84981128D01*
X161702513Y-84982500D01*
X161893487Y-84982500D01*
X161899939Y-84981128D01*
X161899944Y-84981128D01*
X161986888Y-84962647D01*
X162080288Y-84942794D01*
X162086319Y-84940109D01*
X162248722Y-84867803D01*
X162248724Y-84867802D01*
X162254752Y-84865118D01*
X162409253Y-84752866D01*
X162455621Y-84701369D01*
X162532621Y-84615852D01*
X162532622Y-84615851D01*
X162537040Y-84610944D01*
X162632527Y-84445556D01*
X162691542Y-84263928D01*
X162698053Y-84201985D01*
X162710814Y-84080565D01*
X162711504Y-84074000D01*
X162695941Y-83925925D01*
X162692232Y-83890635D01*
X162692232Y-83890633D01*
X162691542Y-83884072D01*
X162632527Y-83702444D01*
X162537040Y-83537056D01*
X162522906Y-83521358D01*
X162413675Y-83400045D01*
X162413674Y-83400044D01*
X162409253Y-83395134D01*
X162254752Y-83282882D01*
X162248724Y-83280198D01*
X162248722Y-83280197D01*
X162086319Y-83207891D01*
X162086318Y-83207891D01*
X162080288Y-83205206D01*
X161986888Y-83185353D01*
X161899944Y-83166872D01*
X161899939Y-83166872D01*
X161893487Y-83165500D01*
X161702513Y-83165500D01*
X161696061Y-83166872D01*
X161696056Y-83166872D01*
X161609113Y-83185353D01*
X161515712Y-83205206D01*
X161509682Y-83207891D01*
X161509681Y-83207891D01*
X161347278Y-83280197D01*
X161347276Y-83280198D01*
X161341248Y-83282882D01*
X161186747Y-83395134D01*
X161182326Y-83400044D01*
X161182325Y-83400045D01*
X161073095Y-83521358D01*
X161058960Y-83537056D01*
X160963473Y-83702444D01*
X160904458Y-83884072D01*
X160903768Y-83890633D01*
X160903768Y-83890635D01*
X160900059Y-83925925D01*
X160884496Y-84074000D01*
X159455826Y-84074000D01*
X159433924Y-84021125D01*
X159399478Y-83976234D01*
X159360877Y-83925928D01*
X159360874Y-83925925D01*
X159336387Y-83894013D01*
X159323432Y-83884072D01*
X159311021Y-83874548D01*
X159298630Y-83863681D01*
X159141405Y-83706456D01*
X159107379Y-83644144D01*
X159104500Y-83617361D01*
X159104500Y-81685839D01*
X159124502Y-81617718D01*
X159141405Y-81596744D01*
X160220149Y-80518000D01*
X163678496Y-80518000D01*
X163679186Y-80524565D01*
X163686769Y-80596709D01*
X163698458Y-80707928D01*
X163757473Y-80889556D01*
X163760776Y-80895278D01*
X163760777Y-80895279D01*
X163790992Y-80947613D01*
X163852960Y-81054944D01*
X163857378Y-81059851D01*
X163857379Y-81059852D01*
X163975118Y-81190614D01*
X163980747Y-81196866D01*
X164135248Y-81309118D01*
X164141276Y-81311802D01*
X164141278Y-81311803D01*
X164303681Y-81384109D01*
X164309712Y-81386794D01*
X164403112Y-81406647D01*
X164490056Y-81425128D01*
X164490061Y-81425128D01*
X164496513Y-81426500D01*
X164687487Y-81426500D01*
X164693939Y-81425128D01*
X164693944Y-81425128D01*
X164780888Y-81406647D01*
X164874288Y-81386794D01*
X164880319Y-81384109D01*
X165042722Y-81311803D01*
X165042724Y-81311802D01*
X165048752Y-81309118D01*
X165203253Y-81196866D01*
X165208882Y-81190614D01*
X165326621Y-81059852D01*
X165326622Y-81059851D01*
X165331040Y-81054944D01*
X165393008Y-80947613D01*
X165423223Y-80895279D01*
X165423224Y-80895278D01*
X165426527Y-80889556D01*
X165485542Y-80707928D01*
X165497232Y-80596709D01*
X165504814Y-80524565D01*
X165505504Y-80518000D01*
X165492420Y-80393509D01*
X165486232Y-80334635D01*
X165486232Y-80334633D01*
X165485542Y-80328072D01*
X165426527Y-80146444D01*
X165410681Y-80118997D01*
X165353882Y-80020620D01*
X165331040Y-79981056D01*
X165276541Y-79920528D01*
X165207675Y-79844045D01*
X165207674Y-79844044D01*
X165203253Y-79839134D01*
X165064337Y-79738205D01*
X165054094Y-79730763D01*
X165054093Y-79730762D01*
X165048752Y-79726882D01*
X165042724Y-79724198D01*
X165042722Y-79724197D01*
X164880319Y-79651891D01*
X164880318Y-79651891D01*
X164874288Y-79649206D01*
X164751470Y-79623100D01*
X164693944Y-79610872D01*
X164693939Y-79610872D01*
X164687487Y-79609500D01*
X164496513Y-79609500D01*
X164490061Y-79610872D01*
X164490056Y-79610872D01*
X164432530Y-79623100D01*
X164309712Y-79649206D01*
X164303682Y-79651891D01*
X164303681Y-79651891D01*
X164141278Y-79724197D01*
X164141276Y-79724198D01*
X164135248Y-79726882D01*
X164129907Y-79730762D01*
X164129906Y-79730763D01*
X164119663Y-79738205D01*
X163980747Y-79839134D01*
X163976326Y-79844044D01*
X163976325Y-79844045D01*
X163907460Y-79920528D01*
X163852960Y-79981056D01*
X163830118Y-80020620D01*
X163773320Y-80118997D01*
X163757473Y-80146444D01*
X163698458Y-80328072D01*
X163697768Y-80334633D01*
X163697768Y-80334635D01*
X163691580Y-80393509D01*
X163678496Y-80518000D01*
X160220149Y-80518000D01*
X161168967Y-79569182D01*
X161231279Y-79535156D01*
X161302094Y-79540221D01*
X161351698Y-79573967D01*
X161395938Y-79623100D01*
X161440747Y-79672866D01*
X161511175Y-79724035D01*
X161550380Y-79752519D01*
X161595248Y-79785118D01*
X161601276Y-79787802D01*
X161601278Y-79787803D01*
X161763681Y-79860109D01*
X161769712Y-79862794D01*
X161863113Y-79882647D01*
X161950056Y-79901128D01*
X161950061Y-79901128D01*
X161956513Y-79902500D01*
X162147487Y-79902500D01*
X162153939Y-79901128D01*
X162153944Y-79901128D01*
X162240887Y-79882647D01*
X162334288Y-79862794D01*
X162340319Y-79860109D01*
X162502722Y-79787803D01*
X162502724Y-79787802D01*
X162508752Y-79785118D01*
X162553621Y-79752519D01*
X162592825Y-79724035D01*
X162663253Y-79672866D01*
X162704172Y-79627421D01*
X162786621Y-79535852D01*
X162786622Y-79535851D01*
X162791040Y-79530944D01*
X162870413Y-79393466D01*
X162883223Y-79371279D01*
X162883224Y-79371278D01*
X162886527Y-79365556D01*
X162945542Y-79183928D01*
X162951592Y-79126371D01*
X162964814Y-79000565D01*
X162965504Y-78994000D01*
X162962106Y-78961666D01*
X162946232Y-78810635D01*
X162946232Y-78810633D01*
X162945542Y-78804072D01*
X162886527Y-78622444D01*
X162872349Y-78597886D01*
X162805568Y-78482220D01*
X162791040Y-78457056D01*
X162663253Y-78315134D01*
X162508752Y-78202882D01*
X162502726Y-78200199D01*
X162502719Y-78200195D01*
X162343371Y-78129250D01*
X162289275Y-78083270D01*
X162268625Y-78015343D01*
X162274786Y-77975207D01*
X162294002Y-77916066D01*
X162296042Y-77909788D01*
X162300171Y-77870508D01*
X162315314Y-77726425D01*
X162316004Y-77719860D01*
X162309553Y-77658479D01*
X162296732Y-77536495D01*
X162296732Y-77536493D01*
X162296042Y-77529932D01*
X162237027Y-77348304D01*
X162224674Y-77326907D01*
X162144843Y-77188637D01*
X162141540Y-77182916D01*
X162140366Y-77181612D01*
X162117110Y-77116441D01*
X162133188Y-77047289D01*
X162184100Y-76997807D01*
X162216706Y-76985997D01*
X162238917Y-76981276D01*
X162238926Y-76981273D01*
X162245381Y-76979901D01*
X162251412Y-76977216D01*
X162413815Y-76904910D01*
X162413817Y-76904909D01*
X162419845Y-76902225D01*
X162431831Y-76893517D01*
X162490259Y-76851066D01*
X162574346Y-76789973D01*
X162588135Y-76774659D01*
X162697714Y-76652959D01*
X162697715Y-76652958D01*
X162702133Y-76648051D01*
X162763766Y-76541300D01*
X162815149Y-76492307D01*
X162872885Y-76478300D01*
X165864664Y-76478300D01*
X165881107Y-76479378D01*
X165912800Y-76483550D01*
X165920989Y-76482472D01*
X165952674Y-76478301D01*
X165952684Y-76478300D01*
X165952685Y-76478300D01*
X166052257Y-76465191D01*
X166063464Y-76463716D01*
X166063466Y-76463715D01*
X166071651Y-76462638D01*
X166136531Y-76435764D01*
X166207119Y-76428175D01*
X166270606Y-76459954D01*
X166307665Y-76524472D01*
X166327253Y-76611390D01*
X166329195Y-76616172D01*
X166329196Y-76616176D01*
X166408452Y-76811360D01*
X166412071Y-76820272D01*
X166529866Y-77012496D01*
X166533250Y-77016402D01*
X166533251Y-77016404D01*
X166560005Y-77047289D01*
X166677474Y-77182899D01*
X166681449Y-77186199D01*
X166681453Y-77186203D01*
X166701017Y-77202445D01*
X166850931Y-77326907D01*
X166906191Y-77359198D01*
X166954914Y-77410837D01*
X166967985Y-77480620D01*
X166941253Y-77546392D01*
X166910269Y-77574151D01*
X166906923Y-77575893D01*
X166902793Y-77578994D01*
X166902788Y-77578997D01*
X166730772Y-77708150D01*
X166726637Y-77711255D01*
X166570881Y-77874245D01*
X166567967Y-77878517D01*
X166567966Y-77878518D01*
X166551112Y-77903225D01*
X166443837Y-78060485D01*
X166429479Y-78091416D01*
X166356287Y-78249095D01*
X166348916Y-78264974D01*
X166288668Y-78482220D01*
X166264712Y-78706389D01*
X166265009Y-78711542D01*
X166265009Y-78711545D01*
X166271248Y-78819744D01*
X166277689Y-78931460D01*
X166278826Y-78936506D01*
X166278827Y-78936512D01*
X166300739Y-79033739D01*
X166327253Y-79151390D01*
X166329195Y-79156172D01*
X166329196Y-79156176D01*
X166402813Y-79337472D01*
X166412071Y-79360272D01*
X166529866Y-79552496D01*
X166533250Y-79556402D01*
X166533251Y-79556404D01*
X166544320Y-79569182D01*
X166677474Y-79722899D01*
X166681449Y-79726199D01*
X166681453Y-79726203D01*
X166713151Y-79752519D01*
X166850931Y-79866907D01*
X166895021Y-79892671D01*
X166906191Y-79899198D01*
X166954914Y-79950837D01*
X166967985Y-80020620D01*
X166941253Y-80086392D01*
X166910269Y-80114151D01*
X166906923Y-80115893D01*
X166902793Y-80118994D01*
X166902788Y-80118997D01*
X166737497Y-80243101D01*
X166726637Y-80251255D01*
X166570881Y-80414245D01*
X166567967Y-80418517D01*
X166567966Y-80418518D01*
X166500104Y-80518000D01*
X166443837Y-80600485D01*
X166420627Y-80650486D01*
X166356287Y-80789095D01*
X166348916Y-80804974D01*
X166288668Y-81022220D01*
X166264712Y-81246389D01*
X166265009Y-81251542D01*
X166265009Y-81251545D01*
X166273264Y-81394708D01*
X166277689Y-81471460D01*
X166278826Y-81476506D01*
X166278827Y-81476512D01*
X166284789Y-81502966D01*
X166327253Y-81691390D01*
X166329195Y-81696172D01*
X166329196Y-81696176D01*
X166371209Y-81799642D01*
X166412071Y-81900272D01*
X166529866Y-82092496D01*
X166677474Y-82262899D01*
X166681449Y-82266199D01*
X166681453Y-82266203D01*
X166753005Y-82325607D01*
X166850931Y-82406907D01*
X166906191Y-82439198D01*
X166954914Y-82490837D01*
X166967985Y-82560620D01*
X166941253Y-82626392D01*
X166910269Y-82654151D01*
X166906923Y-82655893D01*
X166902793Y-82658994D01*
X166902788Y-82658997D01*
X166829711Y-82713865D01*
X166726637Y-82791255D01*
X166570881Y-82954245D01*
X166567967Y-82958517D01*
X166567966Y-82958518D01*
X166549926Y-82984964D01*
X166443837Y-83140485D01*
X166427979Y-83174649D01*
X166356287Y-83329095D01*
X166348916Y-83344974D01*
X166288668Y-83562220D01*
X166264712Y-83786389D01*
X166265009Y-83791542D01*
X166265009Y-83791545D01*
X166270917Y-83894013D01*
X166277689Y-84011460D01*
X166278826Y-84016506D01*
X166278827Y-84016512D01*
X166298424Y-84103466D01*
X166327253Y-84231390D01*
X166329195Y-84236172D01*
X166329196Y-84236176D01*
X166369807Y-84336188D01*
X166412071Y-84440272D01*
X166529866Y-84632496D01*
X166677474Y-84802899D01*
X166681449Y-84806199D01*
X166681453Y-84806203D01*
X166715732Y-84834662D01*
X166850931Y-84946907D01*
X166855394Y-84949515D01*
X166855397Y-84949517D01*
X166862309Y-84953556D01*
X166906680Y-84979484D01*
X166955403Y-85031121D01*
X166968474Y-85100904D01*
X166941743Y-85166676D01*
X166910247Y-85194894D01*
X166903054Y-85199423D01*
X166880746Y-85216172D01*
X166872294Y-85227496D01*
X166879039Y-85239829D01*
X167627188Y-85987978D01*
X167641132Y-85995592D01*
X167642965Y-85995461D01*
X167649580Y-85991210D01*
X168402290Y-85238500D01*
X168409310Y-85225645D01*
X168402163Y-85215836D01*
X168396493Y-85212069D01*
X168376022Y-85200768D01*
X168326051Y-85150335D01*
X168311280Y-85080892D01*
X168336397Y-85014487D01*
X168363747Y-84987882D01*
X168523743Y-84873758D01*
X168523748Y-84873754D01*
X168527955Y-84870753D01*
X168687647Y-84711618D01*
X168819204Y-84528537D01*
X168826795Y-84513178D01*
X168916801Y-84331067D01*
X168916802Y-84331064D01*
X168919093Y-84326429D01*
X168920596Y-84321482D01*
X168920849Y-84320843D01*
X168964525Y-84264870D01*
X169031528Y-84241395D01*
X169100586Y-84257872D01*
X169149774Y-84309069D01*
X169164000Y-84367229D01*
X169164000Y-85822010D01*
X169143998Y-85890131D01*
X169090342Y-85936624D01*
X169020068Y-85946728D01*
X168955488Y-85917234D01*
X168922450Y-85872252D01*
X168854026Y-85714887D01*
X168849159Y-85705812D01*
X168782103Y-85602158D01*
X168771417Y-85592955D01*
X168761852Y-85597358D01*
X168012022Y-86347188D01*
X168004408Y-86361132D01*
X168004539Y-86362965D01*
X168008790Y-86369580D01*
X168759431Y-87120221D01*
X168771442Y-87126780D01*
X168783181Y-87117812D01*
X168815754Y-87072482D01*
X168821068Y-87063637D01*
X168916337Y-86870875D01*
X168920850Y-86859478D01*
X168964526Y-86803505D01*
X169031529Y-86780031D01*
X169100587Y-86796509D01*
X169149774Y-86847706D01*
X169164000Y-86905865D01*
X169164000Y-88362010D01*
X169143998Y-88430131D01*
X169090342Y-88476624D01*
X169020068Y-88486728D01*
X168955488Y-88457234D01*
X168922450Y-88412252D01*
X168854026Y-88254887D01*
X168849159Y-88245812D01*
X168782103Y-88142158D01*
X168771417Y-88132955D01*
X168761852Y-88137358D01*
X167729095Y-89170115D01*
X167666783Y-89204141D01*
X167595968Y-89199076D01*
X167550905Y-89170115D01*
X166520853Y-88140063D01*
X166509317Y-88133764D01*
X166497034Y-88143387D01*
X166447187Y-88216461D01*
X166442098Y-88225419D01*
X166351560Y-88420467D01*
X166348008Y-88430120D01*
X166290541Y-88637341D01*
X166288614Y-88647446D01*
X166265763Y-88861268D01*
X166265511Y-88871557D01*
X166277888Y-89086222D01*
X166279324Y-89096442D01*
X166326596Y-89306197D01*
X166329675Y-89316026D01*
X166399749Y-89488596D01*
X166406845Y-89559237D01*
X166374623Y-89622500D01*
X166313314Y-89658301D01*
X166283006Y-89662000D01*
X160353494Y-89662000D01*
X160285373Y-89641998D01*
X160238880Y-89588342D01*
X160228776Y-89518068D01*
X160244375Y-89473000D01*
X160292423Y-89389779D01*
X160292424Y-89389778D01*
X160295727Y-89384056D01*
X160354742Y-89202428D01*
X160357881Y-89172567D01*
X160374014Y-89019065D01*
X160374704Y-89012500D01*
X160365747Y-88927281D01*
X160355432Y-88829135D01*
X160355432Y-88829133D01*
X160354742Y-88822572D01*
X160295727Y-88640944D01*
X160200240Y-88475556D01*
X160072453Y-88333634D01*
X159973357Y-88261636D01*
X159923294Y-88225263D01*
X159923293Y-88225262D01*
X159917952Y-88221382D01*
X159911924Y-88218698D01*
X159911922Y-88218697D01*
X159749519Y-88146391D01*
X159749518Y-88146391D01*
X159743488Y-88143706D01*
X159650087Y-88123853D01*
X159563144Y-88105372D01*
X159563139Y-88105372D01*
X159556687Y-88104000D01*
X159365713Y-88104000D01*
X159359261Y-88105372D01*
X159359256Y-88105372D01*
X159272313Y-88123853D01*
X159178912Y-88143706D01*
X159172882Y-88146391D01*
X159172881Y-88146391D01*
X159010478Y-88218697D01*
X159010476Y-88218698D01*
X159004448Y-88221382D01*
X158999107Y-88225262D01*
X158999106Y-88225263D01*
X158949043Y-88261636D01*
X158849947Y-88333634D01*
X158722160Y-88475556D01*
X158626673Y-88640944D01*
X158567658Y-88822572D01*
X158566968Y-88829133D01*
X158566968Y-88829135D01*
X158556653Y-88927281D01*
X158547696Y-89012500D01*
X158548386Y-89019065D01*
X158564520Y-89172567D01*
X158567658Y-89202428D01*
X158626673Y-89384056D01*
X158629976Y-89389778D01*
X158629977Y-89389779D01*
X158678025Y-89473000D01*
X158694763Y-89541995D01*
X158671543Y-89609087D01*
X158615736Y-89652974D01*
X158568906Y-89662000D01*
X148675603Y-89662000D01*
X148607482Y-89641998D01*
X148560989Y-89588342D01*
X148550885Y-89518068D01*
X148562645Y-89480175D01*
X148599093Y-89406429D01*
X148664630Y-89190719D01*
X148694057Y-88967203D01*
X148694139Y-88963853D01*
X148695617Y-88903365D01*
X148695617Y-88903361D01*
X148695699Y-88900000D01*
X148688817Y-88816294D01*
X148677650Y-88680464D01*
X148677649Y-88680458D01*
X148677226Y-88675313D01*
X148625818Y-88470648D01*
X148623563Y-88461670D01*
X148623562Y-88461666D01*
X148622304Y-88456659D01*
X148620245Y-88451923D01*
X148534468Y-88254649D01*
X148534466Y-88254646D01*
X148532408Y-88249912D01*
X148409952Y-88060624D01*
X148258224Y-87893877D01*
X148081300Y-87754151D01*
X148056472Y-87740445D01*
X148006503Y-87690015D01*
X147991731Y-87620572D01*
X148016847Y-87554166D01*
X148044198Y-87527560D01*
X148053216Y-87521128D01*
X148112514Y-87478831D01*
X148203743Y-87413758D01*
X148203748Y-87413754D01*
X148207955Y-87410753D01*
X148367647Y-87251618D01*
X148499204Y-87068537D01*
X148599093Y-86866429D01*
X148664630Y-86650719D01*
X148669464Y-86614000D01*
X151232496Y-86614000D01*
X151233186Y-86620565D01*
X151250863Y-86788749D01*
X151252458Y-86803928D01*
X151311473Y-86985556D01*
X151406960Y-87150944D01*
X151534747Y-87292866D01*
X151689248Y-87405118D01*
X151695276Y-87407802D01*
X151695278Y-87407803D01*
X151854811Y-87478831D01*
X151863712Y-87482794D01*
X151957112Y-87502647D01*
X152044056Y-87521128D01*
X152044061Y-87521128D01*
X152050513Y-87522500D01*
X152241487Y-87522500D01*
X152247939Y-87521128D01*
X152247944Y-87521128D01*
X152334888Y-87502647D01*
X152375611Y-87493991D01*
X166870839Y-87493991D01*
X166876121Y-87501046D01*
X166907156Y-87519182D01*
X166955880Y-87570821D01*
X166968951Y-87640604D01*
X166942220Y-87706375D01*
X166910728Y-87734590D01*
X166903060Y-87739419D01*
X166880746Y-87756172D01*
X166872294Y-87767496D01*
X166879039Y-87779829D01*
X167627188Y-88527978D01*
X167641132Y-88535592D01*
X167642965Y-88535461D01*
X167649580Y-88531210D01*
X168402290Y-87778500D01*
X168409310Y-87765645D01*
X168402163Y-87755836D01*
X168396497Y-87752072D01*
X168375536Y-87740500D01*
X168325566Y-87690066D01*
X168310795Y-87620623D01*
X168335913Y-87554218D01*
X168363263Y-87527613D01*
X168398210Y-87502686D01*
X168406610Y-87491987D01*
X168399621Y-87478831D01*
X167652812Y-86732022D01*
X167638868Y-86724408D01*
X167637035Y-86724539D01*
X167630420Y-86728790D01*
X166877599Y-87481611D01*
X166870839Y-87493991D01*
X152375611Y-87493991D01*
X152428288Y-87482794D01*
X152437189Y-87478831D01*
X152596722Y-87407803D01*
X152596724Y-87407802D01*
X152602752Y-87405118D01*
X152757253Y-87292866D01*
X152885040Y-87150944D01*
X152980527Y-86985556D01*
X153039542Y-86803928D01*
X153041138Y-86788749D01*
X153058814Y-86620565D01*
X153059504Y-86614000D01*
X153058814Y-86607435D01*
X153040232Y-86430635D01*
X153040232Y-86430633D01*
X153039542Y-86424072D01*
X152980527Y-86242444D01*
X152885040Y-86077056D01*
X152797061Y-85979346D01*
X152766346Y-85915341D01*
X152775110Y-85844888D01*
X152820572Y-85790356D01*
X152888300Y-85769061D01*
X152916895Y-85771791D01*
X153000279Y-85789514D01*
X153017779Y-85793234D01*
X153208753Y-85793234D01*
X153215205Y-85791862D01*
X153215210Y-85791862D01*
X153322477Y-85769061D01*
X153395554Y-85753528D01*
X153408215Y-85747891D01*
X153563988Y-85678537D01*
X153563990Y-85678536D01*
X153570018Y-85675852D01*
X153724519Y-85563600D01*
X153783119Y-85498518D01*
X153847887Y-85426586D01*
X153847891Y-85426581D01*
X153852306Y-85421678D01*
X153947793Y-85256290D01*
X154006808Y-85074662D01*
X154015197Y-84994850D01*
X154026080Y-84891299D01*
X154026770Y-84884734D01*
X154022701Y-84846016D01*
X154007498Y-84701369D01*
X154007498Y-84701367D01*
X154006808Y-84694806D01*
X153947793Y-84513178D01*
X153925278Y-84474180D01*
X153877872Y-84392072D01*
X153852306Y-84347790D01*
X153833073Y-84326429D01*
X153728941Y-84210779D01*
X153728940Y-84210778D01*
X153724519Y-84205868D01*
X153593558Y-84110719D01*
X153575360Y-84097497D01*
X153575359Y-84097496D01*
X153570018Y-84093616D01*
X153563990Y-84090932D01*
X153563988Y-84090931D01*
X153401585Y-84018625D01*
X153401584Y-84018625D01*
X153395554Y-84015940D01*
X153302154Y-83996087D01*
X153215210Y-83977606D01*
X153215205Y-83977606D01*
X153208753Y-83976234D01*
X153017779Y-83976234D01*
X153011327Y-83977606D01*
X153011322Y-83977606D01*
X152924378Y-83996087D01*
X152830978Y-84015940D01*
X152824948Y-84018625D01*
X152824947Y-84018625D01*
X152662544Y-84090931D01*
X152662542Y-84090932D01*
X152656514Y-84093616D01*
X152651173Y-84097496D01*
X152651172Y-84097497D01*
X152632974Y-84110719D01*
X152502013Y-84205868D01*
X152497592Y-84210778D01*
X152497591Y-84210779D01*
X152393460Y-84326429D01*
X152374226Y-84347790D01*
X152348660Y-84392072D01*
X152301255Y-84474180D01*
X152278739Y-84513178D01*
X152219724Y-84694806D01*
X152219034Y-84701367D01*
X152219034Y-84701369D01*
X152203831Y-84846016D01*
X152199762Y-84884734D01*
X152200452Y-84891299D01*
X152211336Y-84994850D01*
X152219724Y-85074662D01*
X152278739Y-85256290D01*
X152374226Y-85421678D01*
X152462205Y-85519388D01*
X152492920Y-85583393D01*
X152484156Y-85653846D01*
X152438694Y-85708378D01*
X152370966Y-85729673D01*
X152342371Y-85726943D01*
X152247946Y-85706873D01*
X152247947Y-85706873D01*
X152241487Y-85705500D01*
X152050513Y-85705500D01*
X152044061Y-85706872D01*
X152044056Y-85706872D01*
X151957113Y-85725353D01*
X151863712Y-85745206D01*
X151857682Y-85747891D01*
X151857681Y-85747891D01*
X151695278Y-85820197D01*
X151695276Y-85820198D01*
X151689248Y-85822882D01*
X151534747Y-85935134D01*
X151406960Y-86077056D01*
X151311473Y-86242444D01*
X151252458Y-86424072D01*
X151251768Y-86430633D01*
X151251768Y-86430635D01*
X151233186Y-86607435D01*
X151232496Y-86614000D01*
X148669464Y-86614000D01*
X148694057Y-86427203D01*
X148695699Y-86360000D01*
X148686034Y-86242444D01*
X148677650Y-86140464D01*
X148677649Y-86140458D01*
X148677226Y-86135313D01*
X148626945Y-85935134D01*
X148623563Y-85921670D01*
X148623562Y-85921666D01*
X148622304Y-85916659D01*
X148618660Y-85908278D01*
X148534468Y-85714649D01*
X148534466Y-85714646D01*
X148532408Y-85709912D01*
X148441284Y-85569056D01*
X148412760Y-85524964D01*
X148412758Y-85524961D01*
X148409952Y-85520624D01*
X148258224Y-85353877D01*
X148081300Y-85214151D01*
X148056472Y-85200445D01*
X148006503Y-85150015D01*
X147991731Y-85080572D01*
X148016847Y-85014166D01*
X148044198Y-84987560D01*
X148053216Y-84981128D01*
X148105034Y-84944166D01*
X148203743Y-84873758D01*
X148203748Y-84873754D01*
X148207955Y-84870753D01*
X148367647Y-84711618D01*
X148460787Y-84582000D01*
X149087996Y-84582000D01*
X149088686Y-84588565D01*
X149106363Y-84756749D01*
X149107958Y-84771928D01*
X149166973Y-84953556D01*
X149262460Y-85118944D01*
X149266878Y-85123851D01*
X149266879Y-85123852D01*
X149371305Y-85239829D01*
X149390247Y-85260866D01*
X149482855Y-85328150D01*
X149523522Y-85357696D01*
X149544748Y-85373118D01*
X149550776Y-85375802D01*
X149550778Y-85375803D01*
X149713181Y-85448109D01*
X149719212Y-85450794D01*
X149812612Y-85470647D01*
X149899556Y-85489128D01*
X149899561Y-85489128D01*
X149906013Y-85490500D01*
X150096987Y-85490500D01*
X150103439Y-85489128D01*
X150103444Y-85489128D01*
X150190388Y-85470647D01*
X150283788Y-85450794D01*
X150289819Y-85448109D01*
X150452222Y-85375803D01*
X150452224Y-85375802D01*
X150458252Y-85373118D01*
X150479479Y-85357696D01*
X150520145Y-85328150D01*
X150612753Y-85260866D01*
X150631695Y-85239829D01*
X150736121Y-85123852D01*
X150736122Y-85123851D01*
X150740540Y-85118944D01*
X150836027Y-84953556D01*
X150895042Y-84771928D01*
X150896638Y-84756749D01*
X150914314Y-84588565D01*
X150915004Y-84582000D01*
X150895042Y-84392072D01*
X150836027Y-84210444D01*
X150740540Y-84045056D01*
X150718993Y-84021125D01*
X150617175Y-83908045D01*
X150617174Y-83908044D01*
X150612753Y-83903134D01*
X150493713Y-83816646D01*
X150463594Y-83794763D01*
X150463593Y-83794762D01*
X150458252Y-83790882D01*
X150452224Y-83788198D01*
X150452222Y-83788197D01*
X150289819Y-83715891D01*
X150289818Y-83715891D01*
X150283788Y-83713206D01*
X150190388Y-83693353D01*
X150103444Y-83674872D01*
X150103439Y-83674872D01*
X150096987Y-83673500D01*
X149906013Y-83673500D01*
X149899561Y-83674872D01*
X149899556Y-83674872D01*
X149812613Y-83693353D01*
X149719212Y-83713206D01*
X149713182Y-83715891D01*
X149713181Y-83715891D01*
X149550778Y-83788197D01*
X149550776Y-83788198D01*
X149544748Y-83790882D01*
X149539407Y-83794762D01*
X149539406Y-83794763D01*
X149509287Y-83816646D01*
X149390247Y-83903134D01*
X149385826Y-83908044D01*
X149385825Y-83908045D01*
X149284008Y-84021125D01*
X149262460Y-84045056D01*
X149166973Y-84210444D01*
X149107958Y-84392072D01*
X149087996Y-84582000D01*
X148460787Y-84582000D01*
X148499204Y-84528537D01*
X148509624Y-84507455D01*
X148584307Y-84356345D01*
X148599093Y-84326429D01*
X148664630Y-84110719D01*
X148694057Y-83887203D01*
X148695699Y-83820000D01*
X148686034Y-83702444D01*
X148677650Y-83600464D01*
X148677649Y-83600458D01*
X148677226Y-83595313D01*
X148626945Y-83395134D01*
X148623563Y-83381670D01*
X148623562Y-83381666D01*
X148622304Y-83376659D01*
X148608527Y-83344974D01*
X148534468Y-83174649D01*
X148534466Y-83174646D01*
X148532408Y-83169912D01*
X148409952Y-82980624D01*
X148258224Y-82813877D01*
X148081300Y-82674151D01*
X148056472Y-82660445D01*
X148006503Y-82610015D01*
X147991731Y-82540572D01*
X148016847Y-82474166D01*
X148044198Y-82447560D01*
X148203743Y-82333758D01*
X148203748Y-82333754D01*
X148207955Y-82330753D01*
X148367647Y-82171618D01*
X148499204Y-81988537D01*
X148515550Y-81955465D01*
X148589734Y-81805365D01*
X148599093Y-81786429D01*
X148664630Y-81570719D01*
X148694057Y-81347203D01*
X148695045Y-81306755D01*
X148695617Y-81283365D01*
X148695617Y-81283361D01*
X148695699Y-81280000D01*
X148682528Y-81119799D01*
X148677650Y-81060464D01*
X148677649Y-81060458D01*
X148677226Y-81055313D01*
X148627004Y-80855370D01*
X148623563Y-80841670D01*
X148623562Y-80841666D01*
X148622304Y-80836659D01*
X148608527Y-80804974D01*
X148534468Y-80634649D01*
X148534466Y-80634646D01*
X148532408Y-80629912D01*
X148409952Y-80440624D01*
X148258224Y-80273877D01*
X148081300Y-80134151D01*
X148056472Y-80120445D01*
X148006503Y-80070015D01*
X147991731Y-80000572D01*
X148016847Y-79934166D01*
X148044198Y-79907560D01*
X148053216Y-79901128D01*
X148143470Y-79836750D01*
X148203743Y-79793758D01*
X148203748Y-79793754D01*
X148207955Y-79790753D01*
X148212287Y-79786436D01*
X148212624Y-79786253D01*
X148215569Y-79783764D01*
X148216083Y-79784372D01*
X148274658Y-79752519D01*
X148345465Y-79757707D01*
X148402227Y-79800352D01*
X148421061Y-79836749D01*
X148441273Y-79898956D01*
X148444576Y-79904678D01*
X148444577Y-79904679D01*
X148471227Y-79950837D01*
X148536760Y-80064344D01*
X148664547Y-80206266D01*
X148819048Y-80318518D01*
X148825076Y-80321202D01*
X148825078Y-80321203D01*
X148885477Y-80348094D01*
X148993512Y-80396194D01*
X149078435Y-80414245D01*
X149173856Y-80434528D01*
X149173861Y-80434528D01*
X149180313Y-80435900D01*
X149371287Y-80435900D01*
X149377739Y-80434528D01*
X149377744Y-80434528D01*
X149473165Y-80414245D01*
X149558088Y-80396194D01*
X149666123Y-80348094D01*
X149726522Y-80321203D01*
X149726524Y-80321202D01*
X149732552Y-80318518D01*
X149887053Y-80206266D01*
X150014840Y-80064344D01*
X150080373Y-79950837D01*
X150107023Y-79904679D01*
X150107024Y-79904678D01*
X150110327Y-79898956D01*
X150169342Y-79717328D01*
X150178792Y-79627421D01*
X150188614Y-79533965D01*
X150189304Y-79527400D01*
X150173759Y-79379499D01*
X150170032Y-79344035D01*
X150170032Y-79344033D01*
X150169342Y-79337472D01*
X150110327Y-79155844D01*
X150014840Y-78990456D01*
X149988918Y-78961666D01*
X149891475Y-78853445D01*
X149891474Y-78853444D01*
X149887053Y-78848534D01*
X149754295Y-78752079D01*
X149737894Y-78740163D01*
X149737893Y-78740162D01*
X149732552Y-78736282D01*
X149726517Y-78733595D01*
X149721741Y-78731468D01*
X149667646Y-78685488D01*
X149646997Y-78617561D01*
X149666350Y-78549253D01*
X149679355Y-78532052D01*
X149781821Y-78418252D01*
X149781822Y-78418251D01*
X149786240Y-78413344D01*
X149881727Y-78247956D01*
X149940742Y-78066328D01*
X149960704Y-77876400D01*
X149946126Y-77737696D01*
X149941432Y-77693035D01*
X149941432Y-77693033D01*
X149940742Y-77686472D01*
X149881727Y-77504844D01*
X149870665Y-77485683D01*
X149844514Y-77440390D01*
X149786240Y-77339456D01*
X149775190Y-77327183D01*
X149662875Y-77202445D01*
X149662874Y-77202444D01*
X149658453Y-77197534D01*
X149503952Y-77085282D01*
X149497924Y-77082598D01*
X149497922Y-77082597D01*
X149335519Y-77010291D01*
X149335518Y-77010291D01*
X149329488Y-77007606D01*
X149227826Y-76985997D01*
X149149144Y-76969272D01*
X149149139Y-76969272D01*
X149142687Y-76967900D01*
X148951713Y-76967900D01*
X148945261Y-76969272D01*
X148945256Y-76969272D01*
X148866574Y-76985997D01*
X148764912Y-77007606D01*
X148758885Y-77010289D01*
X148758877Y-77010292D01*
X148680311Y-77045272D01*
X148609944Y-77054706D01*
X148545647Y-77024599D01*
X148507834Y-76964510D01*
X148508510Y-76893517D01*
X148516103Y-76874346D01*
X148599093Y-76706429D01*
X148664630Y-76490719D01*
X148694057Y-76267203D01*
X148694139Y-76263853D01*
X148695617Y-76203365D01*
X148695617Y-76203361D01*
X148695699Y-76200000D01*
X148686380Y-76086650D01*
X148677650Y-75980464D01*
X148677649Y-75980458D01*
X148677226Y-75975313D01*
X148628680Y-75782042D01*
X148623563Y-75761670D01*
X148623562Y-75761666D01*
X148622304Y-75756659D01*
X148620245Y-75751923D01*
X148534468Y-75554649D01*
X148534466Y-75554646D01*
X148532408Y-75549912D01*
X148409952Y-75360624D01*
X148258224Y-75193877D01*
X148081300Y-75054151D01*
X148056472Y-75040445D01*
X148006503Y-74990015D01*
X147991731Y-74920572D01*
X148016847Y-74854166D01*
X148044205Y-74827555D01*
X148047343Y-74825317D01*
X148120505Y-74801900D01*
X149174761Y-74801900D01*
X149242882Y-74821902D01*
G37*
%TD.AperFunction*%
%TA.AperFunction,Conductor*%
G36*
X159218756Y-70673235D02*
G01*
X159219322Y-70671964D01*
X159329717Y-70721115D01*
X159383813Y-70767095D01*
X159404462Y-70835022D01*
X159398302Y-70875156D01*
X159380458Y-70930072D01*
X159379768Y-70936633D01*
X159379768Y-70936635D01*
X159372956Y-71001452D01*
X159360496Y-71120000D01*
X159361186Y-71126565D01*
X159371483Y-71224531D01*
X159380458Y-71309928D01*
X159439473Y-71491556D01*
X159534960Y-71656944D01*
X159539378Y-71661851D01*
X159539379Y-71661852D01*
X159623459Y-71755232D01*
X159662747Y-71798866D01*
X159817248Y-71911118D01*
X159823276Y-71913802D01*
X159823278Y-71913803D01*
X159985681Y-71986109D01*
X159991712Y-71988794D01*
X160065692Y-72004519D01*
X160172056Y-72027128D01*
X160172061Y-72027128D01*
X160178513Y-72028500D01*
X160369487Y-72028500D01*
X160375939Y-72027128D01*
X160375944Y-72027128D01*
X160482308Y-72004519D01*
X160556288Y-71988794D01*
X160562319Y-71986109D01*
X160724722Y-71913803D01*
X160724724Y-71913802D01*
X160730752Y-71911118D01*
X160885253Y-71798866D01*
X160924541Y-71755232D01*
X161008621Y-71661852D01*
X161008622Y-71661851D01*
X161013040Y-71656944D01*
X161039990Y-71610265D01*
X161091372Y-71561272D01*
X161161086Y-71547836D01*
X161223170Y-71571329D01*
X161329512Y-71648591D01*
X161341248Y-71657118D01*
X161347276Y-71659802D01*
X161347278Y-71659803D01*
X161460259Y-71710105D01*
X161515712Y-71734794D01*
X161611865Y-71755232D01*
X161696057Y-71773128D01*
X161696060Y-71773128D01*
X161702513Y-71774500D01*
X161709116Y-71774500D01*
X161711667Y-71774768D01*
X161777325Y-71801779D01*
X161817956Y-71859999D01*
X161824500Y-71900078D01*
X161824500Y-72771583D01*
X161804498Y-72839704D01*
X161750842Y-72886197D01*
X161680568Y-72896301D01*
X161647252Y-72886690D01*
X161552923Y-72844692D01*
X161552915Y-72844689D01*
X161546888Y-72842006D01*
X161453488Y-72822153D01*
X161366544Y-72803672D01*
X161366539Y-72803672D01*
X161360087Y-72802300D01*
X161169113Y-72802300D01*
X161162661Y-72803672D01*
X161162656Y-72803672D01*
X161075712Y-72822153D01*
X160982312Y-72842006D01*
X160976282Y-72844691D01*
X160976281Y-72844691D01*
X160813878Y-72916997D01*
X160813876Y-72916998D01*
X160807848Y-72919682D01*
X160653347Y-73031934D01*
X160648926Y-73036844D01*
X160648925Y-73036845D01*
X160563588Y-73131622D01*
X160525560Y-73173856D01*
X160430073Y-73339244D01*
X160371058Y-73520872D01*
X160370368Y-73527433D01*
X160370368Y-73527435D01*
X160362005Y-73607008D01*
X160351096Y-73710800D01*
X160351786Y-73717365D01*
X160368405Y-73875482D01*
X160371058Y-73900728D01*
X160430073Y-74082356D01*
X160525560Y-74247744D01*
X160529978Y-74252651D01*
X160529979Y-74252652D01*
X160648925Y-74384755D01*
X160653347Y-74389666D01*
X160807848Y-74501918D01*
X160813876Y-74504602D01*
X160813878Y-74504603D01*
X160976281Y-74576909D01*
X160982312Y-74579594D01*
X161069921Y-74598216D01*
X161162656Y-74617928D01*
X161162661Y-74617928D01*
X161169113Y-74619300D01*
X161360087Y-74619300D01*
X161366539Y-74617928D01*
X161366544Y-74617928D01*
X161484695Y-74592814D01*
X161555486Y-74598216D01*
X161612119Y-74641033D01*
X161620011Y-74653061D01*
X161693960Y-74781144D01*
X161698378Y-74786051D01*
X161698379Y-74786052D01*
X161817325Y-74918155D01*
X161821747Y-74923066D01*
X161832168Y-74930637D01*
X161900843Y-74980533D01*
X161944197Y-75036756D01*
X161950272Y-75107492D01*
X161917140Y-75170283D01*
X161852979Y-75205716D01*
X161680805Y-75242313D01*
X161674775Y-75244998D01*
X161674774Y-75244998D01*
X161512371Y-75317304D01*
X161512369Y-75317305D01*
X161506341Y-75319989D01*
X161351840Y-75432241D01*
X161347427Y-75437143D01*
X161347425Y-75437144D01*
X161326019Y-75460918D01*
X161265573Y-75498157D01*
X161232383Y-75502607D01*
X160872361Y-75502607D01*
X160855918Y-75501529D01*
X160824225Y-75497357D01*
X160816036Y-75498435D01*
X160784351Y-75502606D01*
X160784342Y-75502607D01*
X160784340Y-75502607D01*
X160784334Y-75502608D01*
X160784332Y-75502608D01*
X160684768Y-75515716D01*
X160673561Y-75517191D01*
X160673559Y-75517192D01*
X160665374Y-75518269D01*
X160517349Y-75579583D01*
X160510798Y-75584610D01*
X160510796Y-75584611D01*
X160449222Y-75631859D01*
X160422153Y-75652630D01*
X160422150Y-75652633D01*
X160390238Y-75677120D01*
X160385208Y-75683675D01*
X160370773Y-75702486D01*
X160359906Y-75714877D01*
X160063372Y-76011411D01*
X160001060Y-76045437D01*
X159974277Y-76048316D01*
X159883029Y-76048316D01*
X159876577Y-76049688D01*
X159876572Y-76049688D01*
X159789629Y-76068169D01*
X159696228Y-76088022D01*
X159690198Y-76090707D01*
X159690197Y-76090707D01*
X159527794Y-76163013D01*
X159527792Y-76163014D01*
X159521764Y-76165698D01*
X159516423Y-76169578D01*
X159516422Y-76169579D01*
X159469920Y-76203365D01*
X159367263Y-76277950D01*
X159239476Y-76419872D01*
X159143989Y-76585260D01*
X159084974Y-76766888D01*
X159084284Y-76773449D01*
X159084284Y-76773451D01*
X159080300Y-76811360D01*
X159070049Y-76908897D01*
X159067311Y-76934946D01*
X159040298Y-77000603D01*
X159016064Y-77023710D01*
X158992275Y-77040994D01*
X158938072Y-77080375D01*
X158871204Y-77104234D01*
X158802053Y-77088153D01*
X158752572Y-77037239D01*
X158738011Y-76978439D01*
X158738011Y-71407099D01*
X158739089Y-71390653D01*
X158742183Y-71367151D01*
X158743261Y-71358963D01*
X158738011Y-71319085D01*
X158738011Y-71319078D01*
X158724397Y-71215672D01*
X158723427Y-71208301D01*
X158722349Y-71200113D01*
X158661035Y-71052088D01*
X158635202Y-71018422D01*
X158590712Y-70960441D01*
X158565111Y-70894221D01*
X158579376Y-70824672D01*
X158628977Y-70773876D01*
X158690674Y-70757737D01*
X158822585Y-70757737D01*
X158829037Y-70756365D01*
X158829042Y-70756365D01*
X158994877Y-70721115D01*
X159009386Y-70718031D01*
X159015419Y-70715345D01*
X159015422Y-70715344D01*
X159115097Y-70670966D01*
X159185464Y-70661532D01*
X159218756Y-70673235D01*
G37*
%TD.AperFunction*%
%TA.AperFunction,Conductor*%
G36*
X153784024Y-71367452D02*
G01*
X153843008Y-71406965D01*
X153866062Y-71448712D01*
X153875674Y-71478295D01*
X153878977Y-71484017D01*
X153878978Y-71484018D01*
X153883330Y-71491556D01*
X153971161Y-71643683D01*
X153975579Y-71648590D01*
X153975580Y-71648591D01*
X154094526Y-71780694D01*
X154098948Y-71785605D01*
X154253449Y-71897857D01*
X154259477Y-71900541D01*
X154259479Y-71900542D01*
X154421882Y-71972848D01*
X154427913Y-71975533D01*
X154521313Y-71995386D01*
X154608257Y-72013867D01*
X154608262Y-72013867D01*
X154614714Y-72015239D01*
X154805688Y-72015239D01*
X154812140Y-72013867D01*
X154812145Y-72013867D01*
X154899089Y-71995386D01*
X154992489Y-71975533D01*
X154998520Y-71972848D01*
X155160923Y-71900542D01*
X155160925Y-71900541D01*
X155166953Y-71897857D01*
X155321454Y-71785605D01*
X155325876Y-71780694D01*
X155329772Y-71777186D01*
X155393779Y-71746469D01*
X155464233Y-71755232D01*
X155503178Y-71781727D01*
X155723075Y-72001624D01*
X155757101Y-72063936D01*
X155759980Y-72090719D01*
X155759980Y-75748399D01*
X155739978Y-75816520D01*
X155686322Y-75863013D01*
X155633980Y-75874399D01*
X155623493Y-75874399D01*
X155617041Y-75875771D01*
X155617036Y-75875771D01*
X155530093Y-75894252D01*
X155436692Y-75914105D01*
X155430662Y-75916790D01*
X155430661Y-75916790D01*
X155268258Y-75989096D01*
X155268256Y-75989097D01*
X155262228Y-75991781D01*
X155256887Y-75995661D01*
X155256886Y-75995662D01*
X155213763Y-76026993D01*
X155146895Y-76050851D01*
X155077744Y-76034771D01*
X155037767Y-75999120D01*
X155035207Y-75995597D01*
X155031903Y-75989874D01*
X154904116Y-75847952D01*
X154781434Y-75758818D01*
X154738080Y-75702596D01*
X154732005Y-75631859D01*
X154740387Y-75605635D01*
X154741549Y-75603025D01*
X154744852Y-75597304D01*
X154803867Y-75415676D01*
X154812819Y-75330508D01*
X154823139Y-75232313D01*
X154823829Y-75225748D01*
X154819824Y-75187642D01*
X154804557Y-75042383D01*
X154804557Y-75042381D01*
X154803867Y-75035820D01*
X154744852Y-74854192D01*
X154737623Y-74841670D01*
X154652666Y-74694522D01*
X154649365Y-74688804D01*
X154588746Y-74621479D01*
X154526000Y-74551793D01*
X154525999Y-74551792D01*
X154521578Y-74546882D01*
X154367077Y-74434630D01*
X154361049Y-74431946D01*
X154361047Y-74431945D01*
X154198644Y-74359639D01*
X154198643Y-74359639D01*
X154192613Y-74356954D01*
X154186157Y-74355582D01*
X154183976Y-74354873D01*
X154125370Y-74314798D01*
X154103080Y-74273977D01*
X154075493Y-74189074D01*
X154073452Y-74182792D01*
X153977965Y-74017404D01*
X153909685Y-73941571D01*
X153859718Y-73886077D01*
X153829000Y-73822070D01*
X153837765Y-73751616D01*
X153883228Y-73697085D01*
X153902106Y-73686660D01*
X153942919Y-73668489D01*
X153948952Y-73665803D01*
X154003201Y-73626389D01*
X154040232Y-73599484D01*
X154103453Y-73553551D01*
X154215396Y-73429226D01*
X154226821Y-73416537D01*
X154226822Y-73416536D01*
X154231240Y-73411629D01*
X154318313Y-73260815D01*
X154323423Y-73251964D01*
X154323424Y-73251963D01*
X154326727Y-73246241D01*
X154385742Y-73064613D01*
X154388661Y-73036845D01*
X154405014Y-72881250D01*
X154405704Y-72874685D01*
X154388882Y-72714635D01*
X154386432Y-72691320D01*
X154386432Y-72691318D01*
X154385742Y-72684757D01*
X154326727Y-72503129D01*
X154321808Y-72494608D01*
X154267543Y-72400620D01*
X154231240Y-72337741D01*
X154161318Y-72260084D01*
X154107875Y-72200730D01*
X154107874Y-72200729D01*
X154103453Y-72195819D01*
X153948952Y-72083567D01*
X153942924Y-72080883D01*
X153942922Y-72080882D01*
X153780519Y-72008576D01*
X153780518Y-72008576D01*
X153774488Y-72005891D01*
X153681087Y-71986038D01*
X153594144Y-71967557D01*
X153594139Y-71967557D01*
X153587687Y-71966185D01*
X153396713Y-71966185D01*
X153390255Y-71967558D01*
X153390252Y-71967558D01*
X153389908Y-71967631D01*
X153389704Y-71967615D01*
X153383685Y-71968248D01*
X153383569Y-71967147D01*
X153319117Y-71962231D01*
X153262484Y-71919415D01*
X153243876Y-71883323D01*
X153236267Y-71859905D01*
X153234228Y-71853629D01*
X153230926Y-71847910D01*
X153229528Y-71844770D01*
X153220093Y-71774403D01*
X153250199Y-71710105D01*
X153293385Y-71678413D01*
X153384337Y-71637919D01*
X153384339Y-71637918D01*
X153390367Y-71635234D01*
X153544868Y-71522982D01*
X153652594Y-71403340D01*
X153713040Y-71366100D01*
X153784024Y-71367452D01*
G37*
%TD.AperFunction*%
%TA.AperFunction,Conductor*%
G36*
X168372057Y-49277500D02*
G01*
X168386858Y-49279805D01*
X168386861Y-49279805D01*
X168395730Y-49281186D01*
X168406728Y-49279748D01*
X168435411Y-49279291D01*
X168538307Y-49289425D01*
X168562531Y-49294244D01*
X168681733Y-49330404D01*
X168704553Y-49339856D01*
X168814400Y-49398570D01*
X168834938Y-49412293D01*
X168931223Y-49491312D01*
X168948688Y-49508777D01*
X169027707Y-49605062D01*
X169041430Y-49625600D01*
X169100144Y-49735447D01*
X169109596Y-49758267D01*
X169145756Y-49877469D01*
X169150575Y-49901693D01*
X169158308Y-49980206D01*
X169160044Y-49997834D01*
X169159592Y-50013876D01*
X169160305Y-50013885D01*
X169160195Y-50022858D01*
X169158814Y-50031730D01*
X169159978Y-50040632D01*
X169159978Y-50040635D01*
X169162936Y-50063251D01*
X169164000Y-50079589D01*
X169164000Y-59753960D01*
X169143998Y-59822081D01*
X169090342Y-59868574D01*
X169020068Y-59878678D01*
X168955488Y-59849184D01*
X168937174Y-59829525D01*
X168871142Y-59741419D01*
X168865761Y-59734239D01*
X168749205Y-59646885D01*
X168612816Y-59595755D01*
X168550634Y-59589000D01*
X166729366Y-59589000D01*
X166667184Y-59595755D01*
X166530795Y-59646885D01*
X166414239Y-59734239D01*
X166326885Y-59850795D01*
X166275755Y-59987184D01*
X166269000Y-60049366D01*
X166269000Y-61870634D01*
X166275755Y-61932816D01*
X166326885Y-62069205D01*
X166414239Y-62185761D01*
X166530795Y-62273115D01*
X166667184Y-62324245D01*
X166729366Y-62331000D01*
X166778020Y-62331000D01*
X166846141Y-62351002D01*
X166867115Y-62367905D01*
X167627188Y-63127978D01*
X167641132Y-63135592D01*
X167642965Y-63135461D01*
X167649580Y-63131210D01*
X168412885Y-62367905D01*
X168475197Y-62333879D01*
X168501980Y-62331000D01*
X168550634Y-62331000D01*
X168612816Y-62324245D01*
X168749205Y-62273115D01*
X168865761Y-62185761D01*
X168937174Y-62090475D01*
X168994033Y-62047960D01*
X169064852Y-62042934D01*
X169127145Y-62076994D01*
X169161135Y-62139325D01*
X169164000Y-62166040D01*
X169164000Y-62962010D01*
X169143998Y-63030131D01*
X169090342Y-63076624D01*
X169020068Y-63086728D01*
X168955488Y-63057234D01*
X168922450Y-63012252D01*
X168854026Y-62854887D01*
X168849159Y-62845812D01*
X168782103Y-62742158D01*
X168771417Y-62732955D01*
X168761852Y-62737358D01*
X168012022Y-63487188D01*
X168004408Y-63501132D01*
X168004539Y-63502965D01*
X168008790Y-63509580D01*
X168759431Y-64260221D01*
X168771442Y-64266780D01*
X168783181Y-64257812D01*
X168815754Y-64212482D01*
X168821068Y-64203637D01*
X168916337Y-64010875D01*
X168920850Y-63999478D01*
X168964526Y-63943505D01*
X169031529Y-63920031D01*
X169100587Y-63936509D01*
X169149774Y-63987706D01*
X169164000Y-64045865D01*
X169164000Y-65500756D01*
X169143998Y-65568877D01*
X169090342Y-65615370D01*
X169020068Y-65625474D01*
X168955488Y-65595980D01*
X168922450Y-65550998D01*
X168854468Y-65394649D01*
X168854466Y-65394646D01*
X168852408Y-65389912D01*
X168729952Y-65200624D01*
X168578224Y-65033877D01*
X168401300Y-64894151D01*
X168375988Y-64880178D01*
X168326018Y-64829746D01*
X168311246Y-64760303D01*
X168336362Y-64693898D01*
X168363714Y-64667291D01*
X168398210Y-64642686D01*
X168406610Y-64631987D01*
X168399621Y-64618831D01*
X167652812Y-63872022D01*
X167638868Y-63864408D01*
X167637035Y-63864539D01*
X167630420Y-63868790D01*
X166877599Y-64621611D01*
X166870839Y-64633991D01*
X166876120Y-64641046D01*
X166906669Y-64658897D01*
X166955392Y-64710536D01*
X166968463Y-64780319D01*
X166941731Y-64846091D01*
X166910608Y-64873975D01*
X166906923Y-64875893D01*
X166902793Y-64878994D01*
X166902788Y-64878997D01*
X166751869Y-64992310D01*
X166726637Y-65011255D01*
X166570881Y-65174245D01*
X166567967Y-65178517D01*
X166567966Y-65178518D01*
X166549926Y-65204964D01*
X166443837Y-65360485D01*
X166427979Y-65394649D01*
X166388350Y-65480022D01*
X166348916Y-65564974D01*
X166288668Y-65782220D01*
X166264712Y-66006389D01*
X166265009Y-66011542D01*
X166265009Y-66011545D01*
X166271181Y-66118581D01*
X166277689Y-66231460D01*
X166278826Y-66236506D01*
X166278827Y-66236512D01*
X166279354Y-66238849D01*
X166327253Y-66451390D01*
X166329195Y-66456172D01*
X166329196Y-66456176D01*
X166398003Y-66625626D01*
X166412071Y-66660272D01*
X166529866Y-66852496D01*
X166677474Y-67022899D01*
X166681449Y-67026199D01*
X166681453Y-67026203D01*
X166753005Y-67085607D01*
X166850931Y-67166907D01*
X166906191Y-67199198D01*
X166954914Y-67250837D01*
X166967985Y-67320620D01*
X166941253Y-67386392D01*
X166910269Y-67414151D01*
X166906923Y-67415893D01*
X166902793Y-67418994D01*
X166902788Y-67418997D01*
X166826100Y-67476576D01*
X166726637Y-67551255D01*
X166570881Y-67714245D01*
X166567967Y-67718517D01*
X166567966Y-67718518D01*
X166549926Y-67744964D01*
X166443837Y-67900485D01*
X166427979Y-67934649D01*
X166390028Y-68016407D01*
X166348916Y-68104974D01*
X166288668Y-68322220D01*
X166264712Y-68546389D01*
X166265009Y-68551542D01*
X166265009Y-68551545D01*
X166276079Y-68743545D01*
X166277689Y-68771460D01*
X166278826Y-68776506D01*
X166278827Y-68776512D01*
X166287614Y-68815500D01*
X166327253Y-68991390D01*
X166329195Y-68996172D01*
X166329196Y-68996176D01*
X166400128Y-69170861D01*
X166412071Y-69200272D01*
X166529866Y-69392496D01*
X166533250Y-69396402D01*
X166533251Y-69396404D01*
X166557212Y-69424065D01*
X166677474Y-69562899D01*
X166681449Y-69566199D01*
X166681453Y-69566203D01*
X166723204Y-69600865D01*
X166850931Y-69706907D01*
X166906191Y-69739198D01*
X166954914Y-69790837D01*
X166967985Y-69860620D01*
X166941253Y-69926392D01*
X166910269Y-69954151D01*
X166906923Y-69955893D01*
X166902793Y-69958994D01*
X166902788Y-69958997D01*
X166730772Y-70088150D01*
X166726637Y-70091255D01*
X166570881Y-70254245D01*
X166443837Y-70440485D01*
X166348916Y-70644974D01*
X166288668Y-70862220D01*
X166264712Y-71086389D01*
X166265009Y-71091542D01*
X166265009Y-71091545D01*
X166276734Y-71294898D01*
X166277689Y-71311460D01*
X166278826Y-71316506D01*
X166278827Y-71316512D01*
X166293374Y-71381060D01*
X166327253Y-71531390D01*
X166329195Y-71536172D01*
X166329196Y-71536176D01*
X166410127Y-71735485D01*
X166412071Y-71740272D01*
X166529866Y-71932496D01*
X166677474Y-72102899D01*
X166681449Y-72106199D01*
X166681453Y-72106203D01*
X166686946Y-72110763D01*
X166850931Y-72246907D01*
X166906191Y-72279198D01*
X166954914Y-72330837D01*
X166967985Y-72400620D01*
X166941253Y-72466392D01*
X166910269Y-72494151D01*
X166906923Y-72495893D01*
X166902793Y-72498994D01*
X166902788Y-72498997D01*
X166730772Y-72628150D01*
X166726637Y-72631255D01*
X166570881Y-72794245D01*
X166443837Y-72980485D01*
X166415543Y-73041439D01*
X166351423Y-73179574D01*
X166348916Y-73184974D01*
X166288668Y-73402220D01*
X166264712Y-73626389D01*
X166265009Y-73631542D01*
X166265009Y-73631545D01*
X166272807Y-73766794D01*
X166277689Y-73851460D01*
X166278826Y-73856506D01*
X166278827Y-73856512D01*
X166283879Y-73878929D01*
X166327253Y-74071390D01*
X166329195Y-74076172D01*
X166329196Y-74076176D01*
X166409515Y-74273977D01*
X166412071Y-74280272D01*
X166414770Y-74284676D01*
X166414773Y-74284682D01*
X166447451Y-74338009D01*
X166465989Y-74406543D01*
X166444532Y-74474219D01*
X166429113Y-74492938D01*
X165697656Y-75224395D01*
X165635344Y-75258421D01*
X165608561Y-75261300D01*
X162966502Y-75261300D01*
X162898381Y-75241298D01*
X162851888Y-75187642D01*
X162841784Y-75117368D01*
X162871278Y-75052788D01*
X162892441Y-75033364D01*
X163038909Y-74926949D01*
X163038911Y-74926947D01*
X163044253Y-74923066D01*
X163048675Y-74918155D01*
X163167621Y-74786052D01*
X163167622Y-74786051D01*
X163172040Y-74781144D01*
X163267527Y-74615756D01*
X163326542Y-74434128D01*
X163346504Y-74244200D01*
X163326542Y-74054272D01*
X163267527Y-73872644D01*
X163255297Y-73851460D01*
X163188015Y-73734926D01*
X163172040Y-73707256D01*
X163158126Y-73691803D01*
X163073864Y-73598220D01*
X163043146Y-73534213D01*
X163041500Y-73513910D01*
X163041500Y-72898000D01*
X163932496Y-72898000D01*
X163933186Y-72904565D01*
X163950180Y-73066250D01*
X163952458Y-73087928D01*
X164011473Y-73269556D01*
X164106960Y-73434944D01*
X164111378Y-73439851D01*
X164111379Y-73439852D01*
X164230325Y-73571955D01*
X164234747Y-73576866D01*
X164389248Y-73689118D01*
X164395276Y-73691802D01*
X164395278Y-73691803D01*
X164555707Y-73763230D01*
X164563712Y-73766794D01*
X164657113Y-73786647D01*
X164744056Y-73805128D01*
X164744061Y-73805128D01*
X164750513Y-73806500D01*
X164941487Y-73806500D01*
X164947939Y-73805128D01*
X164947944Y-73805128D01*
X165034887Y-73786647D01*
X165128288Y-73766794D01*
X165136293Y-73763230D01*
X165296722Y-73691803D01*
X165296724Y-73691802D01*
X165302752Y-73689118D01*
X165457253Y-73576866D01*
X165461675Y-73571955D01*
X165580621Y-73439852D01*
X165580622Y-73439851D01*
X165585040Y-73434944D01*
X165680527Y-73269556D01*
X165739542Y-73087928D01*
X165741821Y-73066250D01*
X165758814Y-72904565D01*
X165759504Y-72898000D01*
X165739542Y-72708072D01*
X165680527Y-72526444D01*
X165664681Y-72498997D01*
X165607882Y-72400620D01*
X165585040Y-72361056D01*
X165457253Y-72219134D01*
X165302752Y-72106882D01*
X165296724Y-72104198D01*
X165296722Y-72104197D01*
X165134319Y-72031891D01*
X165134318Y-72031891D01*
X165128288Y-72029206D01*
X165031232Y-72008576D01*
X164947944Y-71990872D01*
X164947939Y-71990872D01*
X164941487Y-71989500D01*
X164750513Y-71989500D01*
X164744061Y-71990872D01*
X164744056Y-71990872D01*
X164660768Y-72008576D01*
X164563712Y-72029206D01*
X164557682Y-72031891D01*
X164557681Y-72031891D01*
X164395278Y-72104197D01*
X164395276Y-72104198D01*
X164389248Y-72106882D01*
X164234747Y-72219134D01*
X164106960Y-72361056D01*
X164084118Y-72400620D01*
X164027320Y-72498997D01*
X164011473Y-72526444D01*
X163952458Y-72708072D01*
X163932496Y-72898000D01*
X163041500Y-72898000D01*
X163041500Y-71547091D01*
X163061502Y-71478970D01*
X163078405Y-71457996D01*
X163374699Y-71161702D01*
X163437011Y-71127676D01*
X163507826Y-71132741D01*
X163537853Y-71148860D01*
X163678048Y-71250718D01*
X163684076Y-71253402D01*
X163684078Y-71253403D01*
X163846481Y-71325709D01*
X163852512Y-71328394D01*
X163928186Y-71344479D01*
X164032856Y-71366728D01*
X164032861Y-71366728D01*
X164039313Y-71368100D01*
X164230287Y-71368100D01*
X164236739Y-71366728D01*
X164236744Y-71366728D01*
X164341414Y-71344479D01*
X164417088Y-71328394D01*
X164423119Y-71325709D01*
X164585522Y-71253403D01*
X164585524Y-71253402D01*
X164591552Y-71250718D01*
X164639789Y-71215672D01*
X164646957Y-71210464D01*
X164746053Y-71138466D01*
X164823828Y-71052088D01*
X164869421Y-71001452D01*
X164869422Y-71001451D01*
X164873840Y-70996544D01*
X164969327Y-70831156D01*
X165028342Y-70649528D01*
X165048304Y-70459600D01*
X165045845Y-70436206D01*
X165029032Y-70276235D01*
X165029032Y-70276233D01*
X165028342Y-70269672D01*
X164969327Y-70088044D01*
X164970606Y-70087628D01*
X164962131Y-70024394D01*
X164989661Y-69966318D01*
X164988391Y-69965395D01*
X164992273Y-69960052D01*
X164996692Y-69955144D01*
X165031066Y-69895606D01*
X165088875Y-69795479D01*
X165088876Y-69795478D01*
X165092179Y-69789756D01*
X165151194Y-69608128D01*
X165151958Y-69600865D01*
X165170466Y-69424765D01*
X165171156Y-69418200D01*
X165165155Y-69361103D01*
X165151884Y-69234835D01*
X165151884Y-69234833D01*
X165151194Y-69228272D01*
X165092179Y-69046644D01*
X164996692Y-68881256D01*
X164987205Y-68870719D01*
X164873327Y-68744245D01*
X164873326Y-68744244D01*
X164868905Y-68739334D01*
X164714404Y-68627082D01*
X164708376Y-68624398D01*
X164708374Y-68624397D01*
X164545971Y-68552091D01*
X164545970Y-68552091D01*
X164539940Y-68549406D01*
X164446539Y-68529553D01*
X164359596Y-68511072D01*
X164359591Y-68511072D01*
X164353139Y-68509700D01*
X164162165Y-68509700D01*
X164155713Y-68511072D01*
X164155708Y-68511072D01*
X164068765Y-68529553D01*
X163975364Y-68549406D01*
X163969334Y-68552091D01*
X163969333Y-68552091D01*
X163806930Y-68624397D01*
X163806928Y-68624398D01*
X163800900Y-68627082D01*
X163795559Y-68630963D01*
X163795553Y-68630966D01*
X163739604Y-68671615D01*
X163672737Y-68695474D01*
X163603585Y-68679393D01*
X163591483Y-68671615D01*
X163534567Y-68630263D01*
X163534566Y-68630262D01*
X163529225Y-68626382D01*
X163523197Y-68623698D01*
X163523195Y-68623697D01*
X163360792Y-68551391D01*
X163360791Y-68551391D01*
X163354761Y-68548706D01*
X163261361Y-68528853D01*
X163174417Y-68510372D01*
X163174412Y-68510372D01*
X163167960Y-68509000D01*
X162976986Y-68509000D01*
X162970534Y-68510372D01*
X162970529Y-68510372D01*
X162883585Y-68528853D01*
X162790185Y-68548706D01*
X162784155Y-68551391D01*
X162784154Y-68551391D01*
X162621751Y-68623697D01*
X162621749Y-68623698D01*
X162615721Y-68626382D01*
X162610380Y-68630262D01*
X162610379Y-68630263D01*
X162591674Y-68643853D01*
X162461220Y-68738634D01*
X162456799Y-68743544D01*
X162456798Y-68743545D01*
X162346907Y-68865592D01*
X162333433Y-68880556D01*
X162237946Y-69045944D01*
X162178931Y-69227572D01*
X162178241Y-69234133D01*
X162178241Y-69234135D01*
X162168898Y-69323034D01*
X162158969Y-69417500D01*
X162159659Y-69424065D01*
X162169265Y-69515457D01*
X162178931Y-69607428D01*
X162237946Y-69789056D01*
X162251270Y-69812133D01*
X162260356Y-69827871D01*
X162277093Y-69896866D01*
X162253872Y-69963958D01*
X162198065Y-70007845D01*
X162127390Y-70014593D01*
X162099988Y-70005977D01*
X162080288Y-69997206D01*
X161985994Y-69977163D01*
X161899944Y-69958872D01*
X161899939Y-69958872D01*
X161893487Y-69957500D01*
X161702513Y-69957500D01*
X161688648Y-69960447D01*
X161632730Y-69972332D01*
X161561939Y-69966929D01*
X161505307Y-69924112D01*
X161486701Y-69888021D01*
X161469860Y-69836190D01*
X161467818Y-69829905D01*
X161464489Y-69824138D01*
X161375632Y-69670235D01*
X161372331Y-69664517D01*
X161338643Y-69627102D01*
X161248966Y-69527506D01*
X161248965Y-69527505D01*
X161244544Y-69522595D01*
X161090043Y-69410343D01*
X161084015Y-69407659D01*
X161084013Y-69407658D01*
X160921610Y-69335352D01*
X160921609Y-69335352D01*
X160915579Y-69332667D01*
X160822178Y-69312814D01*
X160735235Y-69294333D01*
X160735230Y-69294333D01*
X160728778Y-69292961D01*
X160537804Y-69292961D01*
X160531352Y-69294333D01*
X160531347Y-69294333D01*
X160467480Y-69307909D01*
X160396689Y-69302507D01*
X160347648Y-69268974D01*
X160316938Y-69234866D01*
X160286221Y-69170861D01*
X160284574Y-69150557D01*
X160284574Y-66734810D01*
X160285652Y-66718364D01*
X160288746Y-66694862D01*
X160289824Y-66686674D01*
X160284574Y-66646794D01*
X160284574Y-66646789D01*
X160268912Y-66527824D01*
X160269504Y-66527746D01*
X160266621Y-66491104D01*
X160272414Y-66435986D01*
X160272414Y-66435985D01*
X160273104Y-66429420D01*
X160253142Y-66239492D01*
X160194127Y-66057864D01*
X160184118Y-66040527D01*
X160124020Y-65936435D01*
X160098640Y-65892476D01*
X160008180Y-65792010D01*
X159977463Y-65728003D01*
X159986227Y-65657549D01*
X160031690Y-65603018D01*
X160101816Y-65581700D01*
X160553961Y-65581700D01*
X160622082Y-65601702D01*
X160643056Y-65618605D01*
X160929688Y-65905237D01*
X160940555Y-65917628D01*
X160960016Y-65942990D01*
X160966566Y-65948016D01*
X160991924Y-65967474D01*
X160991940Y-65967488D01*
X161035948Y-66001256D01*
X161087127Y-66040527D01*
X161235152Y-66101841D01*
X161243337Y-66102919D01*
X161243339Y-66102919D01*
X161247405Y-66103454D01*
X161275882Y-66107203D01*
X161354118Y-66117503D01*
X161354119Y-66117503D01*
X161354129Y-66117504D01*
X161385814Y-66121675D01*
X161394003Y-66122753D01*
X161425696Y-66118581D01*
X161442139Y-66117503D01*
X164312861Y-66117503D01*
X164329304Y-66118581D01*
X164360997Y-66122753D01*
X164369186Y-66121675D01*
X164400871Y-66117504D01*
X164400881Y-66117503D01*
X164400882Y-66117503D01*
X164479119Y-66107203D01*
X164507595Y-66103454D01*
X164511661Y-66102919D01*
X164511663Y-66102919D01*
X164519848Y-66101841D01*
X164667873Y-66040527D01*
X164674427Y-66035498D01*
X164763066Y-65967483D01*
X164763072Y-65967477D01*
X164788431Y-65948018D01*
X164794984Y-65942990D01*
X164800014Y-65936435D01*
X164814449Y-65917624D01*
X164825316Y-65905233D01*
X165242234Y-65488315D01*
X165254625Y-65477448D01*
X165273437Y-65463013D01*
X165279987Y-65457987D01*
X165304474Y-65426075D01*
X165304478Y-65426071D01*
X165377524Y-65330876D01*
X165438838Y-65182851D01*
X165442632Y-65154036D01*
X165446670Y-65123359D01*
X165454500Y-65063886D01*
X165454500Y-65063880D01*
X165458672Y-65032189D01*
X165459750Y-65024000D01*
X165455578Y-64992307D01*
X165454500Y-64975864D01*
X165454500Y-63471557D01*
X166265511Y-63471557D01*
X166277888Y-63686222D01*
X166279324Y-63696442D01*
X166326596Y-63906197D01*
X166329675Y-63916026D01*
X166410575Y-64115258D01*
X166415218Y-64124449D01*
X166497370Y-64258510D01*
X166507826Y-64267970D01*
X166516604Y-64264186D01*
X167267978Y-63512812D01*
X167275592Y-63498868D01*
X167275461Y-63497035D01*
X167271210Y-63490420D01*
X166520853Y-62740063D01*
X166509317Y-62733764D01*
X166497034Y-62743387D01*
X166447187Y-62816461D01*
X166442098Y-62825419D01*
X166351560Y-63020467D01*
X166348008Y-63030120D01*
X166290541Y-63237341D01*
X166288614Y-63247446D01*
X166265763Y-63461268D01*
X166265511Y-63471557D01*
X165454500Y-63471557D01*
X165454500Y-61182290D01*
X165474502Y-61114169D01*
X165486864Y-61097980D01*
X165580621Y-60993852D01*
X165580622Y-60993851D01*
X165585040Y-60988944D01*
X165680527Y-60823556D01*
X165739542Y-60641928D01*
X165745468Y-60585550D01*
X165758814Y-60458565D01*
X165759504Y-60452000D01*
X165742359Y-60288874D01*
X165740232Y-60268635D01*
X165740232Y-60268633D01*
X165739542Y-60262072D01*
X165680527Y-60080444D01*
X165664554Y-60052777D01*
X165588341Y-59920774D01*
X165585040Y-59915056D01*
X165543188Y-59868574D01*
X165461675Y-59778045D01*
X165461674Y-59778044D01*
X165457253Y-59773134D01*
X165302752Y-59660882D01*
X165296724Y-59658198D01*
X165296722Y-59658197D01*
X165134319Y-59585891D01*
X165134318Y-59585891D01*
X165128288Y-59583206D01*
X165034888Y-59563353D01*
X164947944Y-59544872D01*
X164947939Y-59544872D01*
X164941487Y-59543500D01*
X164750513Y-59543500D01*
X164744061Y-59544872D01*
X164744056Y-59544872D01*
X164657112Y-59563353D01*
X164563712Y-59583206D01*
X164557682Y-59585891D01*
X164557681Y-59585891D01*
X164395278Y-59658197D01*
X164395276Y-59658198D01*
X164389248Y-59660882D01*
X164234747Y-59773134D01*
X164230326Y-59778044D01*
X164230325Y-59778045D01*
X164148813Y-59868574D01*
X164106960Y-59915056D01*
X164103659Y-59920774D01*
X164027447Y-60052777D01*
X164011473Y-60080444D01*
X163952458Y-60262072D01*
X163951768Y-60268633D01*
X163951768Y-60268635D01*
X163949641Y-60288874D01*
X163932496Y-60452000D01*
X163933186Y-60458565D01*
X163946533Y-60585550D01*
X163952458Y-60641928D01*
X164011473Y-60823556D01*
X164106960Y-60988944D01*
X164111378Y-60993851D01*
X164111379Y-60993852D01*
X164205136Y-61097980D01*
X164235854Y-61161987D01*
X164237500Y-61182290D01*
X164237500Y-64719761D01*
X164217498Y-64787882D01*
X164200595Y-64808856D01*
X164145853Y-64863598D01*
X164083541Y-64897624D01*
X164056758Y-64900503D01*
X161698242Y-64900503D01*
X161630121Y-64880501D01*
X161609147Y-64863598D01*
X161322515Y-64576966D01*
X161311648Y-64564575D01*
X161297213Y-64545763D01*
X161292187Y-64539213D01*
X161260275Y-64514726D01*
X161260272Y-64514723D01*
X161165076Y-64441676D01*
X161017051Y-64380362D01*
X161008864Y-64379284D01*
X161008863Y-64379284D01*
X160997658Y-64377809D01*
X160966462Y-64373702D01*
X160898085Y-64364700D01*
X160898082Y-64364700D01*
X160898074Y-64364699D01*
X160866389Y-64360528D01*
X160858200Y-64359450D01*
X160850011Y-64360528D01*
X160848090Y-64360528D01*
X160779969Y-64340526D01*
X160733476Y-64286870D01*
X160723869Y-64228029D01*
X160722773Y-64228029D01*
X160722773Y-64221423D01*
X160723463Y-64214858D01*
X160711727Y-64103197D01*
X160704191Y-64031493D01*
X160704191Y-64031491D01*
X160703501Y-64024930D01*
X160644486Y-63843302D01*
X160548999Y-63677914D01*
X160444479Y-63561832D01*
X160425634Y-63540903D01*
X160425633Y-63540902D01*
X160421212Y-63535992D01*
X160375755Y-63502965D01*
X160354788Y-63487732D01*
X160311434Y-63431510D01*
X160305359Y-63360773D01*
X160338491Y-63297982D01*
X160402651Y-63262549D01*
X160507354Y-63240294D01*
X160513987Y-63237341D01*
X160675788Y-63165303D01*
X160675790Y-63165302D01*
X160681818Y-63162618D01*
X160836319Y-63050366D01*
X160964106Y-62908444D01*
X161059593Y-62743056D01*
X161118608Y-62561428D01*
X161119773Y-62550350D01*
X161137880Y-62378065D01*
X161138570Y-62371500D01*
X161134275Y-62330631D01*
X161119298Y-62188135D01*
X161119298Y-62188133D01*
X161118608Y-62181572D01*
X161059593Y-61999944D01*
X160964106Y-61834556D01*
X160944060Y-61812292D01*
X160840741Y-61697545D01*
X160840738Y-61697542D01*
X160836319Y-61692634D01*
X160721895Y-61609500D01*
X160687160Y-61584263D01*
X160687159Y-61584262D01*
X160681818Y-61580382D01*
X160675790Y-61577698D01*
X160675788Y-61577697D01*
X160513385Y-61505391D01*
X160513384Y-61505391D01*
X160507354Y-61502706D01*
X160413953Y-61482853D01*
X160327010Y-61464372D01*
X160327005Y-61464372D01*
X160320553Y-61463000D01*
X160129579Y-61463000D01*
X160123127Y-61464372D01*
X160123122Y-61464372D01*
X160036179Y-61482853D01*
X159942778Y-61502706D01*
X159936748Y-61505391D01*
X159936747Y-61505391D01*
X159774344Y-61577697D01*
X159774342Y-61577698D01*
X159768314Y-61580382D01*
X159762973Y-61584262D01*
X159762972Y-61584263D01*
X159728237Y-61609500D01*
X159613813Y-61692634D01*
X159609394Y-61697542D01*
X159599611Y-61708407D01*
X159539164Y-61745645D01*
X159468181Y-61744292D01*
X159431915Y-61726029D01*
X159426595Y-61722164D01*
X159421252Y-61718282D01*
X159415224Y-61715598D01*
X159415222Y-61715597D01*
X159252819Y-61643291D01*
X159252818Y-61643291D01*
X159246788Y-61640606D01*
X159153387Y-61620753D01*
X159066444Y-61602272D01*
X159066439Y-61602272D01*
X159059987Y-61600900D01*
X158869013Y-61600900D01*
X158862561Y-61602272D01*
X158862556Y-61602272D01*
X158775613Y-61620753D01*
X158682212Y-61640606D01*
X158676182Y-61643291D01*
X158676181Y-61643291D01*
X158513778Y-61715597D01*
X158513776Y-61715598D01*
X158507748Y-61718282D01*
X158353247Y-61830534D01*
X158348826Y-61835444D01*
X158348825Y-61835445D01*
X158252161Y-61942802D01*
X158225460Y-61972456D01*
X158129973Y-62137844D01*
X158070958Y-62319472D01*
X158070268Y-62326033D01*
X158070268Y-62326035D01*
X158056224Y-62459655D01*
X158050996Y-62509400D01*
X158051686Y-62515965D01*
X158069701Y-62687364D01*
X158070958Y-62699328D01*
X158129973Y-62880956D01*
X158225460Y-63046344D01*
X158229878Y-63051251D01*
X158229879Y-63051252D01*
X158305701Y-63135461D01*
X158353247Y-63188266D01*
X158434701Y-63247446D01*
X158479508Y-63280000D01*
X158507748Y-63300518D01*
X158513776Y-63303202D01*
X158513778Y-63303203D01*
X158676181Y-63375509D01*
X158682212Y-63378194D01*
X158775613Y-63398047D01*
X158862556Y-63416528D01*
X158862561Y-63416528D01*
X158869013Y-63417900D01*
X159022037Y-63417900D01*
X159090158Y-63437902D01*
X159136651Y-63491558D01*
X159146755Y-63561832D01*
X159115674Y-63628208D01*
X159070919Y-63677914D01*
X158975432Y-63843302D01*
X158973390Y-63849587D01*
X158954083Y-63909007D01*
X158914009Y-63967613D01*
X158860448Y-63993318D01*
X158696312Y-64028206D01*
X158690282Y-64030891D01*
X158690281Y-64030891D01*
X158527878Y-64103197D01*
X158527876Y-64103198D01*
X158521848Y-64105882D01*
X158367347Y-64218134D01*
X158362926Y-64223044D01*
X158362925Y-64223045D01*
X158322475Y-64267970D01*
X158239560Y-64360056D01*
X158239425Y-64359935D01*
X158185648Y-64401402D01*
X158114912Y-64407476D01*
X158052121Y-64374343D01*
X158030818Y-64346986D01*
X157968342Y-64238774D01*
X157968339Y-64238769D01*
X157965040Y-64233056D01*
X157948655Y-64214858D01*
X157841675Y-64096045D01*
X157841674Y-64096044D01*
X157837253Y-64091134D01*
X157711100Y-63999478D01*
X157688094Y-63982763D01*
X157688093Y-63982762D01*
X157682752Y-63978882D01*
X157676724Y-63976198D01*
X157676722Y-63976197D01*
X157514319Y-63903891D01*
X157514318Y-63903891D01*
X157508288Y-63901206D01*
X157414888Y-63881353D01*
X157327944Y-63862872D01*
X157327939Y-63862872D01*
X157321487Y-63861500D01*
X157130513Y-63861500D01*
X157124061Y-63862872D01*
X157124056Y-63862872D01*
X157037112Y-63881353D01*
X156943712Y-63901206D01*
X156937682Y-63903891D01*
X156937681Y-63903891D01*
X156901430Y-63920031D01*
X156769248Y-63978882D01*
X156698882Y-63988316D01*
X156666753Y-63978882D01*
X156666752Y-63978882D01*
X156534570Y-63920031D01*
X156498319Y-63903891D01*
X156498318Y-63903891D01*
X156492288Y-63901206D01*
X156398888Y-63881353D01*
X156311944Y-63862872D01*
X156311939Y-63862872D01*
X156305487Y-63861500D01*
X156294989Y-63861500D01*
X156292818Y-63860863D01*
X156292318Y-63860810D01*
X156292328Y-63860719D01*
X156226868Y-63841498D01*
X156180375Y-63787842D01*
X156168989Y-63735500D01*
X156168989Y-62548750D01*
X156188991Y-62480629D01*
X156205894Y-62459655D01*
X156230234Y-62435315D01*
X156292546Y-62401289D01*
X156363361Y-62406354D01*
X156396150Y-62426232D01*
X156396709Y-62425462D01*
X156522188Y-62516628D01*
X156551210Y-62537714D01*
X156557238Y-62540398D01*
X156557240Y-62540399D01*
X156618573Y-62567706D01*
X156725674Y-62615390D01*
X156819075Y-62635243D01*
X156906018Y-62653724D01*
X156906023Y-62653724D01*
X156912475Y-62655096D01*
X157103449Y-62655096D01*
X157109901Y-62653724D01*
X157109906Y-62653724D01*
X157196849Y-62635243D01*
X157290250Y-62615390D01*
X157397351Y-62567706D01*
X157458684Y-62540399D01*
X157458686Y-62540398D01*
X157464714Y-62537714D01*
X157619215Y-62425462D01*
X157623637Y-62420551D01*
X157742583Y-62288448D01*
X157742584Y-62288447D01*
X157747002Y-62283540D01*
X157842489Y-62118152D01*
X157901504Y-61936524D01*
X157902720Y-61924960D01*
X157920776Y-61753161D01*
X157921466Y-61746596D01*
X157910602Y-61643227D01*
X157902194Y-61563231D01*
X157902194Y-61563229D01*
X157901504Y-61556668D01*
X157842489Y-61375040D01*
X157747002Y-61209652D01*
X157689083Y-61145327D01*
X157658367Y-61081320D01*
X157667132Y-61010867D01*
X157693626Y-60971923D01*
X158235766Y-60429783D01*
X158298078Y-60395757D01*
X158368893Y-60400822D01*
X158426266Y-60444413D01*
X158428648Y-60448539D01*
X158556435Y-60590461D01*
X158710936Y-60702713D01*
X158716964Y-60705397D01*
X158716966Y-60705398D01*
X158879369Y-60777704D01*
X158885400Y-60780389D01*
X158978800Y-60800242D01*
X159065744Y-60818723D01*
X159065749Y-60818723D01*
X159072201Y-60820095D01*
X159263175Y-60820095D01*
X159269627Y-60818723D01*
X159269632Y-60818723D01*
X159356576Y-60800242D01*
X159449976Y-60780389D01*
X159456007Y-60777704D01*
X159618410Y-60705398D01*
X159618412Y-60705397D01*
X159624440Y-60702713D01*
X159778941Y-60590461D01*
X159906728Y-60448539D01*
X160002215Y-60283151D01*
X160061230Y-60101523D01*
X160063446Y-60080444D01*
X160080502Y-59918160D01*
X160081192Y-59911595D01*
X160074632Y-59849184D01*
X160061920Y-59728230D01*
X160061920Y-59728228D01*
X160061230Y-59721667D01*
X160002215Y-59540039D01*
X159993284Y-59524569D01*
X159939650Y-59431673D01*
X159906728Y-59374651D01*
X159852210Y-59314102D01*
X159783363Y-59237640D01*
X159783362Y-59237639D01*
X159778941Y-59232729D01*
X159697822Y-59173792D01*
X159654468Y-59117569D01*
X159648393Y-59046833D01*
X159682788Y-58982761D01*
X159879544Y-58786005D01*
X159941856Y-58751979D01*
X159968639Y-58749100D01*
X161546664Y-58749100D01*
X161563107Y-58750178D01*
X161594800Y-58754350D01*
X161602989Y-58753272D01*
X161634674Y-58749101D01*
X161634684Y-58749100D01*
X161634685Y-58749100D01*
X161734257Y-58735991D01*
X161745464Y-58734516D01*
X161745466Y-58734515D01*
X161753651Y-58733438D01*
X161901676Y-58672124D01*
X161996872Y-58599077D01*
X161996875Y-58599074D01*
X162028787Y-58574587D01*
X162048258Y-58549213D01*
X162059116Y-58536833D01*
X165450864Y-55145085D01*
X165513176Y-55111059D01*
X165583991Y-55116124D01*
X165633594Y-55149869D01*
X165758747Y-55288866D01*
X165857843Y-55360864D01*
X165900861Y-55392118D01*
X165913248Y-55401118D01*
X165919276Y-55403802D01*
X165919278Y-55403803D01*
X166081681Y-55476109D01*
X166087712Y-55478794D01*
X166177523Y-55497884D01*
X166268056Y-55517128D01*
X166268061Y-55517128D01*
X166274513Y-55518500D01*
X166465487Y-55518500D01*
X166471939Y-55517128D01*
X166471944Y-55517128D01*
X166562477Y-55497884D01*
X166652288Y-55478794D01*
X166658319Y-55476109D01*
X166820722Y-55403803D01*
X166820724Y-55403802D01*
X166826752Y-55401118D01*
X166839140Y-55392118D01*
X166882157Y-55360864D01*
X166981253Y-55288866D01*
X166987165Y-55282300D01*
X167104621Y-55151852D01*
X167104622Y-55151851D01*
X167109040Y-55146944D01*
X167187485Y-55011073D01*
X167201223Y-54987279D01*
X167201224Y-54987278D01*
X167204527Y-54981556D01*
X167263542Y-54799928D01*
X167269134Y-54746728D01*
X167282814Y-54616565D01*
X167283504Y-54610000D01*
X167270429Y-54485601D01*
X167283201Y-54415764D01*
X167302097Y-54388129D01*
X167425053Y-54251573D01*
X167520540Y-54086185D01*
X167579555Y-53904557D01*
X167585926Y-53843946D01*
X167598827Y-53721194D01*
X167599517Y-53714629D01*
X167579555Y-53524701D01*
X167520540Y-53343073D01*
X167506295Y-53318399D01*
X167428354Y-53183403D01*
X167425053Y-53177685D01*
X167361984Y-53107639D01*
X167301688Y-53040674D01*
X167301684Y-53040670D01*
X167297266Y-53035763D01*
X167184523Y-52953850D01*
X167148107Y-52927392D01*
X167148106Y-52927391D01*
X167142765Y-52923511D01*
X167136737Y-52920827D01*
X167136735Y-52920826D01*
X166974332Y-52848520D01*
X166974331Y-52848520D01*
X166968301Y-52845835D01*
X166874900Y-52825982D01*
X166787957Y-52807501D01*
X166787952Y-52807501D01*
X166781500Y-52806129D01*
X166590526Y-52806129D01*
X166584074Y-52807501D01*
X166584069Y-52807501D01*
X166497126Y-52825982D01*
X166403725Y-52845835D01*
X166397695Y-52848520D01*
X166397694Y-52848520D01*
X166235291Y-52920826D01*
X166235289Y-52920827D01*
X166229261Y-52923511D01*
X166223920Y-52927391D01*
X166223919Y-52927392D01*
X166187503Y-52953850D01*
X166074760Y-53035763D01*
X166070345Y-53040667D01*
X166070341Y-53040670D01*
X166046609Y-53067027D01*
X165986163Y-53104267D01*
X165969424Y-53107638D01*
X165861921Y-53121791D01*
X165854294Y-53124950D01*
X165854291Y-53124951D01*
X165775209Y-53157708D01*
X165713895Y-53183105D01*
X165618699Y-53256152D01*
X165618696Y-53256155D01*
X165586784Y-53280642D01*
X165581754Y-53287197D01*
X165567319Y-53306008D01*
X165556452Y-53318399D01*
X163221143Y-55653708D01*
X163158831Y-55687734D01*
X163088016Y-55682669D01*
X163031180Y-55640122D01*
X163009844Y-55595309D01*
X162955833Y-55380282D01*
X162952513Y-55370531D01*
X162863820Y-55166549D01*
X162858953Y-55157474D01*
X162784647Y-55042614D01*
X162773962Y-55033411D01*
X162764395Y-55037815D01*
X161523539Y-56278671D01*
X161461227Y-56312697D01*
X161390412Y-56307632D01*
X161381196Y-56303771D01*
X161356377Y-56292198D01*
X161356368Y-56292195D01*
X161350192Y-56289315D01*
X161343544Y-56287829D01*
X161343541Y-56287828D01*
X161178494Y-56250936D01*
X161178495Y-56250936D01*
X161173457Y-56249810D01*
X161167912Y-56249500D01*
X161138480Y-56249500D01*
X161070359Y-56229498D01*
X161023866Y-56175842D01*
X161013762Y-56105568D01*
X161043256Y-56040988D01*
X161049385Y-56034405D01*
X161237978Y-55845812D01*
X161245592Y-55831868D01*
X161245461Y-55830035D01*
X161241210Y-55823420D01*
X160458469Y-55040679D01*
X160444525Y-55033065D01*
X160425903Y-55034396D01*
X160402669Y-55043649D01*
X160332980Y-55030086D01*
X160316856Y-55020132D01*
X160304386Y-55011071D01*
X160304381Y-55011068D01*
X160299046Y-55007192D01*
X160293016Y-55004507D01*
X160145015Y-54938613D01*
X160145014Y-54938613D01*
X160138984Y-54935928D01*
X160026958Y-54912116D01*
X159974061Y-54900872D01*
X159974057Y-54900872D01*
X159967604Y-54899500D01*
X159792396Y-54899500D01*
X159785943Y-54900872D01*
X159785939Y-54900872D01*
X159733042Y-54912116D01*
X159621016Y-54935928D01*
X159531248Y-54975895D01*
X159460882Y-54985329D01*
X159428754Y-54975896D01*
X159338984Y-54935928D01*
X159226958Y-54912116D01*
X159174061Y-54900872D01*
X159174057Y-54900872D01*
X159167604Y-54899500D01*
X158992396Y-54899500D01*
X158985943Y-54900872D01*
X158985939Y-54900872D01*
X158933042Y-54912116D01*
X158821016Y-54935928D01*
X158731248Y-54975895D01*
X158660882Y-54985329D01*
X158628754Y-54975896D01*
X158538984Y-54935928D01*
X158426958Y-54912116D01*
X158374061Y-54900872D01*
X158374057Y-54900872D01*
X158367604Y-54899500D01*
X158192396Y-54899500D01*
X158185943Y-54900872D01*
X158185939Y-54900872D01*
X158133042Y-54912116D01*
X158021016Y-54935928D01*
X158014987Y-54938613D01*
X158014985Y-54938613D01*
X157866985Y-55004507D01*
X157866983Y-55004508D01*
X157860955Y-55007192D01*
X157855616Y-55011071D01*
X157855613Y-55011073D01*
X157823512Y-55034396D01*
X157719208Y-55110177D01*
X157714795Y-55115079D01*
X157714793Y-55115080D01*
X157606389Y-55235474D01*
X157601970Y-55240382D01*
X157589119Y-55262641D01*
X157537737Y-55311634D01*
X157468024Y-55325071D01*
X157402113Y-55298684D01*
X157370882Y-55262642D01*
X157358030Y-55240382D01*
X157353611Y-55235474D01*
X157245207Y-55115080D01*
X157245205Y-55115079D01*
X157240792Y-55110177D01*
X157141195Y-55037815D01*
X157104388Y-55011073D01*
X157104385Y-55011071D01*
X157099046Y-55007192D01*
X157093018Y-55004508D01*
X157093016Y-55004507D01*
X156945015Y-54938613D01*
X156945014Y-54938613D01*
X156938984Y-54935928D01*
X156826958Y-54912116D01*
X156774061Y-54900872D01*
X156774057Y-54900872D01*
X156767604Y-54899500D01*
X156592396Y-54899500D01*
X156585943Y-54900872D01*
X156585939Y-54900872D01*
X156533042Y-54912116D01*
X156421016Y-54935928D01*
X156331248Y-54975895D01*
X156260882Y-54985329D01*
X156228754Y-54975896D01*
X156138984Y-54935928D01*
X156026958Y-54912116D01*
X155974061Y-54900872D01*
X155974057Y-54900872D01*
X155967604Y-54899500D01*
X155792396Y-54899500D01*
X155785943Y-54900872D01*
X155785939Y-54900872D01*
X155733042Y-54912116D01*
X155621016Y-54935928D01*
X155531248Y-54975895D01*
X155460882Y-54985329D01*
X155428754Y-54975896D01*
X155338984Y-54935928D01*
X155226958Y-54912116D01*
X155174061Y-54900872D01*
X155174057Y-54900872D01*
X155167604Y-54899500D01*
X154992396Y-54899500D01*
X154985943Y-54900872D01*
X154985939Y-54900872D01*
X154933042Y-54912116D01*
X154821016Y-54935928D01*
X154660955Y-55007192D01*
X154645412Y-55018485D01*
X154578547Y-55042343D01*
X154549503Y-55035590D01*
X154549248Y-55037403D01*
X154515580Y-55032666D01*
X154504396Y-55037814D01*
X153722022Y-55820188D01*
X153714408Y-55834132D01*
X153714721Y-55838517D01*
X153733497Y-55902462D01*
X153713495Y-55970582D01*
X153659840Y-56017075D01*
X153642966Y-56023367D01*
X153475793Y-56072410D01*
X153420696Y-56100787D01*
X153395447Y-56113791D01*
X153325728Y-56127200D01*
X153259828Y-56100787D01*
X153248660Y-56090870D01*
X153079885Y-55922095D01*
X153045859Y-55859783D01*
X153050924Y-55788968D01*
X153079885Y-55743905D01*
X154144330Y-54679460D01*
X154150394Y-54668356D01*
X160810152Y-54668356D01*
X160816898Y-54680688D01*
X161597188Y-55460978D01*
X161611132Y-55468592D01*
X161612965Y-55468461D01*
X161619580Y-55464210D01*
X162404330Y-54679460D01*
X162411351Y-54666604D01*
X162403578Y-54655936D01*
X162400068Y-54653164D01*
X162391481Y-54647459D01*
X162196769Y-54539972D01*
X162187357Y-54535742D01*
X161977698Y-54461497D01*
X161967728Y-54458863D01*
X161748757Y-54419860D01*
X161738503Y-54418890D01*
X161516091Y-54416172D01*
X161505807Y-54416892D01*
X161285950Y-54450535D01*
X161275922Y-54452924D01*
X161064510Y-54522024D01*
X161055001Y-54526021D01*
X160857718Y-54628720D01*
X160848997Y-54634212D01*
X160818605Y-54657031D01*
X160810152Y-54668356D01*
X154150394Y-54668356D01*
X154151351Y-54666604D01*
X154143578Y-54655936D01*
X154140068Y-54653164D01*
X154131481Y-54647459D01*
X153936769Y-54539972D01*
X153927357Y-54535742D01*
X153717698Y-54461497D01*
X153707728Y-54458863D01*
X153488757Y-54419860D01*
X153478503Y-54418890D01*
X153256091Y-54416172D01*
X153245807Y-54416892D01*
X153025950Y-54450535D01*
X153015922Y-54452924D01*
X152804510Y-54522024D01*
X152795006Y-54526019D01*
X152625670Y-54614170D01*
X152556010Y-54627883D01*
X152489995Y-54601758D01*
X152448583Y-54544090D01*
X152441489Y-54502407D01*
X152441489Y-52930097D01*
X152461491Y-52861976D01*
X152515147Y-52815483D01*
X152585421Y-52805379D01*
X152593692Y-52807167D01*
X152593735Y-52806954D01*
X152816749Y-52852327D01*
X152827001Y-52853550D01*
X153049267Y-52861700D01*
X153059553Y-52861233D01*
X153280180Y-52832970D01*
X153290258Y-52830828D01*
X153503300Y-52766912D01*
X153512898Y-52763150D01*
X153712640Y-52665299D01*
X153721487Y-52660025D01*
X153780475Y-52617949D01*
X153786804Y-52609889D01*
X161167941Y-52609889D01*
X161173222Y-52616944D01*
X161351829Y-52721314D01*
X161361112Y-52725761D01*
X161568904Y-52805109D01*
X161578806Y-52807986D01*
X161796749Y-52852327D01*
X161807001Y-52853550D01*
X162029267Y-52861700D01*
X162039553Y-52861233D01*
X162260180Y-52832970D01*
X162270258Y-52830828D01*
X162483300Y-52766912D01*
X162492898Y-52763150D01*
X162692640Y-52665299D01*
X162701487Y-52660025D01*
X162760475Y-52617949D01*
X162768875Y-52607251D01*
X162761887Y-52594097D01*
X161982812Y-51815022D01*
X161968868Y-51807408D01*
X161967035Y-51807539D01*
X161960420Y-51811790D01*
X161174701Y-52597509D01*
X161167941Y-52609889D01*
X153786804Y-52609889D01*
X153788875Y-52607251D01*
X153781887Y-52594097D01*
X152719885Y-51532095D01*
X152685859Y-51469783D01*
X152687694Y-51444132D01*
X153354408Y-51444132D01*
X153354539Y-51445965D01*
X153358790Y-51452580D01*
X154141676Y-52235466D01*
X154153686Y-52242024D01*
X154165426Y-52233056D01*
X154204460Y-52178736D01*
X154209769Y-52169899D01*
X154308315Y-51970507D01*
X154312114Y-51960912D01*
X154376770Y-51748107D01*
X154378949Y-51738026D01*
X154408218Y-51515706D01*
X154408737Y-51509031D01*
X154410269Y-51446364D01*
X154410075Y-51439646D01*
X154407922Y-51413454D01*
X160550370Y-51413454D01*
X160563174Y-51635506D01*
X160564610Y-51645727D01*
X160613508Y-51862701D01*
X160616587Y-51872529D01*
X160700271Y-52078617D01*
X160704914Y-52087808D01*
X160794644Y-52234236D01*
X160805100Y-52243696D01*
X160813878Y-52239912D01*
X161597978Y-51455812D01*
X161604356Y-51444132D01*
X162334408Y-51444132D01*
X162334539Y-51445965D01*
X162338790Y-51452580D01*
X163121676Y-52235466D01*
X163133686Y-52242024D01*
X163145426Y-52233056D01*
X163184460Y-52178736D01*
X163189769Y-52169899D01*
X163288315Y-51970507D01*
X163292114Y-51960912D01*
X163356770Y-51748107D01*
X163358949Y-51738026D01*
X163388218Y-51515706D01*
X163388737Y-51509031D01*
X163390269Y-51446364D01*
X163390075Y-51439646D01*
X163371703Y-51216181D01*
X163370018Y-51206001D01*
X163315833Y-50990282D01*
X163312513Y-50980531D01*
X163223820Y-50776549D01*
X163218953Y-50767474D01*
X163144647Y-50652614D01*
X163133962Y-50643411D01*
X163124395Y-50647815D01*
X162342022Y-51430188D01*
X162334408Y-51444132D01*
X161604356Y-51444132D01*
X161605592Y-51441868D01*
X161605461Y-51440035D01*
X161601210Y-51433420D01*
X160818469Y-50650679D01*
X160806933Y-50644379D01*
X160794650Y-50654003D01*
X160737931Y-50737150D01*
X160732832Y-50746126D01*
X160639187Y-50947864D01*
X160635628Y-50957539D01*
X160576189Y-51171870D01*
X160574258Y-51181990D01*
X160550622Y-51403165D01*
X160550370Y-51413454D01*
X154407922Y-51413454D01*
X154391703Y-51216181D01*
X154390018Y-51206001D01*
X154335833Y-50990282D01*
X154332513Y-50980531D01*
X154243820Y-50776549D01*
X154238953Y-50767474D01*
X154164647Y-50652614D01*
X154153962Y-50643411D01*
X154144395Y-50647815D01*
X153362022Y-51430188D01*
X153354408Y-51444132D01*
X152687694Y-51444132D01*
X152690924Y-51398968D01*
X152719885Y-51353905D01*
X153784330Y-50289460D01*
X153790394Y-50278356D01*
X161170152Y-50278356D01*
X161176898Y-50290688D01*
X161957188Y-51070978D01*
X161971132Y-51078592D01*
X161972965Y-51078461D01*
X161979580Y-51074210D01*
X162764330Y-50289460D01*
X162771351Y-50276604D01*
X162763578Y-50265936D01*
X162760068Y-50263164D01*
X162751481Y-50257459D01*
X162556769Y-50149972D01*
X162547357Y-50145742D01*
X162337698Y-50071497D01*
X162327728Y-50068863D01*
X162108757Y-50029860D01*
X162098503Y-50028890D01*
X161876091Y-50026172D01*
X161865807Y-50026892D01*
X161645950Y-50060535D01*
X161635922Y-50062924D01*
X161424510Y-50132024D01*
X161415001Y-50136021D01*
X161217718Y-50238720D01*
X161208997Y-50244212D01*
X161178605Y-50267031D01*
X161170152Y-50278356D01*
X153790394Y-50278356D01*
X153791351Y-50276604D01*
X153783578Y-50265936D01*
X153780068Y-50263164D01*
X153771481Y-50257459D01*
X153576769Y-50149972D01*
X153567357Y-50145742D01*
X153357698Y-50071497D01*
X153347728Y-50068863D01*
X153150885Y-50033801D01*
X153087328Y-50002163D01*
X153050965Y-49941186D01*
X153047671Y-49896583D01*
X153058814Y-49790564D01*
X153059504Y-49784000D01*
X153047623Y-49670960D01*
X153040232Y-49600635D01*
X153040232Y-49600633D01*
X153039542Y-49594072D01*
X152998341Y-49467268D01*
X152989785Y-49440936D01*
X152987757Y-49369969D01*
X153024420Y-49309171D01*
X153088132Y-49277845D01*
X153109618Y-49276000D01*
X168352672Y-49276000D01*
X168372057Y-49277500D01*
G37*
%TD.AperFunction*%
%TA.AperFunction,Conductor*%
G36*
X149612741Y-73213961D02*
G01*
X149637200Y-73232545D01*
X149640102Y-73236327D01*
X149646648Y-73241350D01*
X149646651Y-73241353D01*
X149665468Y-73255792D01*
X149677859Y-73266659D01*
X149828245Y-73417045D01*
X149862271Y-73479357D01*
X149857206Y-73550172D01*
X149814659Y-73607008D01*
X149748139Y-73631819D01*
X149690932Y-73622549D01*
X149637851Y-73600562D01*
X149629664Y-73599484D01*
X149629663Y-73599484D01*
X149618458Y-73598009D01*
X149587262Y-73593902D01*
X149518885Y-73584900D01*
X149518882Y-73584900D01*
X149518874Y-73584899D01*
X149487189Y-73580728D01*
X149479000Y-73579650D01*
X149447307Y-73583822D01*
X149430864Y-73584900D01*
X149276385Y-73584900D01*
X149208264Y-73564898D01*
X149161771Y-73511242D01*
X149151667Y-73440968D01*
X149181161Y-73376388D01*
X149240887Y-73338004D01*
X149244958Y-73336975D01*
X149246831Y-73336367D01*
X149253288Y-73334994D01*
X149406772Y-73266659D01*
X149421722Y-73260003D01*
X149421724Y-73260002D01*
X149427752Y-73257318D01*
X149448778Y-73242042D01*
X149476722Y-73221739D01*
X149543589Y-73197881D01*
X149612741Y-73213961D01*
G37*
%TD.AperFunction*%
%TA.AperFunction,Conductor*%
G36*
X148857209Y-60931345D02*
G01*
X148857486Y-60930491D01*
X148863766Y-60932531D01*
X148869798Y-60935217D01*
X148963198Y-60955070D01*
X149050142Y-60973551D01*
X149050147Y-60973551D01*
X149056599Y-60974923D01*
X149247573Y-60974923D01*
X149262327Y-60971787D01*
X149313393Y-60960933D01*
X149384183Y-60966335D01*
X149440816Y-61009152D01*
X149465309Y-61075790D01*
X149465589Y-61084180D01*
X149465589Y-69768938D01*
X149445587Y-69837059D01*
X149391931Y-69883552D01*
X149321657Y-69893656D01*
X149313402Y-69892187D01*
X149246975Y-69878067D01*
X149149144Y-69857272D01*
X149149139Y-69857272D01*
X149142687Y-69855900D01*
X148951713Y-69855900D01*
X148945261Y-69857272D01*
X148945256Y-69857272D01*
X148858313Y-69875753D01*
X148764912Y-69895606D01*
X148758882Y-69898291D01*
X148758881Y-69898291D01*
X148596478Y-69970597D01*
X148596476Y-69970598D01*
X148590448Y-69973282D01*
X148585107Y-69977162D01*
X148585106Y-69977163D01*
X148471828Y-70059465D01*
X148435947Y-70085534D01*
X148431531Y-70090439D01*
X148431526Y-70090443D01*
X148426213Y-70096345D01*
X148365769Y-70133588D01*
X148294785Y-70132239D01*
X148254481Y-70110921D01*
X148234313Y-70094993D01*
X148081300Y-69974151D01*
X148056472Y-69960445D01*
X148006503Y-69910015D01*
X147991731Y-69840572D01*
X148016847Y-69774166D01*
X148044198Y-69747560D01*
X148203743Y-69633758D01*
X148203748Y-69633754D01*
X148207955Y-69630753D01*
X148367647Y-69471618D01*
X148499204Y-69288537D01*
X148502295Y-69282284D01*
X148596799Y-69091070D01*
X148599093Y-69086429D01*
X148664630Y-68870719D01*
X148694057Y-68647203D01*
X148694614Y-68624397D01*
X148695617Y-68583365D01*
X148695617Y-68583361D01*
X148695699Y-68580000D01*
X148681656Y-68409194D01*
X148677650Y-68360464D01*
X148677649Y-68360458D01*
X148677226Y-68355313D01*
X148622304Y-68136659D01*
X148608527Y-68104974D01*
X148534468Y-67934649D01*
X148534466Y-67934646D01*
X148532408Y-67929912D01*
X148409952Y-67740624D01*
X148258224Y-67573877D01*
X148081300Y-67434151D01*
X148056472Y-67420445D01*
X148006503Y-67370015D01*
X147991731Y-67300572D01*
X148016847Y-67234166D01*
X148044198Y-67207560D01*
X148203743Y-67093758D01*
X148203748Y-67093754D01*
X148207955Y-67090753D01*
X148367647Y-66931618D01*
X148499204Y-66748537D01*
X148505989Y-66734810D01*
X148596799Y-66551070D01*
X148599093Y-66546429D01*
X148664630Y-66330719D01*
X148694057Y-66107203D01*
X148695263Y-66057864D01*
X148695617Y-66043365D01*
X148695617Y-66043361D01*
X148695699Y-66040000D01*
X148685638Y-65917624D01*
X148677650Y-65820464D01*
X148677649Y-65820458D01*
X148677226Y-65815313D01*
X148642516Y-65677128D01*
X148623563Y-65601670D01*
X148623562Y-65601666D01*
X148622304Y-65596659D01*
X148615800Y-65581700D01*
X148534468Y-65394649D01*
X148534466Y-65394646D01*
X148532408Y-65389912D01*
X148409952Y-65200624D01*
X148258224Y-65033877D01*
X148081300Y-64894151D01*
X148055988Y-64880178D01*
X148006018Y-64829746D01*
X147991246Y-64760303D01*
X148016362Y-64693898D01*
X148043714Y-64667291D01*
X148078210Y-64642686D01*
X148086610Y-64631987D01*
X148079621Y-64618831D01*
X147049885Y-63589095D01*
X147015859Y-63526783D01*
X147017694Y-63501132D01*
X147684408Y-63501132D01*
X147684539Y-63502965D01*
X147688790Y-63509580D01*
X148439431Y-64260221D01*
X148451442Y-64266780D01*
X148463181Y-64257812D01*
X148495754Y-64212482D01*
X148501068Y-64203637D01*
X148596332Y-64010886D01*
X148600130Y-64001293D01*
X148662637Y-63795557D01*
X148664814Y-63785487D01*
X148693118Y-63570500D01*
X148693637Y-63563825D01*
X148695115Y-63503364D01*
X148694921Y-63496647D01*
X148677155Y-63280546D01*
X148675472Y-63270384D01*
X148623088Y-63061832D01*
X148619770Y-63052085D01*
X148534026Y-62854887D01*
X148529159Y-62845812D01*
X148462103Y-62742158D01*
X148451417Y-62732955D01*
X148441852Y-62737358D01*
X147692022Y-63487188D01*
X147684408Y-63501132D01*
X147017694Y-63501132D01*
X147020924Y-63455968D01*
X147049885Y-63410905D01*
X148092885Y-62367905D01*
X148155197Y-62333879D01*
X148181980Y-62331000D01*
X148230634Y-62331000D01*
X148292816Y-62324245D01*
X148429205Y-62273115D01*
X148545761Y-62185761D01*
X148633115Y-62069205D01*
X148684245Y-61932816D01*
X148691000Y-61870634D01*
X148691000Y-61049634D01*
X148711002Y-60981513D01*
X148764658Y-60935020D01*
X148834932Y-60924916D01*
X148857209Y-60931345D01*
G37*
%TD.AperFunction*%
%TA.AperFunction,Conductor*%
G36*
X160314431Y-56532588D02*
G01*
X160352244Y-56592677D01*
X160351567Y-56663670D01*
X160342825Y-56684824D01*
X160339723Y-56689388D01*
X160324022Y-56728643D01*
X160320599Y-56737202D01*
X160292705Y-56779505D01*
X159910436Y-57161774D01*
X159903676Y-57174154D01*
X159907187Y-57178844D01*
X160015137Y-57226907D01*
X160027629Y-57230967D01*
X160192448Y-57266000D01*
X160191979Y-57268205D01*
X160248011Y-57291251D01*
X160290670Y-57356096D01*
X160295227Y-57372640D01*
X160294033Y-57443626D01*
X160254650Y-57502699D01*
X160189583Y-57531101D01*
X160173751Y-57532100D01*
X159712536Y-57532100D01*
X159696090Y-57531022D01*
X159672588Y-57527928D01*
X159664400Y-57526850D01*
X159656212Y-57527928D01*
X159624529Y-57532099D01*
X159624520Y-57532100D01*
X159624515Y-57532100D01*
X159505550Y-57547762D01*
X159357525Y-57609076D01*
X159350971Y-57614105D01*
X159336032Y-57625568D01*
X159262328Y-57682123D01*
X159262321Y-57682129D01*
X159236966Y-57701584D01*
X159236963Y-57701587D01*
X159230413Y-57706613D01*
X159225383Y-57713168D01*
X159210948Y-57731979D01*
X159200081Y-57744370D01*
X158927612Y-58016839D01*
X158865300Y-58050865D01*
X158794485Y-58045800D01*
X158765467Y-58028170D01*
X158764404Y-58029633D01*
X158615245Y-57921262D01*
X158615244Y-57921261D01*
X158609903Y-57917381D01*
X158603875Y-57914697D01*
X158603873Y-57914696D01*
X158441470Y-57842390D01*
X158441469Y-57842390D01*
X158435439Y-57839705D01*
X158342039Y-57819852D01*
X158255095Y-57801371D01*
X158255090Y-57801371D01*
X158248638Y-57799999D01*
X158057664Y-57799999D01*
X158051211Y-57801371D01*
X158051198Y-57801372D01*
X157891669Y-57835282D01*
X157820879Y-57829881D01*
X157791413Y-57813973D01*
X157678663Y-57732055D01*
X157672635Y-57729371D01*
X157672633Y-57729370D01*
X157510230Y-57657064D01*
X157510229Y-57657064D01*
X157504199Y-57654379D01*
X157410798Y-57634526D01*
X157323855Y-57616045D01*
X157323850Y-57616045D01*
X157317398Y-57614673D01*
X157126424Y-57614673D01*
X157119972Y-57616045D01*
X157119967Y-57616045D01*
X157033024Y-57634526D01*
X156939623Y-57654379D01*
X156933593Y-57657064D01*
X156933592Y-57657064D01*
X156771189Y-57729370D01*
X156771187Y-57729371D01*
X156765159Y-57732055D01*
X156610658Y-57844307D01*
X156606237Y-57849217D01*
X156606236Y-57849218D01*
X156547280Y-57914696D01*
X156482871Y-57986229D01*
X156424492Y-58087344D01*
X156395782Y-58137071D01*
X156344399Y-58186064D01*
X156274686Y-58199500D01*
X156212605Y-58176008D01*
X156158752Y-58136882D01*
X156152724Y-58134198D01*
X156152722Y-58134197D01*
X155990319Y-58061891D01*
X155990318Y-58061891D01*
X155984288Y-58059206D01*
X155890888Y-58039353D01*
X155803944Y-58020872D01*
X155803939Y-58020872D01*
X155797487Y-58019500D01*
X155606513Y-58019500D01*
X155600061Y-58020872D01*
X155600056Y-58020872D01*
X155513112Y-58039353D01*
X155419712Y-58059206D01*
X155413682Y-58061891D01*
X155413681Y-58061891D01*
X155251278Y-58134197D01*
X155251276Y-58134198D01*
X155245248Y-58136882D01*
X155090747Y-58249134D01*
X155086334Y-58254036D01*
X155086332Y-58254037D01*
X155064926Y-58277811D01*
X155004480Y-58315050D01*
X154971290Y-58319500D01*
X154721768Y-58319500D01*
X154653647Y-58299498D01*
X154632673Y-58282595D01*
X154501798Y-58151720D01*
X154467772Y-58089408D01*
X154472837Y-58018593D01*
X154513060Y-57963539D01*
X154625883Y-57874915D01*
X154630601Y-57871209D01*
X154766106Y-57715053D01*
X154869638Y-57536092D01*
X154932143Y-57356096D01*
X154935497Y-57346438D01*
X154935498Y-57346434D01*
X154937461Y-57340781D01*
X154944631Y-57291334D01*
X154974202Y-57226789D01*
X155018076Y-57194310D01*
X155045827Y-57181954D01*
X155056572Y-57172821D01*
X155054975Y-57167185D01*
X154998884Y-57111094D01*
X154964858Y-57048782D01*
X154962114Y-57027825D01*
X154957846Y-56935629D01*
X154957569Y-56929639D01*
X154909129Y-56728643D01*
X154909972Y-56728440D01*
X154906942Y-56662598D01*
X154942539Y-56601170D01*
X155005695Y-56568739D01*
X155029342Y-56566500D01*
X155120520Y-56566500D01*
X155188641Y-56586502D01*
X155209615Y-56603405D01*
X155408466Y-56802256D01*
X155422410Y-56809870D01*
X155452001Y-56807754D01*
X155521375Y-56822845D01*
X155570109Y-56870433D01*
X155601970Y-56925618D01*
X155606388Y-56930525D01*
X155606389Y-56930526D01*
X155686907Y-57019949D01*
X155719208Y-57055823D01*
X155724547Y-57059702D01*
X155813647Y-57124437D01*
X155860954Y-57158808D01*
X155866982Y-57161492D01*
X155866984Y-57161493D01*
X155970017Y-57207366D01*
X156021016Y-57230072D01*
X156106706Y-57248286D01*
X156185939Y-57265128D01*
X156185943Y-57265128D01*
X156192396Y-57266500D01*
X156367604Y-57266500D01*
X156374057Y-57265128D01*
X156374061Y-57265128D01*
X156453294Y-57248286D01*
X156538984Y-57230072D01*
X156628752Y-57190105D01*
X156699118Y-57180671D01*
X156731246Y-57190104D01*
X156821016Y-57230072D01*
X156906706Y-57248286D01*
X156985939Y-57265128D01*
X156985943Y-57265128D01*
X156992396Y-57266500D01*
X157167604Y-57266500D01*
X157174057Y-57265128D01*
X157174061Y-57265128D01*
X157253294Y-57248286D01*
X157338984Y-57230072D01*
X157428752Y-57190105D01*
X157499118Y-57180671D01*
X157531246Y-57190104D01*
X157621016Y-57230072D01*
X157706706Y-57248286D01*
X157785939Y-57265128D01*
X157785943Y-57265128D01*
X157792396Y-57266500D01*
X157967604Y-57266500D01*
X157974057Y-57265128D01*
X157974061Y-57265128D01*
X158053294Y-57248286D01*
X158138984Y-57230072D01*
X158228752Y-57190105D01*
X158299118Y-57180671D01*
X158331246Y-57190104D01*
X158421016Y-57230072D01*
X158506706Y-57248286D01*
X158585939Y-57265128D01*
X158585943Y-57265128D01*
X158592396Y-57266500D01*
X158767604Y-57266500D01*
X158774057Y-57265128D01*
X158774061Y-57265128D01*
X158853294Y-57248286D01*
X158938984Y-57230072D01*
X158989983Y-57207366D01*
X159093016Y-57161493D01*
X159093018Y-57161492D01*
X159099046Y-57158808D01*
X159146354Y-57124437D01*
X159235453Y-57059702D01*
X159240792Y-57055823D01*
X159273094Y-57019949D01*
X159353611Y-56930526D01*
X159353612Y-56930525D01*
X159358030Y-56925618D01*
X159361330Y-56919902D01*
X159361333Y-56919898D01*
X159391396Y-56867826D01*
X159442778Y-56818833D01*
X159512492Y-56805397D01*
X159524357Y-56807102D01*
X159538216Y-56809773D01*
X159547890Y-56805900D01*
X159750385Y-56603405D01*
X159812697Y-56569379D01*
X159839480Y-56566500D01*
X159967604Y-56566500D01*
X159974057Y-56565128D01*
X159974061Y-56565128D01*
X160053294Y-56548286D01*
X160138984Y-56530072D01*
X160145011Y-56527389D01*
X160145019Y-56527386D01*
X160179767Y-56511915D01*
X160250134Y-56502481D01*
X160314431Y-56532588D01*
G37*
%TD.AperFunction*%
%TD*%
M02*
